# Blender v2.79 (sub 0) OBJ File: 'AR16.blend'
# www.blender.org
mtllib grip.mtl
o Cube.009_Cube.018
v -0.069897 -0.672844 -0.284345
v -0.046688 -0.675234 -0.258086
v -0.045646 -0.632982 -0.260973
v -0.068388 -0.625268 -0.282388
v -0.045646 -0.422325 -0.194611
v -0.045646 -0.402800 -0.165138
v -0.068040 -0.379969 -0.165006
v -0.068042 -0.377893 -0.210489
v -0.068388 -0.423375 -0.218786
v -0.069773 -0.607051 -0.467459
v -0.068388 -0.564657 -0.451058
v -0.045646 -0.557099 -0.472807
v -0.046984 -0.599239 -0.488958
v -0.068042 -0.377893 -0.367323
v -0.045297 -0.377911 -0.390085
v -0.045646 -0.420688 -0.399853
v -0.068388 -0.423375 -0.375499
v 0.073017 -0.672400 -0.284319
v 0.068388 -0.625268 -0.282388
v 0.045646 -0.632982 -0.260973
v 0.048741 -0.675234 -0.258086
v 0.068734 -0.377893 -0.210489
v 0.068736 -0.379969 -0.165006
v 0.045646 -0.402800 -0.165138
v 0.045646 -0.422325 -0.194611
v 0.068388 -0.423375 -0.218786
v 0.049556 -0.599239 -0.488958
v 0.045646 -0.557099 -0.472807
v 0.068388 -0.564657 -0.451058
v 0.072651 -0.606697 -0.467376
v 0.045989 -0.377911 -0.390085
v 0.068734 -0.377893 -0.367323
v 0.068388 -0.423375 -0.375499
v 0.045646 -0.420688 -0.399853
v -0.071174 -0.698250 -0.272335
v -0.049911 -0.729542 -0.250530
v -0.048818 -0.716241 -0.238698
v -0.071271 -0.630574 -0.473237
v -0.048489 -0.623326 -0.494875
v -0.049911 -0.652672 -0.478748
v 0.077184 -0.698852 -0.271833
v 0.055401 -0.716241 -0.238698
v 0.058984 -0.729542 -0.250530
v 0.054262 -0.623326 -0.494875
v 0.077472 -0.630924 -0.473325
v 0.058984 -0.652672 -0.478748
v -0.066362 -0.267552 -0.210337
v -0.066362 -0.267552 -0.164852
v -0.043273 -0.244812 -0.164820
v -0.043273 -0.244812 -0.210305
v -0.066362 -0.267552 -0.371974
v -0.043273 -0.244812 -0.372952
v -0.043616 -0.267534 -0.394737
v 0.070415 -0.267552 -0.210337
v 0.048018 -0.244812 -0.210305
v 0.048018 -0.244812 -0.164820
v 0.070415 -0.267552 -0.164852
v 0.047670 -0.267534 -0.394737
v 0.048018 -0.244812 -0.372952
v 0.070415 -0.267552 -0.371974
v -0.045646 -0.402820 -0.164931
v -0.045306 -0.382244 -0.142262
v -0.068050 -0.379969 -0.165001
v 0.045646 -0.402820 -0.164931
v 0.068727 -0.379969 -0.165001
v 0.045980 -0.382244 -0.142262
v -0.043273 -0.244812 -0.164820
v -0.066352 -0.267552 -0.164851
v -0.043607 -0.267554 -0.142108
v 0.048018 -0.244812 -0.164820
v 0.047679 -0.267554 -0.142108
v 0.070424 -0.267552 -0.164851
vn 0.0000 -0.3005 0.9538
vn 0.0000 0.2386 -0.9711
vn 0.9999 -0.0152 0.0000
vn 0.0000 0.4274 0.9040
vn 0.0000 -0.0421 -0.9991
vn -0.9999 0.0150 -0.0061
vn 0.0000 1.0000 0.0000
vn -1.0000 0.0000 0.0000
vn 1.0000 0.0000 0.0000
vn -0.9999 0.0152 -0.0000
vn 0.0000 0.0000 1.0000
vn 0.0000 -0.9477 -0.3192
vn 0.9812 0.1822 0.0631
vn 0.9999 -0.0150 0.0037
vn 0.0000 -0.9955 -0.0952
vn 0.0000 0.4716 -0.8818
vn 0.0000 -0.0013 1.0000
vn -0.7168 0.0276 0.6967
vn -0.8481 -0.4205 0.3223
vn -0.7094 0.2731 -0.6498
vn -0.7160 0.1445 -0.6830
vn 0.7025 0.0683 0.7084
vn 0.8417 -0.4328 0.3228
vn 0.7045 0.3139 -0.6365
vn 0.7167 0.1336 -0.6844
vn -0.8608 -0.2969 0.4133
vn -0.5739 -0.3729 -0.7291
vn 0.8630 -0.1856 0.4699
vn 0.5885 -0.3146 -0.7448
vn -0.7017 0.7125 0.0000
vn -0.5830 0.5669 -0.5821
vn 0.7125 0.7017 0.0000
vn 0.5888 0.5546 -0.5879
vn -0.6008 -0.5874 0.5422
vn 0.5951 -0.5994 0.5353
vn -0.5747 0.5825 0.5748
vn 0.5804 0.5711 0.5805
vn -0.9995 0.0300 0.0104
vn -0.7071 -0.2125 0.6744
vn -1.0000 0.0076 0.0000
vn -0.7071 0.3335 -0.6235
vn 0.0000 0.3579 -0.9338
vn 0.0000 0.2226 -0.9749
vn 0.7071 0.3335 -0.6235
vn 0.9952 0.0926 0.0322
vn 1.0000 -0.0076 0.0000
vn 0.7071 -0.2125 0.6744
vn -0.0000 0.0682 0.9977
vn 0.0000 -0.8337 0.5523
vn -0.7291 -0.6487 -0.2183
vn 0.0000 -0.4816 -0.8764
vn 0.7726 -0.6018 -0.2023
vn 0.0000 -0.6646 0.7472
vn 0.7007 0.2975 -0.6484
vn -0.7078 0.2103 -0.6744
vn -0.6901 0.3380 0.6400
vn 0.6490 0.4077 0.6424
vn 0.0000 0.6921 -0.7218
vn -0.9999 0.0151 0.0004
vn -0.7073 -0.0190 -0.7067
vn 0.9999 -0.0151 -0.0004
vn 0.7068 -0.0405 -0.7063
vn 0.0000 -0.7405 0.6721
vn 0.0000 0.7066 0.7076
vn -0.7068 0.0096 0.7074
vn 0.7073 -0.0115 0.7068
vn 0.0861 0.0876 -0.9924
vn 0.7029 -0.7104 -0.0363
vn -0.7106 -0.6967 -0.0983
vn -0.0841 0.0853 0.9928
vn -0.9980 0.0592 0.0205
usemtl None
s off
f 20//1 25//1 5//1 3//1
f 13//2 27//2 44//2 39//2
f 22//3 32//3 60//3 54//3
f 21//4 2//4 37//4 42//4
f 31//5 15//5 53//5 58//5
f 48//6 7//6 63//6 68//6
f 59//7 52//7 50//7 55//7
f 4//8 9//8 17//8 11//8
f 29//9 33//9 26//9 19//9
f 14//10 8//10 47//10 51//10
f 56//11 49//11 67//11 70//11
f 40//12 46//12 43//12 36//12
f 30//13 18//13 41//13 45//13
f 23//14 57//14 72//14 65//14
f 6//15 24//15 64//15 61//15
f 12//16 16//16 34//16 28//16
f 62//17 66//17 71//17 69//17
f 1//18 2//18 3//18 4//18
f 5//19 6//19 7//19 8//19 9//19
f 10//20 11//20 12//20 13//20
f 14//21 15//21 16//21 17//21
f 18//22 19//22 20//22 21//22
f 22//23 23//23 24//23 25//23 26//23
f 27//24 28//24 29//24 30//24
f 31//25 32//25 33//25 34//25
f 35//26 36//26 37//26
f 38//27 39//27 40//27
f 41//28 42//28 43//28
f 44//29 45//29 46//29
f 47//30 48//30 49//30 50//30
f 51//31 52//31 53//31
f 54//32 55//32 56//32 57//32
f 58//33 59//33 60//33
f 61//34 62//34 63//34
f 64//35 65//35 66//35
f 67//36 68//36 69//36
f 70//37 71//37 72//37
f 10//38 1//38 4//38 11//38
f 3//39 5//39 9//39 4//39
f 8//40 14//40 17//40 9//40
f 16//41 12//41 11//41 17//41
f 27//42 13//42 12//42 28//42
f 15//43 31//43 34//43 16//43
f 33//44 29//44 28//44 34//44
f 18//45 30//45 29//45 19//45
f 32//46 22//46 26//46 33//46
f 25//47 20//47 19//47 26//47
f 2//48 21//48 20//48 3//48
f 24//49 6//49 5//49 25//49
f 40//50 36//50 35//50 38//50
f 46//51 40//51 39//51 44//51
f 43//52 46//52 45//52 41//52
f 36//53 43//53 42//53 37//53
f 30//54 45//54 44//54 27//54
f 38//55 10//55 13//55 39//55
f 37//56 2//56 1//56 35//56
f 21//57 42//57 41//57 18//57
f 50//30 52//30 51//30 47//30
f 52//58 59//58 58//58 53//58
f 59//32 55//32 54//32 60//32
f 55//7 50//7 49//7 56//7
f 7//59 48//59 47//59 8//59
f 53//60 15//60 14//60 51//60
f 22//61 54//61 57//61 23//61
f 60//62 32//62 31//62 58//62
f 66//63 62//63 61//63 64//63
f 70//64 67//64 69//64 71//64
f 62//65 69//65 68//65 63//65
f 65//66 72//66 71//66 66//66
f 56//67 70//67 72//67 57//67
f 64//68 24//68 23//68 65//68
f 6//69 61//69 63//69 7//69
f 67//70 49//70 48//70 68//70
f 1//71 10//71 38//71 35//71
