# Blender v2.79 (sub 0) OBJ File: 'AR16.blend'
# www.blender.org
mtllib sight_base.mtl
o Cube_Cube.005
v -0.056983 -0.000299 -0.054672
v 0.056983 0.000299 -0.054672
v -0.056944 -0.018763 -0.044012
v 0.057023 -0.018165 -0.044012
v -0.056944 -0.018763 -0.022691
v 0.057023 -0.018165 -0.022691
v -0.056983 -0.000299 -0.012031
v 0.056983 0.000299 -0.012031
v -0.057023 0.018165 -0.022691
v 0.056944 0.018763 -0.022691
v -0.057023 0.018165 -0.044012
v 0.056944 0.018763 -0.044012
v 0.045642 0.009641 -0.023884
v 0.045642 -0.016929 -0.023884
v 0.045642 0.009641 0.069756
v 0.045642 -0.016929 0.069756
v -0.045642 0.009641 -0.023884
v -0.045642 -0.016929 -0.023884
v -0.045642 0.009641 0.069756
v -0.045642 -0.016929 0.069756
v 0.045642 0.009641 -0.002668
v 0.045642 -0.016929 -0.002668
v -0.045642 0.009641 -0.002668
v -0.045642 -0.016929 -0.002668
vt 0.297766 0.755828
vt 0.450389 0.755828
vt 0.450389 0.908451
vt 0.297766 0.908451
vt 0.297766 0.755828
vt 0.450389 0.755828
vt 0.450389 0.908451
vt 0.297766 0.908451
vt 0.305149 0.725320
vt 0.476687 0.725320
vt 0.476687 0.896858
vt 0.305149 0.896858
vt 0.496223 0.794302
vt 0.630838 0.794302
vt 0.630838 0.928918
vt 0.496223 0.928918
vt 0.374078 0.908451
vt 0.440166 0.870295
vt 0.440166 0.793984
vt 0.374078 0.755828
vt 0.307990 0.793984
vt 0.307990 0.870295
vt 0.297766 0.755828
vt 0.450389 0.755828
vt 0.450389 0.908451
vt 0.297766 0.908451
vt 0.297766 0.755828
vt 0.450389 0.755828
vt 0.450389 0.908451
vt 0.297766 0.908451
vt 0.462489 0.913955
vt 0.551573 0.862522
vt 0.551573 0.759657
vt 0.462489 0.708224
vt 0.373405 0.759657
vt 0.373405 0.862522
vt 0.636781 0.097718
vt 0.878844 0.097718
vt 0.878844 0.339782
vt 0.636781 0.339782
vt 0.636781 0.097718
vt 0.878844 0.097718
vt 0.878844 0.339782
vt 0.636781 0.339782
vt 0.636781 0.097718
vt 0.878844 0.097718
vt 0.878844 0.339782
vt 0.636781 0.339782
vt 0.636781 0.097718
vt 0.878844 0.097718
vt 0.878844 0.339782
vt 0.636781 0.339782
vt 0.878844 0.339782
vt 0.636781 0.339782
vt 0.636781 0.097718
vt 0.878844 0.097718
vt 0.636781 0.097718
vt 0.878844 0.097718
vt 0.878844 0.339782
vt 0.878844 0.097718
vt 0.878844 0.339782
vt 0.636781 0.339782
vt 0.636781 0.097718
vt 0.878844 0.097718
vt 0.878844 0.339782
vt 0.636781 0.339782
vt 0.636781 0.097718
vt 0.636781 0.339782
vn 0.0026 -0.5000 -0.8660
vn 0.0052 -1.0000 0.0000
vn 0.0026 -0.5000 0.8660
vn -0.0026 0.5000 0.8660
vn 1.0000 0.0022 0.0000
vn -0.0052 1.0000 0.0000
vn -0.0026 0.5000 -0.8660
vn -1.0000 -0.0022 0.0000
vn 1.0000 0.0000 0.0000
vn 0.0000 0.0000 1.0000
vn -1.0000 0.0000 0.0000
vn 0.0000 0.0000 -1.0000
vn 0.0000 1.0000 0.0000
vn 0.0000 -1.0000 0.0000
usemtl None
s off
f 1/1/1 2/2/1 4/3/1 3/4/1
f 3/5/2 4/6/2 6/7/2 5/8/2
f 5/9/3 6/10/3 8/11/3 7/12/3
f 7/13/4 8/14/4 10/15/4 9/16/4
f 4/17/5 2/18/5 12/19/5 10/20/5 8/21/5 6/22/5
f 9/23/6 10/24/6 12/25/6 11/26/6
f 11/27/7 12/28/7 2/29/7 1/30/7
f 1/31/8 3/32/8 5/33/8 7/34/8 9/35/8 11/36/8
f 21/37/9 15/38/9 16/39/9 22/40/9
f 15/41/10 19/42/10 20/43/10 16/44/10
f 23/45/11 17/46/11 18/47/11 24/48/11
f 17/49/12 13/50/12 14/51/12 18/52/12
f 21/37/13 13/50/13 17/53/13 23/54/13
f 24/55/14 18/56/14 14/51/14 22/40/14
f 20/57/14 24/58/14 22/59/14 16/44/14
f 15/41/13 21/60/13 23/61/13 19/62/13
f 19/63/11 23/64/11 24/65/11 20/66/11
f 13/67/9 21/60/9 22/59/9 14/68/9
