# Blender v2.79 (sub 0) OBJ File: 'AR16.blend'
# www.blender.org
mtllib mag.mtl
o Cube.007_Cube.014
v -0.033473 -0.253741 0.051675
v -0.033473 -0.253741 0.192639
v -0.021242 -0.538187 0.168598
v -0.021242 -0.538187 0.192639
v -0.033473 -0.253741 0.080966
v -0.033473 -0.293190 0.051675
v -0.033473 -0.293190 0.080966
v -0.033473 -0.293190 0.192639
v -0.021242 -0.538187 0.080966
v -0.033473 -0.253741 0.168598
v -0.033473 -0.293190 0.168598
v -0.033473 -0.635242 0.051675
v -0.033473 -0.635242 0.192639
v -0.033473 -0.444492 0.080966
v -0.033473 -0.444492 0.051675
v -0.033473 -0.635242 0.080966
v -0.033473 -0.444492 0.192639
v -0.033473 -0.595794 0.051675
v -0.033473 -0.595794 0.080966
v -0.033473 -0.595794 0.192639
v -0.033473 -0.444492 0.168598
v -0.033473 -0.635242 0.168598
v -0.033473 -0.595794 0.168598
v -0.028609 -0.304154 0.086792
v -0.028609 -0.304154 0.162772
v -0.028609 -0.584830 0.086792
v -0.028609 -0.584830 0.162772
v -0.021242 -0.253741 0.080966
v -0.021242 -0.253741 0.192639
v -0.021242 -0.444492 0.051675
v -0.021242 -0.253741 0.051675
v -0.021242 -0.293190 0.051675
v -0.021242 -0.253741 0.168598
v -0.021242 -0.635242 0.080966
v -0.021242 -0.635242 0.192639
v -0.021242 -0.635242 0.051675
v -0.021242 -0.595794 0.051675
v -0.021242 -0.635242 0.168598
v -0.033473 -0.253741 0.066321
v -0.033473 -0.444492 0.066321
v -0.033473 -0.293190 0.066321
v -0.033473 -0.635242 0.066321
v -0.033473 -0.595794 0.066321
v -0.021242 -0.635242 0.066321
v -0.021242 -0.253741 0.066321
v -0.021242 -0.538187 0.066321
v 0.033473 -0.253741 0.051675
v 0.000000 -0.293190 0.051675
v 0.033473 -0.253741 0.192639
v 0.021242 -0.538187 0.168598
v 0.021242 -0.538187 0.192639
v 0.000000 -0.253741 0.051675
v 0.033473 -0.253741 0.080966
v 0.033473 -0.293190 0.051675
v 0.033473 -0.293190 0.080966
v 0.033473 -0.293190 0.192639
v 0.021242 -0.538187 0.080966
v 0.033473 -0.253741 0.168598
v 0.033473 -0.293190 0.168598
v 0.033473 -0.635242 0.051675
v 0.000000 -0.595794 0.051675
v 0.033473 -0.635242 0.192639
v 0.000000 -0.444492 0.051675
v 0.033473 -0.444492 0.080966
v 0.000000 -0.635242 0.192639
v 0.033473 -0.444492 0.051675
v 0.000000 -0.635242 0.080966
v 0.000000 -0.635242 0.051675
v 0.033473 -0.635242 0.080966
v 0.033473 -0.444492 0.192639
v 0.033473 -0.595794 0.051675
v 0.033473 -0.595794 0.080966
v 0.033473 -0.595794 0.192639
v 0.000000 -0.635242 0.168598
v 0.033473 -0.444492 0.168598
v 0.033473 -0.635242 0.168598
v 0.033473 -0.595794 0.168598
v 0.028609 -0.304154 0.086792
v 0.028609 -0.304154 0.162772
v 0.028609 -0.584830 0.086792
v 0.028609 -0.584830 0.162772
v 0.021242 -0.253741 0.080966
v 0.021242 -0.253741 0.192639
v 0.021242 -0.444492 0.051675
v 0.021242 -0.253741 0.051675
v 0.021242 -0.293190 0.051675
v 0.021242 -0.253741 0.168598
v 0.021242 -0.635242 0.080966
v 0.021242 -0.635242 0.192639
v 0.021242 -0.635242 0.051675
v 0.021242 -0.595794 0.051675
v 0.021242 -0.635242 0.168598
v 0.033473 -0.253741 0.066321
v 0.000000 -0.253741 0.066321
v 0.033473 -0.444492 0.066321
v 0.033473 -0.293190 0.066321
v 0.033473 -0.635242 0.066321
v 0.000000 -0.635242 0.066321
v 0.033473 -0.595794 0.066321
v 0.021242 -0.635242 0.066321
v 0.021242 -0.253741 0.066321
v 0.000000 -0.538187 0.066321
v 0.021242 -0.538187 0.066321
v -0.033473 -0.253741 0.328503
v -0.033473 -0.253741 0.187540
v -0.021242 -0.538187 0.211580
v -0.021242 -0.538187 0.187540
v -0.033473 -0.253741 0.299212
v -0.033473 -0.293190 0.328503
v -0.033473 -0.293190 0.299212
v -0.033473 -0.293190 0.187540
v -0.021242 -0.538187 0.299212
v -0.033473 -0.253741 0.211580
v -0.033473 -0.293190 0.211580
v -0.033473 -0.635242 0.328503
v -0.033473 -0.635242 0.187540
v -0.033473 -0.444492 0.299212
v -0.033473 -0.444492 0.328503
v -0.033473 -0.635242 0.299212
v -0.033473 -0.444492 0.187540
v -0.033473 -0.595794 0.328503
v -0.033473 -0.595794 0.299212
v -0.033473 -0.595794 0.187540
v -0.033473 -0.444492 0.211580
v -0.033473 -0.635242 0.211580
v -0.033473 -0.595794 0.211580
v -0.028609 -0.304154 0.293387
v -0.028609 -0.304154 0.217406
v -0.028609 -0.584830 0.293387
v -0.028609 -0.584830 0.217406
v -0.021242 -0.253741 0.299212
v -0.021242 -0.253741 0.187540
v -0.021242 -0.444492 0.328503
v -0.021242 -0.253741 0.328503
v -0.021242 -0.293190 0.328503
v -0.021242 -0.253741 0.211580
v -0.021242 -0.635242 0.299212
v -0.021242 -0.635242 0.187540
v -0.021242 -0.635242 0.328503
v -0.021242 -0.595794 0.328503
v -0.021242 -0.635242 0.211580
v -0.033473 -0.253741 0.313858
v -0.033473 -0.444492 0.313858
v -0.033473 -0.293190 0.313858
v -0.033473 -0.635242 0.313858
v -0.033473 -0.595794 0.313858
v -0.021242 -0.635242 0.313858
v -0.021242 -0.253741 0.313858
v -0.021242 -0.538187 0.313858
v 0.033473 -0.253741 0.328503
v 0.000000 -0.293190 0.328503
v 0.033473 -0.253741 0.187540
v 0.021242 -0.538187 0.211580
v 0.021242 -0.538187 0.187540
v 0.000000 -0.253741 0.328503
v 0.033473 -0.253741 0.299212
v 0.033473 -0.293190 0.328503
v 0.033473 -0.293190 0.299212
v 0.033473 -0.293190 0.187540
v 0.021242 -0.538187 0.299212
v 0.033473 -0.253741 0.211580
v 0.033473 -0.293190 0.211580
v 0.033473 -0.635242 0.328503
v 0.000000 -0.595794 0.328503
v 0.033473 -0.635242 0.187540
v 0.000000 -0.444492 0.328503
v 0.033473 -0.444492 0.299212
v 0.000000 -0.635242 0.187540
v 0.033473 -0.444492 0.328503
v 0.000000 -0.635242 0.299212
v 0.000000 -0.635242 0.328503
v 0.033473 -0.635242 0.299212
v 0.033473 -0.444492 0.187540
v 0.033473 -0.595794 0.328503
v 0.033473 -0.595794 0.299212
v 0.033473 -0.595794 0.187540
v 0.000000 -0.635242 0.211580
v 0.033473 -0.444492 0.211580
v 0.033473 -0.635242 0.211580
v 0.033473 -0.595794 0.211580
v 0.028609 -0.304154 0.293387
v 0.028609 -0.304154 0.217406
v 0.028609 -0.584830 0.293387
v 0.028609 -0.584830 0.217406
v 0.021242 -0.253741 0.299212
v 0.021242 -0.253741 0.187540
v 0.021242 -0.444492 0.328503
v 0.021242 -0.253741 0.328503
v 0.021242 -0.293190 0.328503
v 0.021242 -0.253741 0.211580
v 0.021242 -0.635242 0.299212
v 0.021242 -0.635242 0.187540
v 0.021242 -0.635242 0.328503
v 0.021242 -0.595794 0.328503
v 0.021242 -0.635242 0.211580
v 0.033473 -0.253741 0.313858
v 0.000000 -0.253741 0.313858
v 0.033473 -0.444492 0.313858
v 0.033473 -0.293190 0.313858
v 0.033473 -0.635242 0.313858
v 0.000000 -0.635242 0.313858
v 0.033473 -0.595794 0.313858
v 0.021242 -0.635242 0.313858
v 0.021242 -0.253741 0.313858
v 0.000000 -0.538187 0.313858
v 0.021242 -0.538187 0.313858
vn -1.0000 0.0000 0.0000
vn 0.0000 0.0000 -1.0000
vn 0.0000 1.0000 0.0000
vn 0.0000 -1.0000 0.0000
vn -0.7676 0.0000 -0.6409
vn -0.9141 -0.4055 0.0000
vn -0.7676 0.0000 0.6409
vn -0.9141 0.4055 0.0000
vn 1.0000 0.0000 0.0000
vn 0.0000 0.0000 1.0000
vn 0.7676 0.0000 -0.6409
vn 0.9141 -0.4055 0.0000
vn 0.7676 0.0000 0.6409
vn 0.9141 0.4055 0.0000
usemtl None
s off
f 41//1 39//1 1//1 6//1
f 11//1 10//1 5//1 7//1
f 32//2 31//2 52//2 48//2
f 33//3 10//3 2//3 29//3
f 45//3 39//3 5//3 28//3
f 30//2 32//2 48//2 63//2
f 27//1 25//1 24//1 26//1
f 40//1 41//1 6//1 15//1
f 17//1 8//1 11//1 21//1
f 28//3 5//3 10//3 33//3
f 8//1 2//1 10//1 11//1
f 43//1 18//1 12//1 42//1
f 23//1 19//1 16//1 22//1
f 37//2 61//2 68//2 36//2
f 38//4 35//4 13//4 22//4
f 44//4 34//4 16//4 42//4
f 30//2 63//2 61//2 37//2
f 23//5 11//5 25//5 27//5
f 40//1 15//1 18//1 43//1
f 17//1 21//1 23//1 20//1
f 34//4 38//4 22//4 16//4
f 20//1 23//1 22//1 13//1
f 11//6 7//6 24//6 25//6
f 7//7 19//7 26//7 24//7
f 19//8 23//8 27//8 26//8
f 67//4 74//4 38//4 34//4
f 15//2 30//2 37//2 18//2
f 98//4 67//4 34//4 44//4
f 74//4 65//4 35//4 38//4
f 18//2 37//2 36//2 12//2
f 45//9 28//9 9//9 46//9
f 15//2 6//2 32//2 30//2
f 28//9 33//9 3//9 9//9
f 33//9 29//9 4//9 3//9
f 6//2 1//2 31//2 32//2
f 52//3 31//3 45//3 94//3
f 68//4 98//4 44//4 36//4
f 14//1 40//1 43//1 19//1
f 36//4 44//4 42//4 12//4
f 19//1 43//1 42//1 16//1
f 14//1 7//1 41//1 40//1
f 31//3 1//3 39//3 45//3
f 7//1 5//1 39//1 41//1
f 94//10 45//10 46//10 102//10
f 96//9 54//9 47//9 93//9
f 59//9 55//9 53//9 58//9
f 86//2 48//2 52//2 85//2
f 87//3 83//3 49//3 58//3
f 101//3 82//3 53//3 93//3
f 84//2 63//2 48//2 86//2
f 81//9 80//9 78//9 79//9
f 95//9 66//9 54//9 96//9
f 70//9 75//9 59//9 56//9
f 82//3 87//3 58//3 53//3
f 56//9 59//9 58//9 49//9
f 99//9 97//9 60//9 71//9
f 77//9 76//9 69//9 72//9
f 91//2 90//2 68//2 61//2
f 92//4 76//4 62//4 89//4
f 100//4 97//4 69//4 88//4
f 84//2 91//2 61//2 63//2
f 77//11 81//11 79//11 59//11
f 95//9 99//9 71//9 66//9
f 70//9 73//9 77//9 75//9
f 88//4 69//4 76//4 92//4
f 73//9 62//9 76//9 77//9
f 59//12 79//12 78//12 55//12
f 55//13 78//13 80//13 72//13
f 72//14 80//14 81//14 77//14
f 67//4 88//4 92//4 74//4
f 66//2 71//2 91//2 84//2
f 98//4 100//4 88//4 67//4
f 74//4 92//4 89//4 65//4
f 71//2 60//2 90//2 91//2
f 101//1 103//1 57//1 82//1
f 66//2 84//2 86//2 54//2
f 82//1 57//1 50//1 87//1
f 87//1 50//1 51//1 83//1
f 54//2 86//2 85//2 47//2
f 52//3 94//3 101//3 85//3
f 68//4 90//4 100//4 98//4
f 64//9 72//9 99//9 95//9
f 90//4 60//4 97//4 100//4
f 72//9 69//9 97//9 99//9
f 64//9 95//9 96//9 55//9
f 85//3 101//3 93//3 47//3
f 55//9 96//9 93//9 53//9
f 94//10 102//10 103//10 101//10
f 144//1 109//1 104//1 142//1
f 114//1 110//1 108//1 113//1
f 135//10 151//10 155//10 134//10
f 136//3 132//3 105//3 113//3
f 148//3 131//3 108//3 142//3
f 133//10 166//10 151//10 135//10
f 130//1 129//1 127//1 128//1
f 143//1 118//1 109//1 144//1
f 120//1 124//1 114//1 111//1
f 131//3 136//3 113//3 108//3
f 111//1 114//1 113//1 105//1
f 146//1 145//1 115//1 121//1
f 126//1 125//1 119//1 122//1
f 140//10 139//10 171//10 164//10
f 141//4 125//4 116//4 138//4
f 147//4 145//4 119//4 137//4
f 133//10 140//10 164//10 166//10
f 126//7 130//7 128//7 114//7
f 143//1 146//1 121//1 118//1
f 120//1 123//1 126//1 124//1
f 137//4 119//4 125//4 141//4
f 123//1 116//1 125//1 126//1
f 114//6 128//6 127//6 110//6
f 110//5 127//5 129//5 122//5
f 122//8 129//8 130//8 126//8
f 170//4 137//4 141//4 177//4
f 118//10 121//10 140//10 133//10
f 201//4 147//4 137//4 170//4
f 177//4 141//4 138//4 168//4
f 121//10 115//10 139//10 140//10
f 148//9 149//9 112//9 131//9
f 118//10 133//10 135//10 109//10
f 131//9 112//9 106//9 136//9
f 136//9 106//9 107//9 132//9
f 109//10 135//10 134//10 104//10
f 155//3 197//3 148//3 134//3
f 171//4 139//4 147//4 201//4
f 117//1 122//1 146//1 143//1
f 139//4 115//4 145//4 147//4
f 122//1 119//1 145//1 146//1
f 117//1 143//1 144//1 110//1
f 134//3 148//3 142//3 104//3
f 110//1 144//1 142//1 108//1
f 197//2 205//2 149//2 148//2
f 199//9 196//9 150//9 157//9
f 162//9 161//9 156//9 158//9
f 189//10 188//10 155//10 151//10
f 190//3 161//3 152//3 186//3
f 204//3 196//3 156//3 185//3
f 187//10 189//10 151//10 166//10
f 184//9 182//9 181//9 183//9
f 198//9 199//9 157//9 169//9
f 173//9 159//9 162//9 178//9
f 185//3 156//3 161//3 190//3
f 159//9 152//9 161//9 162//9
f 202//9 174//9 163//9 200//9
f 180//9 175//9 172//9 179//9
f 194//10 164//10 171//10 193//10
f 195//4 192//4 165//4 179//4
f 203//4 191//4 172//4 200//4
f 187//10 166//10 164//10 194//10
f 180//13 162//13 182//13 184//13
f 198//9 169//9 174//9 202//9
f 173//9 178//9 180//9 176//9
f 191//4 195//4 179//4 172//4
f 176//9 180//9 179//9 165//9
f 162//12 158//12 181//12 182//12
f 158//11 175//11 183//11 181//11
f 175//14 180//14 184//14 183//14
f 170//4 177//4 195//4 191//4
f 169//10 187//10 194//10 174//10
f 201//4 170//4 191//4 203//4
f 177//4 168//4 192//4 195//4
f 174//10 194//10 193//10 163//10
f 204//1 185//1 160//1 206//1
f 169//10 157//10 189//10 187//10
f 185//1 190//1 153//1 160//1
f 190//1 186//1 154//1 153//1
f 157//10 150//10 188//10 189//10
f 155//3 188//3 204//3 197//3
f 171//4 201//4 203//4 193//4
f 167//9 198//9 202//9 175//9
f 193//4 203//4 200//4 163//4
f 175//9 202//9 200//9 172//9
f 167//9 158//9 199//9 198//9
f 188//3 150//3 196//3 204//3
f 158//9 156//9 196//9 199//9
f 197//2 204//2 206//2 205//2
