# Blender v2.79 (sub 0) OBJ File: 'AR16.blend'
# www.blender.org
mtllib lower.mtl
o Cylinder.011_Cylinder.026
v 0.047218 0.097947 -0.356947
v 0.093151 0.031170 -0.356947
v 0.093151 -0.063266 -0.304332
v 0.038584 -0.130043 -0.235587
v 0.047218 0.097947 -0.452087
v 0.093151 0.031170 -0.452087
v 0.093151 -0.063266 -0.452087
v 0.038584 -0.130043 -0.452087
v 0.038584 -0.130043 0.349095
v 0.038584 -0.257379 -0.235587
v 0.038584 -0.163318 -0.452087
v 0.038584 -0.257379 0.349095
v 0.038584 -0.257379 -0.373081
v 0.038584 -0.130043 -0.343837
v 0.038584 -0.130043 0.032276
v 0.038584 -0.390351 -0.149279
v 0.038584 -0.130043 -0.149279
v 0.052851 -0.130043 0.349095
v 0.052851 -0.257379 0.349095
v 0.052851 -0.130043 0.032276
v 0.052851 -0.257379 0.032276
v 0.038584 -0.390351 0.349095
v 0.038584 -0.390351 0.032276
v 0.052851 -0.390351 0.349095
v 0.052851 -0.390351 0.032276
v 0.038584 -0.370614 0.032276
v 0.038584 -0.370614 -0.149279
v 0.038584 -0.257379 0.032276
v 0.038584 -0.257379 -0.149279
v 0.038584 -0.257379 -0.135645
v 0.038584 -0.370614 -0.135645
v 0.038584 -0.390351 0.337016
v 0.038584 -0.390351 0.044354
v 0.052851 -0.390351 0.337016
v 0.052851 -0.390351 0.044354
v 0.052851 -0.390351 0.337016
v 0.052851 -0.390351 0.044354
v 0.045709 -0.390351 0.337016
v 0.045709 -0.390351 0.044354
v 0.038584 -0.193587 0.337016
v 0.038584 -0.193587 0.044354
v 0.052851 -0.193587 0.337016
v 0.052851 -0.193587 0.044354
v 0.045709 -0.193587 0.337016
v 0.045709 -0.193587 0.044354
v -0.047218 0.097947 -0.356947
v -0.093151 0.031170 -0.356947
v -0.093151 -0.063266 -0.304332
v -0.038584 -0.130043 -0.235587
v 0.000000 -0.130043 -0.235587
v -0.047218 0.097947 -0.452087
v -0.093151 0.031170 -0.452087
v -0.093151 -0.063266 -0.452087
v -0.038584 -0.130043 -0.452087
v 0.000000 -0.130043 -0.452087
v -0.038584 -0.130043 0.349095
v 0.000000 -0.130043 0.349095
v -0.038584 -0.257379 -0.235587
v 0.000000 -0.257379 -0.235587
v -0.038584 -0.163318 -0.452087
v 0.000000 -0.163318 -0.452087
v -0.038584 -0.257379 0.349095
v 0.000000 -0.257379 0.349095
v -0.038584 -0.257379 -0.373081
v 0.000000 -0.257379 -0.373081
v -0.038584 -0.130043 -0.343837
v 0.000000 -0.130043 -0.343837
v -0.038584 -0.130043 0.032276
v 0.000000 -0.130043 0.032276
v 0.000000 -0.257379 0.032276
v 0.000000 -0.390351 0.349095
v -0.038584 -0.390351 -0.149279
v 0.000000 -0.390351 -0.149279
v 0.000000 -0.130043 -0.149279
v 0.000000 -0.257379 -0.149279
v -0.038584 -0.130043 -0.149279
v -0.052851 -0.130043 0.349095
v -0.052851 -0.257379 0.349095
v -0.052851 -0.130043 0.032276
v -0.052851 -0.257379 0.032276
v 0.000000 0.097946 -0.452087
v 0.000000 0.097947 -0.356947
v -0.038584 -0.390351 0.349095
v -0.038584 -0.390351 0.032276
v 0.000000 -0.390351 0.032276
v -0.052851 -0.390351 0.349095
v -0.052851 -0.390351 0.032276
v -0.038584 -0.370614 0.032276
v 0.000000 -0.370614 0.032276
v -0.038584 -0.370614 -0.149279
v 0.000000 -0.370614 -0.149279
v -0.038584 -0.257379 0.032276
v -0.038584 -0.257379 -0.149279
v -0.038584 -0.257379 -0.135645
v 0.000000 -0.257379 -0.135645
v -0.038584 -0.370614 -0.135645
v 0.000000 -0.370614 -0.135645
v 0.000000 -0.390351 0.337016
v -0.038584 -0.390351 0.337016
v -0.038584 -0.390351 0.044354
v 0.000000 -0.390351 0.044354
v -0.052851 -0.390351 0.337016
v -0.052851 -0.390351 0.044354
v -0.052851 -0.390351 0.337016
v -0.052851 -0.390351 0.044354
v -0.045709 -0.390351 0.337016
v -0.045709 -0.390351 0.044354
v 0.000000 -0.193587 0.337016
v -0.038584 -0.193587 0.337016
v -0.038584 -0.193587 0.044354
v 0.000000 -0.193587 0.044354
v -0.052851 -0.193587 0.337016
v -0.052851 -0.193587 0.044354
v -0.045709 -0.193587 0.337016
v -0.045709 -0.193587 0.044354
vn 0.7743 -0.6328 0.0000
vn 1.0000 -0.0000 0.0000
vn 0.8239 0.5667 0.0000
vn -0.0000 1.0000 0.0000
vn 0.0000 0.0000 1.0000
vn 0.0000 -0.6432 -0.7657
vn 0.0000 0.0000 -1.0000
vn 0.0000 -1.0000 0.0000
vn -1.0000 0.0000 0.0000
vn -0.7743 -0.6328 0.0000
vn -0.8239 0.5667 0.0000
usemtl None
s off
f 3//1 4//1 14//1 8//1 7//1
f 2//2 3//2 7//2 6//2
f 1//3 2//3 6//3 5//3
f 67//4 14//4 8//4 55//4
f 9//5 57//5 63//5 12//5
f 13//6 65//6 61//6 11//6
f 23//7 26//7 28//7 21//7 25//7
f 50//4 4//4 14//4 67//4
f 8//2 14//2 4//2 10//2 13//2 11//2
f 10//8 59//8 65//8 13//8
f 61//7 55//7 8//7 11//7
f 74//4 17//4 4//4 50//4
f 57//4 9//4 15//4 69//4
f 17//2 15//2 28//2 29//2
f 75//8 29//8 28//8 70//8
f 28//7 15//7 20//7 21//7
f 12//5 63//5 71//5 22//5
f 59//8 10//8 29//8 75//8
f 4//2 17//2 29//2 10//2
f 69//4 15//4 17//4 74//4
f 20//2 18//2 19//2 21//2
f 21//2 19//2 24//2 36//2 37//2 25//2
f 15//4 9//4 18//4 20//4
f 9//5 12//5 19//5 18//5
f 12//5 22//5 24//5 19//5
f 1//4 5//4 81//4 82//4
f 81//7 5//7 6//7 7//7 8//7 55//7
f 89//4 26//4 27//4 91//4
f 16//7 73//7 91//7 27//7
f 23//2 16//2 27//2 26//2
f 85//5 23//5 26//5 89//5
f 70//7 28//7 26//7 89//7
f 97//5 31//5 30//5 95//5
f 75//4 95//4 30//4 29//4
f 27//8 31//8 97//8 91//8
f 29//2 30//2 31//2 27//2
f 27//7 91//7 75//7 29//7
f 23//8 25//8 35//8 33//8
f 23//8 33//8 101//8 85//8
f 22//8 71//8 98//8 32//8
f 24//8 22//8 32//8 34//8
f 37//8 36//8 38//8 39//8
f 34//7 32//7 40//7 42//7
f 33//5 41//5 111//5 101//5
f 32//7 98//7 108//7 40//7
f 39//9 38//9 44//9 45//9
f 33//5 35//5 43//5 41//5
f 16//8 23//8 85//8 73//8
f 48//10 53//10 54//10 66//10 49//10
f 47//9 52//9 53//9 48//9
f 46//11 51//11 52//11 47//11
f 67//4 55//4 54//4 66//4
f 56//5 62//5 63//5 57//5
f 64//6 60//6 61//6 65//6
f 84//7 87//7 80//7 92//7 88//7
f 50//4 67//4 66//4 49//4
f 54//9 60//9 64//9 58//9 49//9 66//9
f 58//8 64//8 65//8 59//8
f 61//7 60//7 54//7 55//7
f 74//4 50//4 49//4 76//4
f 57//4 69//4 68//4 56//4
f 76//9 93//9 92//9 68//9
f 75//8 70//8 92//8 93//8
f 92//7 80//7 79//7 68//7
f 62//5 83//5 71//5 63//5
f 73//2 91//2 89//2 85//2
f 59//8 75//8 93//8 58//8
f 49//9 58//9 93//9 76//9
f 69//4 74//4 76//4 68//4
f 79//9 80//9 78//9 77//9
f 80//9 87//9 105//9 104//9 86//9 78//9
f 68//4 79//4 77//4 56//4
f 56//5 77//5 78//5 62//5
f 62//5 78//5 86//5 83//5
f 46//4 82//4 81//4 51//4
f 81//7 55//7 54//7 53//7 52//7 51//7
f 89//4 91//4 90//4 88//4
f 72//7 90//7 91//7 73//7
f 84//9 88//9 90//9 72//9
f 85//5 89//5 88//5 84//5
f 70//7 89//7 88//7 92//7
f 91//2 75//2 95//2 97//2
f 97//5 95//5 94//5 96//5
f 75//4 93//4 94//4 95//4
f 90//8 91//8 97//8 96//8
f 93//9 90//9 96//9 94//9
f 90//7 93//7 75//7 91//7
f 84//8 100//8 103//8 87//8
f 84//8 85//8 101//8 100//8
f 83//8 99//8 98//8 71//8
f 86//8 102//8 99//8 83//8
f 105//8 107//8 106//8 104//8
f 102//7 112//7 109//7 99//7
f 100//5 101//5 111//5 110//5
f 99//7 109//7 108//7 98//7
f 107//2 115//2 114//2 106//2
f 100//5 110//5 113//5 103//5
f 72//8 73//8 85//8 84//8
