# Blender v2.79 (sub 0) OBJ File: 'AR16.blend'
# www.blender.org
mtllib casing.mtl
o Cylinder.013_Cylinder.029
v -0.021124 0.000000 -0.090161
v -0.010562 -0.018294 -0.090161
v 0.010562 -0.018294 -0.090161
v 0.021124 0.000000 -0.090161
v 0.010562 0.018294 -0.090161
v -0.010562 0.018294 -0.090161
v -0.021124 0.000000 -0.080126
v -0.010562 -0.018294 -0.080126
v 0.010562 -0.018294 -0.080126
v 0.021124 0.000000 -0.080126
v 0.010562 0.018294 -0.080126
v -0.010562 0.018294 -0.080126
v -0.008568 -0.014840 -0.077786
v 0.008568 -0.014840 -0.077786
v 0.017135 0.000000 -0.077786
v 0.008568 0.014840 -0.077786
v -0.008568 0.014840 -0.077786
v -0.017135 0.000000 -0.077786
v -0.010562 -0.018294 -0.067638
v 0.010562 -0.018294 -0.067638
v 0.021124 0.000000 -0.067638
v 0.010562 0.018294 -0.067638
v -0.010562 0.018294 -0.067638
v -0.021124 0.000000 -0.067638
v -0.016286 0.000000 -0.072093
v -0.008143 -0.014104 -0.072093
v 0.008143 -0.014104 -0.072093
v 0.016286 0.000000 -0.072093
v 0.008143 0.014104 -0.072093
v -0.008143 0.014104 -0.072093
v -0.010562 -0.018294 0.078106
v 0.010562 -0.018294 0.078106
v 0.021124 0.000000 0.078106
v 0.010562 0.018294 0.078106
v -0.010562 0.018294 0.078106
v -0.021124 0.000000 0.078106
v -0.021124 0.000000 -0.090161
v -0.010562 -0.018294 -0.090161
v 0.010562 -0.018294 -0.090161
v 0.021124 0.000000 -0.090161
v 0.010562 0.018294 -0.090161
v -0.010562 0.018294 -0.090161
v -0.021124 0.000000 -0.080126
v -0.010562 -0.018294 -0.080126
v 0.010562 -0.018294 -0.080126
v 0.021124 0.000000 -0.080126
v 0.010562 0.018294 -0.080126
v -0.010562 0.018294 -0.080126
v -0.008568 -0.014840 -0.077786
v 0.008568 -0.014840 -0.077786
v 0.017135 0.000000 -0.077786
v 0.008568 0.014840 -0.077786
v -0.008568 0.014840 -0.077786
v -0.017135 0.000000 -0.077786
v -0.010562 -0.018294 -0.067638
v 0.010562 -0.018294 -0.067638
v 0.021124 0.000000 -0.067638
v 0.010562 0.018294 -0.067638
v -0.010562 0.018294 -0.067638
v -0.021124 0.000000 -0.067638
v -0.016286 0.000000 -0.072093
v -0.008143 -0.014104 -0.072093
v 0.008143 -0.014104 -0.072093
v 0.016286 0.000000 -0.072093
v 0.008143 0.014104 -0.072093
v -0.008143 0.014104 -0.072093
v -0.010562 -0.018294 0.078106
v 0.010562 -0.018294 0.078106
v 0.021124 0.000000 0.078106
v 0.010562 0.018294 0.078106
v -0.010562 0.018294 0.078106
v -0.021124 0.000000 0.078106
vt 0.491889 0.839879
vt 0.500993 0.828000
vt 0.519173 0.828088
vt 0.524830 0.842208
vt 0.528846 0.812683
vt 0.543716 0.815053
vt 0.520810 0.797269
vt 0.529858 0.785637
vt 0.502675 0.798063
vt 0.496816 0.783760
vt 0.492280 0.812960
vt 0.477646 0.810533
vt 0.467022 0.809605
vt 0.485872 0.848710
vt 0.492209 0.774089
vt 0.535866 0.776806
vt 0.554347 0.815978
vt 0.529436 0.851880
vt 0.474856 0.865081
vt 0.538086 0.869672
vt 0.574032 0.817458
vt 0.546840 0.760472
vt 0.483540 0.756260
vt 0.447391 0.808125
vt 0.653386 0.895596
vt 0.419002 0.805962
vt 0.458889 0.888680
vt 0.653791 0.730420
vt 0.510754 0.978248
vt 0.471120 0.730610
vt 0.367869 0.895128
vt 0.562780 0.736878
vt 0.367869 0.729962
vt 0.602441 0.819618
vt 0.510877 0.647456
vt 0.550509 0.895327
vt 0.507763 0.248573
vt 0.540704 0.250901
vt 0.535047 0.236781
vt 0.516867 0.236693
vt 0.559590 0.223746
vt 0.544720 0.221377
vt 0.545732 0.194330
vt 0.536684 0.205962
vt 0.512690 0.192453
vt 0.518549 0.206757
vt 0.508154 0.221653
vt 0.493520 0.219226
vt 0.482896 0.218298
vt 0.501746 0.257404
vt 0.508083 0.182783
vt 0.551740 0.185499
vt 0.570221 0.224671
vt 0.545310 0.260573
vt 0.490730 0.273774
vt 0.553960 0.278365
vt 0.589906 0.226151
vt 0.562714 0.169165
vt 0.499414 0.164953
vt 0.463265 0.216819
vt 0.669260 0.304289
vt 0.669665 0.139114
vt 0.474763 0.297373
vt 0.434876 0.214655
vt 0.526628 0.386941
vt 0.486994 0.139304
vt 0.383743 0.303822
vt 0.578654 0.145571
vt 0.383743 0.138655
vt 0.618315 0.228311
vt 0.526751 0.056149
vt 0.566383 0.304021
vn -0.8660 -0.5000 0.0000
vn 0.0000 -1.0000 0.0000
vn 0.8660 -0.5000 0.0000
vn 0.8660 0.5000 -0.0000
vn 0.0000 0.0000 -1.0000
vn 0.0000 1.0000 -0.0000
vn -0.8660 0.5000 -0.0000
vn -0.4857 0.2804 0.8279
vn 0.0000 0.5608 0.8279
vn 0.4857 0.2804 0.8279
vn 0.4857 -0.2804 0.8279
vn 0.0000 -0.5608 0.8279
vn -0.4857 -0.2804 0.8279
vn -0.8589 -0.4959 0.1282
vn 0.0000 -0.9918 0.1282
vn 0.8589 -0.4959 0.1282
vn 0.8589 0.4959 0.1282
vn 0.0000 0.9918 0.1282
vn -0.8589 0.4959 0.1282
vn -0.6308 0.3642 -0.6851
vn 0.0000 0.7284 -0.6851
vn 0.6308 0.3642 -0.6851
vn 0.6308 -0.3642 -0.6851
vn 0.0000 -0.7284 -0.6851
vn -0.6308 -0.3642 -0.6851
vn 0.0000 0.0000 1.0000
vn 0.4857 -0.2804 -0.8279
vn 0.0000 -0.5608 -0.8279
vn -0.4857 -0.2804 -0.8279
vn -0.4857 0.2804 -0.8279
vn 0.0000 0.5608 -0.8279
vn 0.4857 0.2804 -0.8279
vn 0.8589 0.4959 -0.1282
vn 0.0000 0.9918 -0.1282
vn -0.8589 0.4959 -0.1282
vn -0.8589 -0.4959 -0.1282
vn 0.0000 -0.9918 -0.1282
vn 0.8589 -0.4959 -0.1282
vn 0.6308 -0.3642 0.6851
vn 0.0000 -0.7284 0.6851
vn -0.6308 -0.3642 0.6851
vn -0.6308 0.3642 0.6851
vn 0.0000 0.7284 0.6851
vn 0.6308 0.3642 0.6851
usemtl None
s off
f 7/1/1 1/2/1 2/3/1 8/4/1
f 8/4/2 2/3/2 3/5/2 9/6/2
f 9/6/3 3/5/3 4/7/3 10/8/3
f 10/8/4 4/7/4 5/9/4 11/10/4
f 2/3/5 1/2/5 6/11/5 5/9/5 4/7/5 3/5/5
f 11/10/6 5/9/6 6/11/6 12/12/6
f 12/12/7 6/11/7 1/2/7 7/1/7
f 17/13/8 12/12/8 7/1/8 18/14/8
f 16/15/9 11/10/9 12/12/9 17/13/9
f 15/16/10 10/8/10 11/10/10 16/15/10
f 14/17/11 9/6/11 10/8/11 15/16/11
f 13/18/12 8/4/12 9/6/12 14/17/12
f 18/14/13 7/1/13 8/4/13 13/18/13
f 25/19/14 18/14/14 13/18/14 26/20/14
f 26/20/15 13/18/15 14/17/15 27/21/15
f 27/21/16 14/17/16 15/16/16 28/22/16
f 28/22/17 15/16/17 16/15/17 29/23/17
f 29/23/18 16/15/18 17/13/18 30/24/18
f 30/24/19 17/13/19 18/14/19 25/19/19
f 35/25/7 23/26/7 24/27/7 36/28/7
f 34/29/6 22/30/6 23/26/6 35/25/6
f 33/31/4 21/32/4 22/30/4 34/29/4
f 32/33/3 20/34/3 21/32/3 33/31/3
f 31/35/2 19/36/2 20/34/2 32/33/2
f 36/28/1 24/27/1 19/36/1 31/35/1
f 23/26/20 30/24/20 25/19/20 24/27/20
f 22/30/21 29/23/21 30/24/21 23/26/21
f 21/32/22 28/22/22 29/23/22 22/30/22
f 20/34/23 27/21/23 28/22/23 21/32/23
f 19/36/24 26/20/24 27/21/24 20/34/24
f 24/27/25 25/19/25 26/20/25 19/36/25
f 43/37/4 44/38/4 38/39/4 37/40/4
f 44/38/6 45/41/6 39/42/6 38/39/6
f 45/41/7 46/43/7 40/44/7 39/42/7
f 46/43/1 47/45/1 41/46/1 40/44/1
f 38/39/26 39/42/26 40/44/26 41/46/26 42/47/26 37/40/26
f 47/45/2 48/48/2 42/47/2 41/46/2
f 48/48/3 43/37/3 37/40/3 42/47/3
f 53/49/27 54/50/27 43/37/27 48/48/27
f 52/51/28 53/49/28 48/48/28 47/45/28
f 51/52/29 52/51/29 47/45/29 46/43/29
f 50/53/30 51/52/30 46/43/30 45/41/30
f 49/54/31 50/53/31 45/41/31 44/38/31
f 54/50/32 49/54/32 44/38/32 43/37/32
f 61/55/33 62/56/33 49/54/33 54/50/33
f 62/56/34 63/57/34 50/53/34 49/54/34
f 63/57/35 64/58/35 51/52/35 50/53/35
f 64/58/36 65/59/36 52/51/36 51/52/36
f 65/59/37 66/60/37 53/49/37 52/51/37
f 66/60/38 61/55/38 54/50/38 53/49/38
f 71/61/3 72/62/3 60/63/3 59/64/3
f 70/65/2 71/61/2 59/64/2 58/66/2
f 69/67/1 70/65/1 58/66/1 57/68/1
f 68/69/7 69/67/7 57/68/7 56/70/7
f 67/71/6 68/69/6 56/70/6 55/72/6
f 72/62/4 67/71/4 55/72/4 60/63/4
f 59/64/39 60/63/39 61/55/39 66/60/39
f 58/66/40 59/64/40 66/60/40 65/59/40
f 57/68/41 58/66/41 65/59/41 64/58/41
f 56/70/42 57/68/42 64/58/42 63/57/42
f 55/72/43 56/70/43 63/57/43 62/56/43
f 60/63/44 55/72/44 62/56/44 61/55/44
