# Blender v2.79 (sub 0) OBJ File: 'AR16.blend'
# www.blender.org
mtllib charging_handle.mtl
o Cube.002_Cube.003
v -0.022592 0.128773 -0.042204
v -0.022592 0.108772 -0.042204
v -0.022592 0.128773 -0.353581
v -0.022592 0.108772 -0.353581
v -0.013841 0.108772 -0.381324
v -0.013638 0.144920 -0.381346
v -0.040379 0.108772 -0.368253
v -0.040379 0.128773 -0.368253
v -0.098015 0.108772 -0.381324
v -0.098015 0.133210 -0.381324
v -0.013841 0.108772 -0.408392
v -0.013841 0.144771 -0.408392
v -0.098015 0.108772 -0.408392
v -0.098015 0.133210 -0.408392
v -0.013841 0.108772 -0.451788
v -0.013841 0.144771 -0.451788
v -0.048050 0.108772 -0.442956
v -0.048050 0.133210 -0.442956
v -0.013841 0.128773 -0.381324
v 0.022592 0.128773 -0.042204
v 0.022592 0.108772 -0.042204
v 0.022592 0.128773 -0.353581
v 0.022592 0.108772 -0.353581
v 0.013841 0.108772 -0.381324
v 0.013638 0.144920 -0.381346
v 0.040379 0.108772 -0.368253
v 0.040379 0.128773 -0.368253
v 0.098015 0.108772 -0.381324
v 0.098015 0.133210 -0.381324
v 0.013841 0.108772 -0.408392
v 0.013841 0.144771 -0.408392
v 0.098015 0.108772 -0.408392
v 0.098015 0.133210 -0.408392
v 0.000000 0.128773 -0.353581
v 0.000000 0.108772 -0.353581
v 0.000000 0.128773 -0.042204
v 0.000000 0.108772 -0.042204
v 0.000000 0.144771 -0.381324
v 0.000000 0.108772 -0.381324
v 0.000000 0.144771 -0.408392
v 0.000000 0.108772 -0.408392
v 0.013841 0.108772 -0.451788
v 0.013841 0.144771 -0.451788
v 0.048050 0.108772 -0.442956
v 0.048050 0.133210 -0.442956
v 0.000000 0.144771 -0.451788
v 0.000000 0.108772 -0.451788
v 0.013841 0.128773 -0.381324
v 0.000000 0.128773 -0.381324
vn -1.0000 0.0000 0.0000
vn -0.1368 0.9906 -0.0022
vn 0.0000 0.0000 1.0000
vn 0.0000 -1.0000 0.0000
vn -0.6363 0.0000 0.7714
vn 0.0000 1.0000 -0.0000
vn -0.2212 0.0000 0.9752
vn 0.0054 1.0000 -0.0028
vn -0.0008 0.0007 1.0000
vn -0.2500 0.0000 -0.9682
vn 0.0000 0.0000 -1.0000
vn -0.5689 0.0000 -0.8224
vn -0.1993 0.9716 -0.1277
vn 0.0523 0.9930 0.1062
vn 0.0001 0.0013 1.0000
vn 1.0000 0.0000 0.0000
vn 0.1368 0.9906 -0.0022
vn 0.6363 0.0000 0.7714
vn 0.2212 0.0000 0.9752
vn -0.0054 1.0000 -0.0028
vn 0.0008 0.0007 1.0000
vn 0.2500 0.0000 -0.9682
vn 0.5689 0.0000 -0.8224
vn 0.1993 0.9716 -0.1277
vn -0.0523 0.9930 0.1062
vn -0.0001 0.0013 1.0000
usemtl None
s off
f 1//1 3//1 4//1 2//1
f 6//2 12//2 14//2 10//2
f 36//3 1//3 2//3 37//3
f 35//4 37//4 2//4 4//4
f 3//5 8//5 7//5 4//5
f 3//6 19//6 8//6
f 8//7 10//7 9//7 7//7
f 3//6 34//6 49//6 19//6
f 9//4 5//4 7//4
f 38//8 40//8 12//8 6//8
f 10//1 14//1 13//1 9//1
f 9//4 13//4 11//4 5//4
f 13//4 17//4 15//4 11//4
f 5//4 11//4 41//4 39//4
f 4//4 5//4 39//4 35//4
f 3//6 1//6 36//6 34//6
f 6//9 19//9 49//9 38//9
f 5//4 4//4 7//4
f 15//10 17//10 18//10 16//10
f 16//11 46//11 47//11 15//11
f 14//12 18//12 17//12 13//12
f 11//4 15//4 47//4 41//4
f 12//13 16//13 18//13 14//13
f 40//6 46//6 16//6 12//6
f 8//14 19//14 10//14
f 19//15 6//15 10//15
f 20//16 21//16 23//16 22//16
f 25//17 29//17 33//17 31//17
f 36//3 37//3 21//3 20//3
f 35//4 23//4 21//4 37//4
f 22//18 23//18 26//18 27//18
f 22//6 27//6 48//6
f 27//19 26//19 28//19 29//19
f 22//6 48//6 49//6 34//6
f 28//4 26//4 24//4
f 41//1 40//1 46//1 47//1
f 38//20 25//20 31//20 40//20
f 29//16 28//16 32//16 33//16
f 28//4 24//4 30//4 32//4
f 32//4 30//4 42//4 44//4
f 24//4 39//4 41//4 30//4
f 23//4 35//4 39//4 24//4
f 22//6 34//6 36//6 20//6
f 25//21 38//21 49//21 48//21
f 24//4 26//4 23//4
f 42//22 43//22 45//22 44//22
f 43//11 42//11 47//11 46//11
f 33//23 32//23 44//23 45//23
f 30//4 41//4 47//4 42//4
f 31//24 33//24 45//24 43//24
f 40//6 31//6 43//6 46//6
f 27//25 29//25 48//25
f 48//26 29//26 25//26
