# Blender v2.79 (sub 0) OBJ File: 'LKM45.blend'
# www.blender.org
mtllib LKM45_trigger.mtl
o Cube.005_Cube.000
v -0.018051 -0.133485 0.013881
v -0.018051 -0.016337 0.018639
v -0.018051 -0.133485 -0.001334
v -0.018051 -0.016337 -0.045641
v 0.018051 -0.133485 0.013881
v 0.018052 -0.016337 0.018639
v 0.018051 -0.133485 -0.001334
v 0.018052 -0.016337 -0.045641
v -0.018051 -0.074911 -0.007758
v -0.018051 -0.074911 -0.037197
v 0.018051 -0.074911 -0.037197
v 0.018051 -0.074911 -0.007758
v -0.018051 -0.045624 -0.000688
v -0.018051 -0.045624 -0.041470
v 0.018051 -0.045624 -0.041470
v 0.018051 -0.045624 -0.000688
v -0.018051 -0.104198 -0.030126
v 0.018051 -0.104198 -0.030126
v 0.018051 -0.104198 -0.000688
v -0.018051 -0.104198 -0.000688
v -0.018051 0.008484 0.044285
v -0.018051 0.008484 -0.052262
v 0.018052 0.008484 0.044285
v 0.018052 0.008484 -0.052262
v -0.018051 0.034615 0.044250
v -0.018051 0.034615 -0.060652
v 0.018052 0.034615 0.044250
v 0.018052 0.034615 -0.060652
vn -1.0000 -0.0000 0.0000
vn 0.0000 -0.1410 -0.9900
vn 1.0000 -0.0000 0.0000
vn 0.0000 -0.5508 0.8346
vn 0.0000 -1.0000 0.0000
vn 0.0000 0.2347 0.9721
vn 0.0000 -0.2347 -0.9721
vn 0.0000 -0.2347 0.9721
vn 0.0000 -0.1444 -0.9895
vn 0.0000 -0.7011 -0.7131
vn 0.0000 0.4454 0.8953
vn 0.0000 -0.7186 0.6955
vn 0.0000 -0.2577 -0.9662
vn 0.0000 1.0000 0.0000
vn 0.0000 0.0013 1.0000
vn 0.0000 -0.3057 -0.9521
usemtl None
s off
f 13//1 2//1 4//1 14//1
f 14//2 4//2 8//2 15//2
f 15//3 8//3 6//3 16//3
f 16//4 6//4 2//4 13//4
f 3//5 7//5 5//5 1//5
f 6//3 8//3 24//3 23//3
f 19//6 12//6 9//6 20//6
f 18//3 11//3 12//3 19//3
f 17//7 10//7 11//7 18//7
f 20//1 9//1 10//1 17//1
f 12//8 16//8 13//8 9//8
f 11//3 15//3 16//3 12//3
f 10//9 14//9 15//9 11//9
f 9//1 13//1 14//1 10//1
f 1//1 20//1 17//1 3//1
f 3//10 17//10 18//10 7//10
f 7//3 18//3 19//3 5//3
f 5//11 19//11 20//11 1//11
f 23//3 24//3 28//3 27//3
f 4//1 2//1 21//1 22//1
f 2//12 6//12 23//12 21//12
f 8//13 4//13 22//13 24//13
f 28//14 26//14 25//14 27//14
f 22//1 21//1 25//1 26//1
f 21//15 23//15 27//15 25//15
f 24//16 22//16 26//16 28//16
