# Blender v2.79 (sub 0) OBJ File: 'LKM45.blend'
# www.blender.org
mtllib LKM45_bolt.mtl
o Cylinder.010_Cylinder
v -0.027288 0.181876 -0.123814
v -0.027288 0.181876 0.383830
v -0.038591 0.219086 -0.123814
v -0.038591 0.219086 0.383830
v -0.027288 0.263289 -0.123814
v -0.027288 0.263289 0.383830
v -0.027288 0.181876 0.350391
v -0.038591 0.219086 0.350391
v -0.027288 0.263289 0.350391
v -0.009331 0.242256 0.383830
v -0.013196 0.254981 0.383830
v -0.009331 0.267705 0.383830
v -0.009331 0.242256 0.860111
v -0.013196 0.254981 0.860111
v -0.009331 0.267705 0.860111
v -0.065724 0.181876 0.350391
v -0.065724 0.181876 -0.123814
v -0.063219 0.213617 -0.123814
v -0.063219 0.213617 0.350391
v -0.027288 0.155661 -0.123814
v -0.027288 0.155661 0.350391
v -0.038591 0.219086 0.301689
v -0.027288 0.263289 0.301689
v -0.065724 0.181876 0.301689
v -0.063218 0.213617 0.301689
v -0.027288 0.155661 0.301689
v -0.063218 0.253855 0.350391
v -0.053917 0.263344 0.350391
v -0.063218 0.253855 0.301689
v -0.053917 0.263344 0.301689
v -0.142809 0.213617 0.330051
v -0.162285 0.213617 0.301689
v -0.142809 0.253855 0.330051
v -0.162285 0.253855 0.301689
v -0.027288 0.263289 0.327292
v -0.065724 0.181876 0.327292
v -0.063218 0.213617 0.327292
v -0.027288 0.155661 0.327292
v -0.063218 0.253855 0.327292
v -0.053917 0.263344 0.327292
v -0.162286 0.213617 0.320324
v -0.162285 0.253855 0.320324
v -0.094297 0.213617 0.301689
v -0.094298 0.213617 0.332002
v -0.094297 0.253855 0.332002
v -0.094297 0.253855 0.301689
v -0.094297 0.253855 0.320324
v -0.094297 0.213617 0.320324
v 0.000000 0.285255 -0.123814
v 0.000000 0.285255 0.383830
v 0.000000 0.166462 -0.123814
v 0.000000 0.166462 0.383830
v 0.027288 0.181876 -0.123814
v 0.027288 0.181876 0.383830
v 0.038591 0.219086 -0.123814
v 0.038591 0.219086 0.383830
v 0.027288 0.263289 -0.123814
v 0.027288 0.263289 0.383830
v 0.000000 0.285255 0.350391
v 0.000000 0.166462 0.350391
v 0.027288 0.181876 0.350391
v 0.038591 0.219086 0.350391
v 0.027288 0.263289 0.350391
v -0.000000 0.272976 0.383830
v -0.000000 0.236986 0.383830
v 0.009331 0.242256 0.383830
v 0.013196 0.254981 0.383830
v 0.009331 0.267705 0.383830
v -0.000000 0.272976 0.860111
v -0.000000 0.236986 0.860111
v 0.009331 0.242256 0.860111
v 0.013196 0.254981 0.860111
v 0.009331 0.267705 0.860111
v 0.065724 0.181876 0.350391
v 0.065724 0.181876 -0.123814
v 0.063219 0.213617 -0.123814
v 0.063219 0.213617 0.350391
v 0.000000 0.140248 0.350391
v 0.000000 0.140248 -0.123814
v 0.027288 0.155661 -0.123814
v 0.027288 0.155661 0.350391
v 0.000000 0.166462 0.301689
v 0.038591 0.219086 0.301689
v 0.027288 0.263289 0.301689
v 0.000000 0.285255 0.301689
v 0.065724 0.181876 0.301689
v 0.063218 0.213617 0.301689
v 0.000000 0.140248 0.301689
v 0.027288 0.155661 0.301689
v 0.000000 0.285255 0.327292
v 0.000000 0.166462 0.327292
v 0.027288 0.263289 0.327292
v 0.065724 0.181876 0.327292
v 0.063218 0.213617 0.327292
v 0.000000 0.140248 0.327292
v 0.027288 0.155661 0.327292
vt 0.529064 0.214386
vt 0.529853 0.214444
vt 0.530061 0.219672
vt 0.530111 0.229139
vt 0.530255 0.220570
vt 0.530668 0.227158
vt 0.530316 0.218129
vt 0.531017 0.222016
vt 0.530296 0.214865
vt 0.531064 0.215282
vt 0.531676 0.223876
vt 0.531662 0.215417
vt 0.523795 0.940190
vt 0.477972 0.940190
vt 0.493827 0.897569
vt 0.561826 0.223996
vt 0.561669 0.225073
vt 0.561402 0.219949
vt 0.561589 0.221754
vt 0.529994 0.215703
vt 0.529985 0.216568
vt 0.402319 0.187106
vt 0.397921 0.212896
vt 0.529959 0.214600
vt 0.529951 0.216036
vt 0.529999 0.214737
vt 0.408452 0.197384
vt 0.406028 0.184553
vt 0.402573 0.237432
vt 0.531321 0.245022
vt 0.530887 0.238300
vt 0.531038 0.234602
vt 0.531564 0.238761
vt 0.561557 0.233402
vt 0.532281 0.236806
vt 0.532169 0.243591
vt 0.528989 0.276355
vt 0.528185 0.241222
vt 0.529921 0.239755
vt 0.530458 0.259654
vt 0.531647 0.276748
vt 0.532027 0.250844
vt 0.562207 0.217844
vt 0.562207 0.245948
vt 0.531068 0.301618
vt 0.532349 0.224769
vt 0.562304 0.222883
vt 0.532341 0.215270
vt 0.561717 0.222803
vt 0.480245 0.874320
vt 0.460129 0.860250
vt 0.467567 0.849850
vt 0.489136 0.865948
vt 0.424191 0.828244
vt 0.479838 0.816867
vt 0.515652 0.839010
vt 0.542736 0.878929
vt 0.504726 0.891196
vt 0.419858 0.870091
vt 0.458398 0.900812
vt 0.455480 0.895709
vt 0.464987 0.894676
vt 0.465009 0.894662
vt 0.470295 0.889367
vt 0.471868 0.894871
vt 0.465039 0.894590
vt 0.464977 0.894624
vt 0.466461 0.886852
vt 0.464916 0.894691
vt 0.465575 0.901546
vt 0.465051 0.894654
vt 0.426678 0.917369
vt 0.530169 0.199664
vt 0.530093 0.209240
vt 0.530832 0.200975
vt 0.530313 0.208320
vt 0.531028 0.208744
vt 0.530330 0.211497
vt 0.531623 0.207345
vt 0.561179 0.215248
vt 0.560984 0.215473
vt 0.560885 0.215769
vt 0.561291 0.211926
vt 0.116206 -0.198718
vt 0.116206 -0.196520
vt 0.113301 -0.196520
vt 0.113301 -0.198718
vt 0.529997 0.213719
vt 0.406067 0.246001
vt 0.408371 0.236960
vt 0.529992 0.212755
vt 0.529961 0.213164
vt 0.409200 0.215860
vt 0.531279 0.184243
vt 0.531452 0.190547
vt 0.531019 0.193864
vt 0.530883 0.190360
vt 0.561232 0.201767
vt 0.532211 0.193557
vt 0.532105 0.186386
vt 0.529030 0.153065
vt 0.530470 0.169728
vt 0.529950 0.189191
vt 0.528218 0.187609
vt 0.531646 0.153163
vt 0.531985 0.178950
vt 0.562031 0.188026
vt 0.531094 0.128418
vt 0.172923 -0.198718
vt 0.172923 -0.196520
vt 0.119425 -0.196520
vt 0.119425 -0.198718
vt 0.561333 0.220489
vt 0.532307 0.205803
vn -0.4918 -0.8707 0.0000
vn -0.9568 -0.2906 0.0000
vn -0.9688 0.2477 0.0000
vn -0.6271 0.7790 0.0000
vn 0.0000 0.0000 -1.0000
vn -0.9568 0.2906 0.0000
vn 0.0000 0.0000 1.0000
vn -0.4918 0.8707 0.0000
vn -0.9969 0.0787 -0.0000
vn -0.2168 0.9762 0.0000
vn -0.5635 -0.8261 0.0000
vn -0.7142 0.7000 0.0000
vn 0.0021 1.0000 0.0000
vn -0.0000 -1.0000 -0.0000
vn 0.0000 1.0000 0.0000
vn -0.0402 0.0000 0.9992
vn -1.0000 0.0000 -0.0000
vn -0.4468 0.0000 0.8946
vn -0.5092 0.0000 0.8606
vn 0.4918 -0.8707 0.0000
vn 0.9568 -0.2906 0.0000
vn 0.9688 0.2477 0.0000
vn 0.6271 0.7790 0.0000
vn 0.9568 0.2906 0.0000
vn 0.4918 0.8707 0.0000
vn 0.9969 0.0787 -0.0000
vn 0.2168 0.9762 0.0000
vn 0.5635 -0.8261 0.0000
usemtl None
s off
f 60/1/1 52/2/1 2/3/1 7/4/1
f 7/4/2 2/3/2 4/5/2 8/6/2
f 8/6/3 4/5/3 6/7/3 9/8/3
f 9/8/4 6/7/4 50/9/4 59/10/4
f 35/11/4 9/8/4 59/10/4 90/12/4
f 22/13/5 25/14/5 29/15/5
f 3/16/5 1/17/5 17/18/5 18/19/5
f 12/20/6 11/21/6 14/22/6 15/23/6
f 6/7/7 4/5/7 11/21/7 12/20/7
f 2/3/7 52/2/7 65/24/7 10/25/7
f 50/9/7 6/7/7 12/20/7 64/26/7
f 4/5/7 2/3/7 10/25/7 11/21/7
f 10/25/1 65/24/1 70/27/1 13/28/1
f 64/26/8 12/20/8 15/23/8 69/29/8
f 11/21/2 10/25/2 13/28/2 14/22/2
f 36/30/9 16/31/9 19/32/9 37/33/9
f 17/18/5 1/17/5 20/34/5
f 7/4/7 8/6/7 19/32/7 16/31/7
f 22/35/10 3/16/10 18/19/10 25/36/10
f 95/37/1 78/38/1 21/39/1 38/40/1
f 60/1/7 7/4/7 21/39/7 78/38/7
f 26/41/11 24/42/11 17/18/11 20/34/11
f 1/17/5 51/43/5 79/44/5 20/34/5
f 16/31/7 21/39/7 7/4/7
f 38/40/11 36/30/11 24/42/11 26/41/11
f 79/44/1 88/45/1 26/41/1 20/34/1
f 17/18/9 24/42/9 25/36/9 18/19/9
f 3/16/3 22/35/3 23/46/3 5/47/3
f 5/47/4 23/46/4 85/48/4 49/49/4
f 39/50/12 27/51/12 28/52/12 40/53/12
f 8/54/7 9/55/7 28/52/7 27/51/7
f 35/56/13 23/57/13 30/58/13 40/53/13
f 23/57/5 22/13/5 29/15/5 30/58/5
f 19/59/7 8/54/7 27/51/7
f 48/60/14 44/61/14 31/62/14 41/63/14
f 47/64/15 46/65/15 34/66/15 42/67/15
f 44/61/16 45/68/16 33/69/16 31/62/16
f 46/65/5 43/70/5 32/71/5 34/66/5
f 42/67/17 34/66/17 32/71/17 41/63/17
f 33/69/18 42/67/18 41/63/18 31/62/18
f 45/68/15 47/64/15 42/67/15 33/69/15
f 43/70/14 48/60/14 41/63/14 32/71/14
f 9/55/13 35/56/13 40/53/13 28/52/13
f 29/15/12 39/50/12 40/53/12 30/58/12
f 21/39/11 16/31/11 36/30/11 38/40/11
f 88/45/1 95/37/1 38/40/1 26/41/1
f 24/42/9 36/30/9 37/33/9 25/36/9
f 23/46/4 35/11/4 90/12/4 85/48/4
f 25/14/14 37/72/14 48/60/14 43/70/14
f 27/51/15 39/50/15 47/64/15 45/68/15
f 29/15/5 25/14/5 43/70/5 46/65/5
f 19/59/19 27/51/19 45/68/19 44/61/19
f 39/50/15 29/15/15 46/65/15 47/64/15
f 37/72/14 19/59/14 44/61/14 48/60/14
f 60/1/20 61/73/20 54/74/20 52/2/20
f 61/73/21 62/75/21 56/76/21 54/74/21
f 62/75/22 63/77/22 58/78/22 56/76/22
f 63/77/23 59/10/23 50/9/23 58/78/23
f 92/79/23 90/12/23 59/10/23 63/77/23
f 55/80/5 76/81/5 75/82/5 53/83/5
f 91/84/17 95/85/17 78/86/17 60/87/17
f 68/88/24 73/89/24 72/90/24 67/91/24
f 58/78/7 68/88/7 67/91/7 56/76/7
f 54/74/7 66/92/7 65/24/7 52/2/7
f 50/9/7 64/26/7 68/88/7 58/78/7
f 56/76/7 67/91/7 66/92/7 54/74/7
f 66/92/20 71/93/20 70/27/20 65/24/20
f 64/26/25 69/29/25 73/89/25 68/88/25
f 67/91/21 72/90/21 71/93/21 66/92/21
f 93/94/26 94/95/26 77/96/26 74/97/26
f 75/82/5 80/98/5 53/83/5
f 61/73/7 74/97/7 77/96/7 62/75/7
f 83/99/27 87/100/27 76/81/27 55/80/27
f 95/101/20 96/102/20 81/103/20 78/104/20
f 60/1/7 78/104/7 81/103/7 61/73/7
f 89/105/28 80/98/28 75/82/28 86/106/28
f 53/83/5 80/98/5 79/107/5 51/43/5
f 74/97/7 61/73/7 81/103/7
f 96/102/28 89/105/28 86/106/28 93/94/28
f 79/107/20 80/98/20 89/105/20 88/108/20
f 75/82/26 76/81/26 87/100/26 86/106/26
f 51/109/17 79/110/17 88/111/17 82/112/17
f 55/80/22 57/113/22 84/114/22 83/99/22
f 57/113/23 49/49/23 85/48/23 84/114/23
f 62/75/27 77/96/27 94/95/27 87/100/27 83/99/27
f 81/103/28 96/102/28 93/94/28 74/97/28
f 88/108/20 89/105/20 96/102/20 95/101/20
f 86/106/26 87/100/26 94/95/26 93/94/26
f 82/112/17 88/111/17 95/85/17 91/84/17
f 84/114/23 85/48/23 90/12/23 92/79/23
f 62/75/22 83/99/22 84/114/22 92/79/22 63/77/22
f 1/17/5 3/16/5 5/47/5 49/49/5 57/113/5 55/80/5 53/83/5 51/43/5
f 70/27/7 71/93/7 72/90/7 73/89/7 69/29/7 15/23/7 14/22/7 13/28/7
