# Blender v2.79 (sub 0) OBJ File: 'LKM45.blend'
# www.blender.org
mtllib LKM45_sight_rear.mtl
o Cube.015_Cube.001
v -0.076888 0.334665 0.359678
v -0.076888 0.189257 0.359678
v -0.076888 0.334665 0.561313
v -0.076888 0.189257 0.561313
v -0.060819 0.189257 0.561313
v -0.060819 0.334665 0.561313
v -0.060819 0.334665 0.359678
v -0.060819 0.189257 0.359678
v -0.060819 0.353175 0.561313
v -0.060819 0.353175 0.359678
v -0.076888 0.334665 0.503595
v -0.076888 0.189257 0.503595
v -0.060819 0.189257 0.503595
v -0.060819 0.334665 0.503595
v -0.076888 0.353175 0.561313
v -0.076888 0.353175 0.503595
v -0.060819 0.353175 0.503595
v -0.034155 0.351516 0.552500
v -0.034155 0.362454 0.553074
v -0.034155 0.361315 0.365531
v -0.034155 0.372252 0.366105
v -0.034155 0.360900 0.373445
v -0.034155 0.371838 0.374018
v -0.034155 0.391918 0.367135
v -0.034155 0.391503 0.375049
v -0.006674 0.361315 0.365531
v -0.006674 0.362454 0.553074
v -0.006674 0.372252 0.366105
v -0.006674 0.351516 0.552500
v -0.006674 0.360900 0.373445
v -0.006674 0.371838 0.374018
v -0.006674 0.391918 0.367135
v -0.006674 0.391503 0.375049
v -0.053280 0.367225 0.404063
v -0.053280 0.356974 0.409287
v -0.053280 0.356371 0.420777
v -0.053280 0.366021 0.427043
v -0.053280 0.376272 0.421819
v -0.053280 0.376875 0.410330
v 0.076888 0.334665 0.359678
v 0.076888 0.189257 0.359678
v 0.076888 0.334665 0.561313
v 0.076888 0.189257 0.561313
v 0.000000 0.189257 0.561313
v 0.000000 0.189257 0.359678
v 0.000000 0.340054 0.561313
v 0.000000 0.340054 0.359678
v 0.060819 0.189257 0.561313
v 0.060819 0.334665 0.561313
v 0.060819 0.334665 0.359678
v 0.060819 0.189257 0.359678
v 0.000000 0.353175 0.561313
v 0.000000 0.353175 0.359678
v 0.060819 0.353175 0.561313
v 0.060819 0.353175 0.359678
v 0.076888 0.334665 0.503595
v 0.076888 0.189257 0.503595
v 0.000000 0.340054 0.503595
v 0.000000 0.189257 0.503595
v 0.060819 0.189257 0.503595
v 0.060819 0.334665 0.503595
v 0.000000 0.353175 0.503595
v 0.076888 0.353175 0.561313
v 0.076888 0.353175 0.503595
v 0.060819 0.353175 0.503595
v 0.034155 0.351516 0.552500
v 0.034155 0.362454 0.553074
v 0.034155 0.361315 0.365531
v 0.034155 0.372252 0.366105
v 0.000000 0.361315 0.365531
v 0.000000 0.372252 0.366105
v 0.000000 0.351516 0.552500
v 0.000000 0.362454 0.553074
v 0.034155 0.360900 0.373445
v 0.034155 0.371838 0.374018
v 0.000000 0.371838 0.374018
v 0.000000 0.360900 0.373445
v 0.034155 0.391918 0.367135
v 0.034155 0.391503 0.375049
v 0.006674 0.361315 0.365531
v 0.006674 0.362454 0.553074
v 0.006674 0.372252 0.366105
v 0.006674 0.351516 0.552500
v 0.006674 0.360900 0.373445
v 0.006674 0.371838 0.374018
v 0.006674 0.391918 0.367135
v 0.006674 0.391503 0.375049
v 0.053280 0.367225 0.404063
v 0.000000 0.367225 0.404063
v 0.053280 0.356974 0.409287
v 0.000000 0.356974 0.409287
v 0.053280 0.356371 0.420777
v 0.000000 0.356371 0.420777
v 0.053280 0.366021 0.427043
v 0.000000 0.366021 0.427043
v 0.053280 0.376272 0.421819
v 0.000000 0.376272 0.421819
v 0.053280 0.376875 0.410330
v 0.000000 0.376875 0.410330
vt 0.488503 0.136457
vt 0.541065 0.087233
vt 0.590033 0.118311
vt 0.557405 0.189854
vt 0.486096 0.128762
vt 0.540110 0.078384
vt 0.463880 0.168810
vt 0.472618 0.163782
vt 0.530100 0.204149
vt 0.529870 0.214875
vt 0.601471 0.114246
vt 0.566560 0.198054
vt 0.657004 0.094890
vt 0.609622 0.250657
vt 0.525291 0.022691
vt 0.405734 0.169268
vt 0.531743 0.288558
vt 0.527230 0.074484
vt 0.515913 0.042999
vt 0.421957 0.102407
vt 0.472262 0.126328
vt 0.418668 0.155984
vt 0.459560 0.156742
vt 0.466736 0.155329
vt 0.478346 0.136585
vt 0.477488 0.940960
vt 0.477335 0.936533
vt 0.479990 0.937781
vt 0.479563 0.939856
vt 0.398249 0.949891
vt 0.397419 0.933115
vt 0.424531 0.939857
vt 0.424280 0.943138
vt 0.490954 0.926251
vt 0.493260 0.953417
vt 0.497174 0.957810
vt 0.390355 0.953813
vt 0.496622 0.947290
vt 0.496141 0.936516
vt 0.504287 0.933203
vt 0.504287 0.949740
vt 0.481515 0.936375
vt 0.481494 0.936393
vt 0.481469 0.936419
vt 0.481497 0.936439
vt 0.496705 0.921061
vt 0.385940 0.930240
vt 0.385917 0.745292
vt 0.598458 0.745292
vt 0.598458 0.957833
vt 0.385917 0.957833
vt 0.385917 0.745292
vt 0.598458 0.745292
vt 0.598458 0.957833
vt 0.385917 0.957833
vt 0.385917 0.745292
vt 0.598458 0.745292
vt 0.598458 0.957833
vt 0.385917 0.957833
vt 0.385917 0.745292
vt 0.598458 0.745292
vt 0.598458 0.957833
vt 0.385917 0.957833
vt 0.385917 0.745292
vt 0.598458 0.745292
vt 0.598458 0.957833
vt 0.385917 0.957833
vt 0.385917 0.745292
vt 0.598458 0.745292
vt 0.598458 0.957833
vt 0.385917 0.957833
vt 0.492188 0.957833
vt 0.584221 0.904698
vt 0.584221 0.798427
vt 0.492188 0.745292
vt 0.400154 0.798427
vt 0.400154 0.904698
vt 0.488503 0.136457
vt 0.557405 0.189854
vt 0.590033 0.118311
vt 0.541065 0.087233
vt 0.486096 0.128762
vt 0.540110 0.078384
vt 0.463880 0.168810
vt 0.529870 0.214875
vt 0.530100 0.204149
vt 0.472618 0.163782
vt 0.601471 0.114246
vt 0.566560 0.198054
vt 0.527230 0.074484
vt 0.472262 0.126328
vt 0.405734 0.096406
vt 0.459560 0.156742
vt 0.478346 0.136585
vt 0.466736 0.155329
vt 0.477488 0.940960
vt 0.479563 0.939856
vt 0.479990 0.937781
vt 0.477335 0.936533
vt 0.398249 0.949891
vt 0.424280 0.943138
vt 0.424531 0.939857
vt 0.397419 0.933115
vt 0.490954 0.926251
vt 0.493260 0.953417
vt 0.496622 0.947290
vt 0.496141 0.936516
vt 0.481494 0.936393
vt 0.481515 0.936375
vt 0.481469 0.936419
vt 0.481497 0.936439
vt 0.385917 0.745292
vt 0.385917 0.957833
vt 0.385917 0.745292
vt 0.385917 0.957833
vt 0.385917 0.745292
vt 0.385917 0.957833
vt 0.385917 0.745292
vt 0.385917 0.957833
vt 0.492188 0.957833
vt 0.400154 0.904698
vt 0.400154 0.798427
vt 0.492188 0.745292
vt 0.584221 0.798427
vt 0.584221 0.904698
vt 0.385917 0.745292
vt 0.385917 0.957833
vt 0.385917 0.745292
vt 0.385917 0.957833
vt 0.492188 0.957833
vt 0.400154 0.904698
vt 0.400154 0.798427
vt 0.492188 0.745292
vt 0.584221 0.798427
vt 0.584221 0.904698
vn -1.0000 0.0000 0.0000
vn 0.0000 1.0000 0.0000
vn 0.0000 0.0000 1.0000
vn 0.0000 0.0000 -1.0000
vn 0.0000 -1.0000 0.0000
vn 0.0000 -0.0523 0.9986
vn 0.0000 0.9986 0.0523
vn 0.0000 -0.9986 -0.0523
vn 0.0000 0.0523 -0.9986
vn 1.0000 0.0000 0.0000
vn 0.0000 -0.4540 -0.8910
vn 0.0000 -0.5446 0.8387
vn 0.0000 0.4540 0.8910
vn 0.0000 0.5446 -0.8387
usemtl None
s off
f 11/1/1 1/2/1 2/3/1 12/4/1
f 14/5/2 7/6/2 1/2/2 11/1/2
f 6/7/3 3/8/3 4/9/3 5/10/3
f 7/6/4 8/11/4 2/3/4 1/2/4
f 13/12/5 8/11/5 45/13/5 59/14/5
f 12/4/5 2/3/5 8/11/5 13/12/5
f 47/15/4 45/13/4 8/11/4 7/6/4
f 46/16/3 6/7/3 5/10/3 44/17/3
f 47/15/4 7/6/4 10/18/4 53/19/4
f 62/20/2 53/19/2 10/18/2 17/21/2
f 6/7/3 46/16/3 52/22/3 9/23/3
f 7/6/1 14/5/1 17/21/1 10/18/1
f 52/22/2 62/20/2 17/21/2 9/23/2
f 4/9/5 12/4/5 13/12/5 5/10/5
f 5/10/5 13/12/5 59/14/5 44/17/5
f 11/1/1 3/8/1 15/24/1 16/25/1
f 3/8/1 11/1/1 12/4/1 4/9/1
f 9/23/2 17/21/2 16/25/2 15/24/2
f 3/8/3 6/7/3 9/23/3 15/24/3
f 14/5/4 11/1/4 16/25/4 17/21/4
f 22/26/1 23/27/1 21/28/1 20/29/1
f 29/30/6 27/31/6 19/32/6 18/33/6
f 31/34/7 23/27/7 19/32/7 27/31/7
f 30/35/8 77/36/8 72/37/8 29/30/8
f 26/38/9 28/39/9 71/40/9 70/41/9
f 26/38/8 70/41/8 77/36/8 30/35/8
f 21/28/1 23/27/1 25/42/1 24/43/1
f 18/33/1 19/32/1 23/27/1 22/26/1
f 32/44/7 24/43/7 25/42/7 33/45/7
f 31/34/10 28/39/10 32/44/10 33/45/10
f 28/39/9 21/28/9 24/43/9 32/44/9
f 71/40/7 28/39/7 31/34/7 76/46/7
f 23/27/6 31/34/6 33/45/6 25/42/6
f 20/29/8 26/38/8 30/35/8 22/26/8
f 20/29/9 21/28/9 28/39/9 26/38/9
f 22/26/8 30/35/8 29/30/8 18/33/8
f 76/46/7 31/34/7 27/31/7 73/47/7
f 72/37/6 73/47/6 27/31/6 29/30/6
f 34/48/11 89/49/11 91/50/11 35/51/11
f 35/52/8 91/53/8 93/54/8 36/55/8
f 36/56/12 93/57/12 95/58/12 37/59/12
f 37/60/13 95/61/13 97/62/13 38/63/13
f 38/64/7 97/65/7 99/66/7 39/67/7
f 39/68/14 99/69/14 89/70/14 34/71/14
f 34/72/1 35/73/1 36/74/1 37/75/1 38/76/1 39/77/1
f 56/78/10 57/79/10 41/80/10 40/81/10
f 61/82/2 56/78/2 40/81/2 50/83/2
f 49/84/3 48/85/3 43/86/3 42/87/3
f 50/83/4 40/81/4 41/80/4 51/88/4
f 60/89/5 59/14/5 45/13/5 51/88/5
f 57/79/5 60/89/5 51/88/5 41/80/5
f 47/15/4 50/83/4 51/88/4 45/13/4
f 46/16/3 44/17/3 48/85/3 49/84/3
f 47/15/4 53/19/4 55/90/4 50/83/4
f 62/20/2 65/91/2 55/90/2 53/19/2
f 58/92/1 62/20/1 53/19/1 47/15/1
f 49/84/3 54/93/3 52/22/3 46/16/3
f 50/83/10 55/90/10 65/91/10 61/82/10
f 46/16/1 52/22/1 62/20/1 58/92/1
f 52/22/2 54/93/2 65/91/2 62/20/2
f 43/86/5 48/85/5 60/89/5 57/79/5
f 48/85/5 44/17/5 59/14/5 60/89/5
f 56/78/10 64/94/10 63/95/10 42/87/10
f 42/87/10 43/86/10 57/79/10 56/78/10
f 54/93/2 63/95/2 64/94/2 65/91/2
f 42/87/3 63/95/3 54/93/3 49/84/3
f 61/82/4 65/91/4 64/94/4 56/78/4
f 74/96/10 68/97/10 69/98/10 75/99/10
f 83/100/6 66/101/6 67/102/6 81/103/6
f 85/104/7 81/103/7 67/102/7 75/99/7
f 84/105/8 83/100/8 72/37/8 77/36/8
f 80/106/9 70/41/9 71/40/9 82/107/9
f 80/106/8 84/105/8 77/36/8 70/41/8
f 69/98/10 78/108/10 79/109/10 75/99/10
f 66/101/10 74/96/10 75/99/10 67/102/10
f 86/110/7 87/111/7 79/109/7 78/108/7
f 85/104/1 87/111/1 86/110/1 82/107/1
f 82/107/9 86/110/9 78/108/9 69/98/9
f 71/40/7 76/46/7 85/104/7 82/107/7
f 75/99/6 79/109/6 87/111/6 85/104/6
f 68/97/8 74/96/8 84/105/8 80/106/8
f 68/97/9 80/106/9 82/107/9 69/98/9
f 74/96/8 66/101/8 83/100/8 84/105/8
f 76/46/7 73/47/7 81/103/7 85/104/7
f 72/37/6 83/100/6 81/103/6 73/47/6
f 88/112/11 90/113/11 91/50/11 89/49/11
f 90/114/8 92/115/8 93/54/8 91/53/8
f 92/116/12 94/117/12 95/58/12 93/57/12
f 94/118/13 96/119/13 97/62/13 95/61/13
f 91/120/1 93/121/1 95/122/1 97/123/1 99/124/1 89/125/1
f 96/126/7 98/127/7 99/66/7 97/65/7
f 98/128/14 88/129/14 89/70/14 99/69/14
f 88/130/10 98/131/10 96/132/10 94/133/10 92/134/10 90/135/10
l 14 6
l 61 49
