# Blender v2.79 (sub 0) OBJ File: 'LKM45.blend'
# www.blender.org
mtllib LKM45_grip.mtl
o Cube.013_Cube.002
v -0.068388 -0.393350 -0.573034
v -0.071531 -0.439264 -0.578350
v -0.048362 -0.445164 -0.554952
v -0.045646 -0.400534 -0.551407
v -0.045667 -0.171015 -0.490132
v -0.045779 -0.148573 -0.461547
v -0.067517 -0.122027 -0.507702
v -0.067906 -0.167396 -0.513708
v -0.069701 -0.379048 -0.761367
v -0.068388 -0.336255 -0.746017
v -0.045646 -0.329127 -0.767614
v -0.046921 -0.371924 -0.782992
v -0.065462 -0.164177 -0.670283
v -0.065058 -0.118814 -0.664935
v -0.041831 -0.118701 -0.687976
v -0.042132 -0.161631 -0.694300
v -0.073299 -0.457459 -0.576582
v -0.053657 -0.481891 -0.572690
v -0.050935 -0.465233 -0.552975
v -0.071698 -0.404352 -0.771058
v -0.048560 -0.398417 -0.793132
v -0.050268 -0.425632 -0.779318
v -0.066416 -0.034036 -0.509870
v -0.066416 -0.032845 -0.464400
v -0.043273 -0.011304 -0.510429
v -0.065697 -0.038433 -0.677749
v -0.043273 -0.015785 -0.681562
v -0.042955 -0.038839 -0.700714
v -0.045254 -0.125674 -0.444348
v -0.067998 -0.123996 -0.462153
v -0.043273 -0.010113 -0.464959
v -0.043658 -0.023077 -0.446891
v -0.068388 -0.250404 -0.535506
v -0.068388 -0.296096 -0.547501
v -0.045652 -0.296829 -0.523631
v -0.045652 -0.252693 -0.512043
v -0.068388 -0.299200 -0.733559
v -0.067690 -0.253384 -0.713438
v -0.045014 -0.256257 -0.740091
v -0.045646 -0.298286 -0.757245
v 0.001232 -0.371924 -0.782992
v 0.003812 -0.118701 -0.687976
v 0.003505 -0.161631 -0.694300
v 0.004177 -0.425632 -0.779318
v 0.002975 -0.398417 -0.793132
v 0.000788 -0.481891 -0.572690
v 0.002373 -0.015785 -0.681562
v 0.002689 -0.038839 -0.700714
v 0.002373 -0.011304 -0.510429
v 0.002373 -0.010113 -0.464959
v 0.001984 -0.023077 -0.446891
v 0.000623 -0.256257 -0.740091
v 0.068388 -0.393350 -0.573034
v 0.071531 -0.439264 -0.578350
v 0.048362 -0.445164 -0.554952
v 0.045646 -0.400534 -0.551407
v 0.045667 -0.171015 -0.490132
v 0.045779 -0.148573 -0.461547
v 0.067517 -0.122027 -0.507702
v 0.067906 -0.167396 -0.513708
v 0.069701 -0.379048 -0.761367
v 0.068388 -0.336255 -0.746017
v 0.045646 -0.329127 -0.767614
v 0.046921 -0.371924 -0.782992
v 0.065462 -0.164177 -0.670283
v 0.065058 -0.118814 -0.664935
v 0.041831 -0.118701 -0.687976
v 0.042132 -0.161631 -0.694300
v 0.073299 -0.457459 -0.576582
v 0.053657 -0.481891 -0.572690
v 0.050935 -0.465233 -0.552975
v 0.071698 -0.404352 -0.771058
v 0.048560 -0.398417 -0.793132
v 0.050268 -0.425632 -0.779318
v 0.066416 -0.034036 -0.509870
v 0.066416 -0.032845 -0.464400
v 0.043273 -0.011304 -0.510429
v 0.065697 -0.038433 -0.677749
v 0.043273 -0.015785 -0.681562
v 0.042955 -0.038839 -0.700714
v 0.045254 -0.125674 -0.444348
v 0.067998 -0.123996 -0.462153
v 0.043273 -0.010113 -0.464959
v 0.043658 -0.023077 -0.446891
v 0.068388 -0.250404 -0.535506
v 0.068388 -0.296096 -0.547501
v 0.045652 -0.296829 -0.523631
v 0.045652 -0.252693 -0.512043
v 0.068388 -0.299200 -0.733559
v 0.067690 -0.253384 -0.713438
v 0.045014 -0.256257 -0.740091
v 0.045646 -0.298286 -0.757245
v -0.001232 -0.371924 -0.782992
v 0.000000 -0.329127 -0.767614
v -0.003812 -0.118701 -0.687976
v -0.003505 -0.161631 -0.694300
v 0.000000 -0.445164 -0.554952
v 0.000000 -0.400601 -0.551162
v 0.000000 -0.152133 -0.461447
v 0.000000 -0.178036 -0.490193
v -0.004177 -0.425632 -0.779318
v -0.002975 -0.398417 -0.793132
v -0.000788 -0.481891 -0.572690
v 0.000000 -0.465233 -0.552975
v -0.002373 -0.015785 -0.681562
v -0.002689 -0.038839 -0.700714
v -0.002373 -0.011304 -0.510429
v 0.000000 -0.125674 -0.444348
v -0.002373 -0.010113 -0.464959
v -0.001984 -0.023077 -0.446891
v 0.000000 -0.256586 -0.511698
v 0.000000 -0.300587 -0.523775
v -0.000623 -0.256257 -0.740091
v 0.000000 -0.298286 -0.757245
vn -0.9998 0.0193 -0.0094
vn 0.0000 -0.1575 -0.9875
vn 0.0000 0.9997 -0.0262
vn -0.0120 -0.2614 0.9652
vn -0.0342 -0.2614 0.9646
vn -1.0000 0.0019 -0.0098
vn 0.0000 0.0980 0.9952
vn -0.9964 0.0833 0.0160
vn -0.7035 -0.0240 0.7103
vn -0.8693 -0.3828 0.3126
vn -0.7065 0.2580 -0.6590
vn -0.7102 0.0978 -0.6971
vn -0.7082 -0.4880 0.5102
vn -0.6062 -0.3294 -0.7239
vn -0.7008 0.7131 -0.0187
vn -0.6104 0.5011 -0.6134
vn -0.5596 -0.4894 0.6688
vn -0.6209 0.6431 0.4482
vn -0.7153 -0.1774 0.6759
vn -0.7060 0.2857 -0.6481
vn -0.9988 0.0477 0.0106
vn -0.7225 -0.1754 0.6688
vn -0.9998 0.0107 -0.0154
vn -0.7071 0.2253 -0.6702
vn 0.0000 0.3381 -0.9411
vn -0.0884 -0.7616 0.6420
vn -0.7397 -0.6469 -0.1856
vn 0.0000 -0.4526 -0.8917
vn -0.7012 0.2973 -0.6480
vn -0.6886 0.1476 0.7100
vn -0.7065 0.7075 -0.0200
vn -0.9999 0.0148 -0.0052
vn -0.7027 -0.1196 -0.7014
vn -0.0232 -0.5703 0.8211
vn 0.0000 0.8125 0.5830
vn -0.6161 0.0296 0.7871
vn -0.7112 -0.1803 0.6795
vn -0.6985 0.3273 -0.6363
vn -0.0238 -0.2592 0.9655
vn -1.0000 0.0083 -0.0021
vn -1.0000 0.0000 0.0000
vn 0.0000 0.3779 -0.9259
vn 0.0000 0.6390 -0.7692
vn 0.0000 -0.7638 0.6454
vn -0.0026 -0.0819 0.9966
vn 0.0000 0.1457 -0.9893
vn 0.0000 0.3575 -0.9339
vn 0.0000 0.0248 0.9997
vn 0.0000 0.3187 -0.9479
vn 0.0000 0.4356 -0.9001
vn 0.0000 -0.9649 -0.2627
vn 0.9998 0.0193 -0.0094
vn 0.0120 -0.2614 0.9652
vn 0.0342 -0.2614 0.9646
vn 1.0000 0.0019 -0.0098
vn 0.9964 0.0833 0.0160
vn 0.7035 -0.0240 0.7103
vn 0.8693 -0.3828 0.3126
vn 0.7065 0.2580 -0.6590
vn 0.7102 0.0978 -0.6971
vn 0.7082 -0.4880 0.5102
vn 0.6062 -0.3294 -0.7239
vn 0.7008 0.7131 -0.0187
vn 0.6104 0.5011 -0.6134
vn 0.5596 -0.4894 0.6688
vn 0.6209 0.6431 0.4482
vn 0.7153 -0.1774 0.6759
vn 0.7060 0.2857 -0.6481
vn 0.9988 0.0477 0.0106
vn 0.7225 -0.1754 0.6688
vn 0.9998 0.0107 -0.0154
vn 0.7071 0.2253 -0.6702
vn 0.0884 -0.7616 0.6420
vn 0.7397 -0.6469 -0.1856
vn 0.7012 0.2973 -0.6480
vn 0.6886 0.1476 0.7100
vn 0.7065 0.7075 -0.0200
vn 0.9999 0.0148 -0.0052
vn 0.7027 -0.1196 -0.7014
vn 0.0232 -0.5703 0.8211
vn 0.6161 0.0296 0.7871
vn 0.7112 -0.1803 0.6795
vn 0.6985 0.3273 -0.6363
vn 0.0238 -0.2592 0.9655
vn 1.0000 0.0083 -0.0021
vn 1.0000 0.0000 0.0000
vn 0.0026 -0.0819 0.9966
usemtl None
s off
f 33//1 8//1 13//1 38//1
f 42//2 15//2 28//2 48//2
f 47//3 27//3 25//3 49//3
f 98//4 112//4 35//4 4//4
f 111//5 100//5 5//5 36//5
f 14//6 7//6 23//6 26//6
f 97//7 3//7 19//7 104//7
f 2//8 9//8 20//8 17//8
f 1//9 2//9 3//9 4//9
f 5//10 6//10 30//10 7//10 8//10
f 9//11 10//11 11//11 12//11
f 13//12 14//12 15//12 16//12
f 17//13 18//13 19//13
f 20//14 21//14 22//14
f 23//15 24//15 31//15 25//15
f 26//16 27//16 28//16
f 6//17 29//17 30//17
f 31//18 24//18 32//18
f 33//19 34//19 35//19 36//19
f 37//20 38//20 39//20 40//20
f 9//21 2//21 1//21 10//21
f 36//22 5//22 8//22 33//22
f 7//23 14//23 13//23 8//23
f 40//24 11//24 10//24 37//24
f 41//25 12//25 11//25 94//25
f 99//26 6//26 5//26 100//26
f 22//27 18//27 17//27 20//27
f 44//28 22//28 21//28 45//28
f 20//29 9//29 12//29 21//29
f 19//30 3//30 2//30 17//30
f 25//31 27//31 26//31 23//31
f 49//3 25//3 31//3 50//3
f 30//32 24//32 23//32 7//32
f 28//33 15//33 14//33 26//33
f 108//34 29//34 6//34 99//34
f 50//35 31//35 32//35 51//35
f 29//36 32//36 24//36 30//36
f 4//37 35//37 34//37 1//37
f 16//38 39//38 38//38 13//38
f 111//39 36//39 35//39 112//39
f 33//40 38//40 37//40 34//40
f 1//41 34//41 37//41 10//41
f 39//42 52//42 114//42 40//42
f 27//43 47//43 48//43 28//43
f 18//44 46//44 104//44 19//44
f 3//45 97//45 98//45 4//45
f 15//46 42//46 43//46 16//46
f 12//47 41//47 45//47 21//47
f 29//48 108//48 51//48 32//48
f 11//49 40//49 114//49 94//49
f 39//50 16//50 43//50 52//50
f 22//51 44//51 46//51 18//51
f 85//52 90//52 65//52 60//52
f 95//2 106//2 80//2 67//2
f 105//3 107//3 77//3 79//3
f 98//53 56//53 87//53 112//53
f 111//54 88//54 57//54 100//54
f 66//55 78//55 75//55 59//55
f 97//7 104//7 71//7 55//7
f 54//56 69//56 72//56 61//56
f 53//57 56//57 55//57 54//57
f 57//58 60//58 59//58 82//58 58//58
f 61//59 64//59 63//59 62//59
f 65//60 68//60 67//60 66//60
f 69//61 71//61 70//61
f 72//62 74//62 73//62
f 75//63 77//63 83//63 76//63
f 78//64 80//64 79//64
f 58//65 82//65 81//65
f 83//66 84//66 76//66
f 85//67 88//67 87//67 86//67
f 89//68 92//68 91//68 90//68
f 61//69 62//69 53//69 54//69
f 88//70 85//70 60//70 57//70
f 59//71 60//71 65//71 66//71
f 92//72 89//72 62//72 63//72
f 93//25 94//25 63//25 64//25
f 99//73 100//73 57//73 58//73
f 74//74 72//74 69//74 70//74
f 101//28 102//28 73//28 74//28
f 72//75 73//75 64//75 61//75
f 71//76 69//76 54//76 55//76
f 77//77 75//77 78//77 79//77
f 107//3 109//3 83//3 77//3
f 82//78 59//78 75//78 76//78
f 80//79 78//79 66//79 67//79
f 108//80 99//80 58//80 81//80
f 109//35 110//35 84//35 83//35
f 81//81 82//81 76//81 84//81
f 56//82 53//82 86//82 87//82
f 68//83 65//83 90//83 91//83
f 111//84 112//84 87//84 88//84
f 85//85 86//85 89//85 90//85
f 53//86 62//86 89//86 86//86
f 91//42 92//42 114//42 113//42
f 79//43 80//43 106//43 105//43
f 70//44 71//44 104//44 103//44
f 55//87 56//87 98//87 97//87
f 67//46 68//46 96//46 95//46
f 64//47 73//47 102//47 93//47
f 81//48 84//48 110//48 108//48
f 63//49 94//49 114//49 92//49
f 91//50 113//50 96//50 68//50
f 74//51 70//51 103//51 101//51
