# Blender v2.79 (sub 0) OBJ File: 'LKM45.blend'
# www.blender.org
mtllib LKM45_mag_release_bracket.mtl
o Plane.006_Plane.007
v -0.047906 -0.002645 -0.199966
v 0.000000 -0.002645 -0.199966
v 0.047906 -0.002645 -0.199966
v -0.047906 -0.077551 -0.198005
v 0.000000 -0.077551 -0.198005
v 0.047906 -0.077551 -0.198005
v -0.047906 -0.001538 -0.157666
v 0.047906 -0.001538 -0.157666
v -0.047906 -0.076443 -0.155704
v 0.047906 -0.076443 -0.155704
v -0.057906 -0.002907 -0.209963
v 0.000000 -0.002907 -0.209963
v 0.057906 -0.002907 -0.209963
v -0.057906 -0.077813 -0.208001
v 0.000000 -0.077813 -0.208001
v 0.057906 -0.077813 -0.208001
v -0.057906 -0.001538 -0.157666
v 0.057906 -0.001538 -0.157666
v -0.057906 -0.076443 -0.155704
v 0.057906 -0.076443 -0.155704
vn -0.0000 0.0262 0.9997
vn -1.0000 0.0000 0.0000
vn 1.0000 0.0000 0.0000
vn 0.0000 -0.0262 -0.9997
vn 0.0000 0.9997 -0.0262
vn -0.0000 -0.9997 0.0262
usemtl None
s off
f 3//1 2//1 5//1 6//1
f 1//1 4//1 5//1 2//1
f 3//2 6//2 10//2 8//2
f 4//3 1//3 7//3 9//3
f 13//4 16//4 15//4 12//4
f 11//4 12//4 15//4 14//4
f 13//3 18//3 20//3 16//3
f 14//2 19//2 17//2 11//2
f 1//5 2//5 12//5 11//5
f 2//5 3//5 13//5 12//5
f 6//6 5//6 15//6 16//6
f 5//6 4//6 14//6 15//6
f 9//1 7//1 17//1 19//1
f 8//1 10//1 20//1 18//1
f 3//5 8//5 18//5 13//5
f 10//6 6//6 16//6 20//6
f 4//6 9//6 19//6 14//6
f 7//5 1//5 11//5 17//5
