# Blender v2.79 (sub 0) OBJ File: 'LKM45.blend'
# www.blender.org
mtllib LKM45_sight_front.mtl
o Cylinder.023_Cylinder.020
v -0.037344 0.040050 1.489232
v -0.037344 0.040050 1.632697
v -0.052813 0.077394 1.489232
v -0.052813 0.077394 1.632697
v -0.037344 0.114738 1.489232
v -0.037344 0.114738 1.632697
v -0.037344 0.367874 1.632697
v -0.037344 0.367874 1.549994
v -0.037344 0.367874 1.591346
v -0.024089 0.367874 1.549994
v -0.024089 0.367874 1.632697
v -0.024089 0.367874 1.591346
v -0.037344 0.427742 1.591346
v -0.037344 0.427742 1.549994
v -0.024089 0.427741 1.632697
v -0.037344 0.427742 1.632697
v -0.024089 0.427741 1.549994
v -0.024089 0.427741 1.591346
v -0.054867 0.397808 1.632697
v -0.054867 0.397808 1.591346
v -0.041611 0.397808 1.549994
v -0.041611 0.397808 1.591346
v -0.054867 0.397808 1.549994
v -0.041611 0.397808 1.632697
v -0.012044 0.367873 1.549994
v -0.012044 0.367873 1.632697
v -0.007086 0.367873 1.591346
v -0.024089 0.367874 1.570670
v -0.024089 0.367874 1.612021
v -0.007086 0.367873 1.570670
v -0.007086 0.367873 1.612021
v -0.007086 0.406838 1.591346
v -0.007086 0.406838 1.570670
v -0.007086 0.406838 1.612021
v -0.037344 0.136088 1.609501
v -0.037344 0.136088 1.528989
v -0.037344 0.252921 1.549515
v -0.037344 0.252921 1.609501
v 0.000000 0.130206 1.489232
v 0.000000 0.130206 1.632697
v 0.000000 0.024581 1.489232
v 0.000000 0.024581 1.632697
v 0.037344 0.040050 1.489232
v 0.037344 0.040050 1.632697
v 0.052813 0.077394 1.489232
v 0.052813 0.077394 1.632697
v 0.037344 0.114738 1.489232
v 0.037344 0.114738 1.632697
v 0.000000 0.367873 1.549994
v 0.000000 0.367873 1.632697
v 0.037344 0.367874 1.632697
v 0.037344 0.367874 1.549994
v 0.000000 0.367873 1.591346
v 0.037344 0.367874 1.591346
v 0.024089 0.367874 1.549994
v 0.024089 0.367874 1.632697
v 0.024089 0.367874 1.591346
v 0.037344 0.427742 1.591346
v 0.037344 0.427742 1.549994
v 0.024089 0.427741 1.632697
v 0.037344 0.427742 1.632697
v 0.024089 0.427741 1.549994
v 0.024089 0.427741 1.591346
v 0.054867 0.397808 1.632697
v 0.054867 0.397808 1.591346
v 0.041611 0.397808 1.549994
v 0.041611 0.397808 1.591346
v 0.054867 0.397808 1.549994
v 0.041611 0.397808 1.632697
v 0.000000 0.367873 1.612022
v 0.012044 0.367873 1.549994
v 0.000000 0.367873 1.570670
v 0.012044 0.367873 1.632697
v 0.007086 0.367873 1.591346
v 0.024089 0.367874 1.570670
v 0.024089 0.367874 1.612021
v 0.007086 0.367873 1.570670
v 0.007086 0.367873 1.612021
v 0.000000 0.406838 1.570670
v 0.000000 0.406838 1.591346
v 0.007086 0.406838 1.591346
v 0.000000 0.406838 1.612022
v 0.007086 0.406838 1.570670
v 0.007086 0.406838 1.612021
v 0.000000 0.252921 1.609501
v 0.000000 0.252921 1.549515
v 0.000000 0.136088 1.528989
v 0.000000 0.136088 1.609501
v 0.037344 0.136088 1.609501
v 0.037344 0.136088 1.528989
v 0.037344 0.252921 1.549515
v 0.037344 0.252921 1.609501
vn -0.3827 -0.9239 0.0000
vn -0.9239 -0.3827 -0.0000
vn -0.9239 0.3827 0.0000
vn -0.0497 0.2400 -0.9695
vn 0.0000 1.0000 0.0000
vn -0.0000 -0.0000 1.0000
vn -1.0000 -0.0000 0.0000
vn 0.8630 -0.5052 0.0000
vn -0.8630 0.5052 0.0000
vn 0.0000 -0.0000 -1.0000
vn -0.8630 -0.5052 0.0000
vn 0.8630 0.5052 -0.0000
vn 0.0000 -1.0000 0.0000
vn 0.0000 -0.1730 0.9849
vn 0.3827 -0.9239 0.0000
vn 0.9239 -0.3827 -0.0000
vn 0.9239 0.3827 0.0000
vn 0.0497 0.2400 -0.9695
vn 1.0000 -0.0000 0.0000
usemtl None
s off
f 41//1 42//1 2//1 1//1
f 1//2 2//2 4//2 3//2
f 3//3 4//3 6//3 5//3
f 39//4 5//4 8//4 10//4 25//4 49//4
f 31//5 26//5 50//5 70//5
f 6//6 40//6 50//6 26//6 11//6 7//6
f 5//7 6//7 35//7 36//7
f 31//6 70//6 82//6 34//6
f 22//8 21//8 17//8 18//8
f 20//9 19//9 16//9 13//9
f 14//5 13//5 18//5 17//5
f 13//5 16//5 15//5 18//5
f 21//10 23//10 14//10 17//10
f 24//8 22//8 18//8 15//8
f 19//6 24//6 15//6 16//6
f 23//9 20//9 13//9 14//9
f 8//11 9//11 20//11 23//11
f 7//6 11//6 24//6 19//6
f 11//12 29//12 12//12 22//12 24//12
f 10//10 8//10 23//10 21//10
f 9//11 7//11 19//11 20//11
f 12//12 28//12 10//12 21//12 22//12
f 25//5 30//5 72//5 49//5
f 10//5 28//5 30//5 25//5
f 28//5 12//5 27//5 30//5
f 27//7 31//7 34//7 32//7
f 12//5 29//5 31//5 27//5
f 29//5 11//5 26//5 31//5
f 33//5 32//5 80//5 79//5
f 32//5 34//5 82//5 80//5
f 72//10 30//10 33//10 79//10
f 30//7 27//7 32//7 33//7
f 41//10 1//10 3//10 5//10 39//10
f 2//6 42//6 40//6 6//6 4//6
f 38//13 37//13 86//13 85//13
f 37//14 36//14 87//14 86//14
f 36//5 35//5 88//5 87//5
f 35//10 38//10 85//10 88//10
f 36//7 37//7 38//7 35//7 6//7 7//7 9//7 8//7 5//7
f 41//15 43//15 44//15 42//15
f 43//16 45//16 46//16 44//16
f 45//17 47//17 48//17 46//17
f 39//18 49//18 71//18 55//18 52//18 47//18
f 78//5 70//5 50//5 73//5
f 48//6 51//6 56//6 73//6 50//6 40//6
f 47//19 90//19 89//19 48//19
f 78//6 84//6 82//6 70//6
f 67//11 63//11 62//11 66//11
f 65//12 58//12 61//12 64//12
f 59//5 62//5 63//5 58//5
f 58//5 63//5 60//5 61//5
f 66//10 62//10 59//10 68//10
f 69//11 60//11 63//11 67//11
f 64//6 61//6 60//6 69//6
f 68//12 59//12 58//12 65//12
f 52//8 68//8 65//8 54//8
f 51//6 64//6 69//6 56//6
f 56//9 69//9 67//9 57//9 76//9
f 55//10 66//10 68//10 52//10
f 54//8 65//8 64//8 51//8
f 57//9 67//9 66//9 55//9 75//9
f 71//5 49//5 72//5 77//5
f 55//5 71//5 77//5 75//5
f 75//5 77//5 74//5 57//5
f 74//19 81//19 84//19 78//19
f 57//5 74//5 78//5 76//5
f 76//5 78//5 73//5 56//5
f 83//5 79//5 80//5 81//5
f 81//5 80//5 82//5 84//5
f 70//7 82//7 80//7 53//7
f 72//10 79//10 83//10 77//10
f 53//7 80//7 79//7 72//7
f 77//19 83//19 81//19 74//19
f 41//10 39//10 47//10 45//10 43//10
f 44//6 46//6 48//6 40//6 42//6
f 92//13 85//13 86//13 91//13
f 91//14 86//14 87//14 90//14
f 90//5 87//5 88//5 89//5
f 89//10 88//10 85//10 92//10
f 90//19 47//19 52//19 54//19 51//19 48//19 89//19 92//19 91//19
