# Blender v2.79 (sub 0) OBJ File: 'LKM45.blend'
# www.blender.org
mtllib LKM45_dust_cover.mtl
o Cylinder.005_Cylinder.006
v -0.050368 0.289870 -0.412469
v -0.035616 0.325486 -0.412469
v -0.082212 0.255968 -0.412469
v -0.082212 0.205821 -0.412469
v -0.050368 0.289870 -0.061066
v -0.035616 0.325486 -0.061066
v -0.082212 0.255968 -0.061066
v -0.050368 0.289870 0.359751
v -0.035616 0.325486 0.359751
v -0.050368 0.289870 -0.351333
v -0.082212 0.255968 -0.351333
v -0.035616 0.325486 -0.351333
v -0.035616 0.325486 -0.020239
v -0.050368 0.289870 -0.020239
v -0.050368 0.289870 -0.615216
v -0.035616 0.325486 -0.579600
v -0.082212 0.205821 -0.699265
v -0.082212 0.255968 -0.649118
v 0.000000 0.340238 -0.412469
v 0.000000 0.325486 -0.579600
v 0.050368 0.289870 -0.412469
v 0.000000 0.289870 -0.615216
v 0.035616 0.325486 -0.412469
v 0.000000 0.255968 -0.649118
v 0.082212 0.255968 -0.412469
v 0.000000 0.205821 -0.699265
v 0.082212 0.205821 -0.412469
v 0.000000 0.340238 -0.061066
v 0.050368 0.289870 0.101806
v 0.035616 0.325486 -0.061066
v 0.082212 0.255968 0.101806
v 0.000000 0.340238 0.359751
v 0.050368 0.289870 0.359751
v 0.035616 0.325486 0.359751
v 0.050368 0.289870 -0.351333
v 0.082212 0.255968 -0.351333
v 0.000000 0.340238 -0.351333
v 0.035616 0.325486 -0.351333
v 0.000000 0.340238 -0.020239
v 0.035616 0.325486 -0.020239
v 0.050368 0.289870 0.142634
v 0.050368 0.289870 -0.615216
v 0.035616 0.325486 -0.579600
v 0.000000 0.340238 -0.564848
v 0.082212 0.205821 -0.699265
v 0.082212 0.255968 -0.649118
v 0.082212 0.205821 -0.351333
v 0.082212 0.205821 0.101807
v 0.082212 0.255968 0.181295
v 0.082212 0.205821 0.134683
v 0.050368 0.289870 0.181295
v 0.082212 0.255968 0.359752
vn 0.0000 0.7071 -0.7071
vn -0.7289 0.6846 0.0000
vn -0.3827 0.9239 0.0000
vn -0.9239 0.3827 0.0000
vn -1.0000 0.0000 0.0000
vn 0.7289 0.6846 0.0000
vn 0.3827 0.9239 0.0000
vn 0.9239 0.3827 0.0000
vn 1.0000 -0.0000 0.0000
usemtl None
s off
f 24//1 18//1 15//1 22//1
f 20//1 16//1 44//1
f 10//2 11//2 7//2 5//2
f 37//3 12//3 6//3 28//3
f 12//4 10//4 5//4 6//4
f 39//3 13//3 9//3 32//3
f 13//4 14//4 8//4 9//4
f 3//5 18//5 17//5 4//5
f 1//2 15//2 18//2 3//2
f 2//4 1//4 10//4 12//4
f 19//3 2//3 12//3 37//3
f 1//2 3//2 11//2 10//2
f 3//5 4//5 11//5
f 6//4 5//4 14//4 13//4
f 28//3 6//3 13//3 39//3
f 5//2 7//2 14//2
f 44//3 16//3 2//3 19//3
f 24//1 26//1 17//1 18//1
f 16//4 15//4 1//4 2//4
f 22//1 15//1 16//1 20//1
f 24//1 22//1 42//1 46//1
f 20//1 44//1 43//1
f 35//6 29//6 31//6 36//6
f 37//7 28//7 30//7 38//7
f 38//8 30//8 29//8 35//8
f 39//7 32//7 34//7 40//7
f 40//8 34//8 33//8 51//8 41//8
f 25//9 27//9 45//9 46//9
f 21//6 25//6 46//6 42//6
f 23//8 38//8 35//8 21//8
f 19//7 37//7 38//7 23//7
f 21//6 35//6 36//6 25//6
f 47//9 27//9 25//9 36//9
f 30//8 40//8 41//8 29//8
f 28//7 39//7 40//7 30//7
f 31//6 29//6 51//6 49//6
f 44//7 19//7 23//7 43//7
f 24//1 46//1 45//1 26//1
f 43//8 23//8 21//8 42//8
f 22//1 20//1 43//1 42//1
f 31//9 48//9 47//9 36//9
f 48//9 31//9 49//9 50//9
f 33//6 52//6 49//6 51//6
