# Blender v2.79 (sub 0) OBJ File: 'LKM45.blend'
# www.blender.org
mtllib LKM45_flashhider.mtl
o Cylinder.012_Cylinder.009
v -0.033644 0.045473 1.656820
v -0.047580 0.079118 1.656820
v -0.033644 0.112762 1.656820
v -0.047580 0.079118 1.688370
v -0.033644 0.112762 1.688370
v -0.033644 0.045473 1.688370
v -0.033644 0.045473 1.709366
v -0.047580 0.079118 1.709366
v -0.033644 0.112762 1.709366
v -0.040711 0.079118 1.688370
v -0.028787 0.107905 1.688370
v -0.028787 0.107905 1.709366
v -0.040711 0.079118 1.709366
v -0.028787 0.050331 1.709366
v -0.028787 0.050331 1.688370
v -0.033644 0.045473 1.720695
v -0.047580 0.079118 1.720695
v -0.033644 0.112762 1.720695
v -0.047580 0.079118 1.760201
v -0.033644 0.112762 1.760201
v -0.033644 0.045473 1.760201
v -0.033644 0.045473 1.781196
v -0.047580 0.079118 1.781196
v -0.033644 0.112762 1.781196
v -0.040711 0.079118 1.760201
v -0.028787 0.107905 1.760201
v -0.028787 0.107905 1.781196
v -0.040711 0.079118 1.781196
v -0.028787 0.050331 1.781196
v -0.028787 0.050331 1.760201
v -0.033644 0.045473 1.799001
v -0.047580 0.079118 1.799001
v -0.033644 0.112762 1.799001
v -0.047580 0.079118 1.891628
v -0.016822 0.038505 1.799001
v -0.040612 0.062295 1.799001
v -0.040612 0.095940 1.799001
v -0.016822 0.119730 1.799001
v -0.016822 0.038505 1.891628
v -0.040612 0.062295 1.891628
v -0.040612 0.095940 1.891628
v -0.016822 0.119730 1.891628
v -0.033644 0.112762 1.808259
v -0.033644 0.045473 1.808259
v -0.047580 0.079118 1.808259
v -0.016822 0.038505 1.808259
v -0.040612 0.095940 1.808259
v -0.040612 0.062295 1.808259
v -0.016822 0.119730 1.808259
v 0.000000 0.126698 1.656820
v 0.000000 0.031537 1.656820
v 0.033644 0.045473 1.656820
v 0.047580 0.079118 1.656820
v 0.033644 0.112762 1.656820
v 0.047580 0.079118 1.688370
v 0.033644 0.112762 1.688370
v 0.033644 0.045473 1.688370
v 0.000000 0.126698 1.688370
v 0.000000 0.031537 1.688370
v 0.000000 0.126698 1.709366
v 0.000000 0.031537 1.709366
v 0.033644 0.045473 1.709366
v 0.047580 0.079118 1.709366
v 0.033644 0.112762 1.709366
v 0.040711 0.079118 1.688370
v 0.028787 0.107905 1.688370
v 0.000000 0.038407 1.709366
v 0.000000 0.038407 1.688370
v 0.000000 0.119829 1.688370
v 0.000000 0.119829 1.709366
v 0.028787 0.107905 1.709366
v 0.040711 0.079118 1.709366
v 0.028787 0.050331 1.709366
v 0.028787 0.050331 1.688370
v 0.000000 0.031537 1.720695
v 0.033644 0.045473 1.720695
v 0.047580 0.079118 1.720695
v 0.033644 0.112762 1.720695
v 0.000000 0.126698 1.720695
v 0.047580 0.079118 1.760201
v 0.033644 0.112762 1.760201
v 0.033644 0.045473 1.760201
v 0.000000 0.126698 1.760201
v 0.000000 0.031537 1.760201
v 0.000000 0.126698 1.781196
v 0.000000 0.031537 1.781196
v 0.033644 0.045473 1.781196
v 0.047580 0.079118 1.781196
v 0.033644 0.112762 1.781196
v 0.040711 0.079118 1.760201
v 0.028787 0.107905 1.760201
v 0.000000 0.038407 1.781196
v 0.000000 0.038407 1.760201
v 0.000000 0.119829 1.760201
v 0.000000 0.119829 1.781196
v 0.028787 0.107905 1.781196
v 0.040711 0.079118 1.781196
v 0.028787 0.050331 1.781196
v 0.028787 0.050331 1.760201
v 0.000000 0.031537 1.799001
v 0.033644 0.045473 1.799001
v 0.047580 0.079118 1.799001
v 0.033644 0.112762 1.799001
v 0.000000 0.126698 1.799001
v 0.047580 0.079118 1.891628
v 0.000000 0.031537 1.891631
v 0.000000 0.126698 1.891628
v 0.016822 0.038505 1.799001
v 0.040612 0.062295 1.799001
v 0.040612 0.095940 1.799001
v 0.016822 0.119730 1.799001
v 0.016822 0.038505 1.891628
v 0.040612 0.062295 1.891628
v 0.040612 0.095940 1.891628
v 0.016822 0.119730 1.891628
v 0.033644 0.112762 1.808259
v 0.000000 0.126698 1.808259
v 0.033644 0.045473 1.808259
v 0.047580 0.079118 1.808259
v 0.000000 0.031537 1.808259
v 0.016822 0.038505 1.808259
v 0.040612 0.095940 1.808259
v 0.040612 0.062295 1.808259
v 0.016822 0.119730 1.808259
v -0.025991 0.053127 1.656820
v -0.036756 0.079118 1.656820
v -0.025991 0.105108 1.656820
v -0.035926 0.079118 1.678910
v -0.025404 0.104521 1.678910
v -0.025404 0.053714 1.678910
v -0.025404 0.053714 1.718827
v -0.035926 0.079118 1.718827
v -0.025404 0.104521 1.718827
v -0.031358 0.079118 1.675716
v -0.022174 0.101291 1.675716
v -0.022174 0.101291 1.722020
v -0.031358 0.079118 1.722020
v -0.022174 0.056944 1.722020
v -0.022174 0.056944 1.675716
v -0.025991 0.053127 1.720695
v -0.036756 0.079118 1.720695
v -0.025991 0.105108 1.720695
v -0.035926 0.079118 1.750740
v -0.025404 0.104521 1.750740
v -0.025404 0.053714 1.750740
v -0.025404 0.053714 1.790657
v -0.035926 0.079118 1.790657
v -0.025404 0.104521 1.790657
v -0.031358 0.079118 1.747547
v -0.022174 0.101291 1.747547
v -0.022174 0.101291 1.793850
v -0.031358 0.079118 1.793850
v -0.022174 0.056944 1.793850
v -0.022174 0.056944 1.747547
v -0.025991 0.053127 1.799001
v -0.036756 0.079118 1.799001
v -0.025991 0.105108 1.799001
v -0.036756 0.079118 1.891628
v -0.012995 0.047744 1.799001
v -0.031374 0.066122 1.799001
v -0.031374 0.092113 1.799001
v -0.012995 0.110491 1.799001
v -0.012995 0.047744 1.891628
v -0.031374 0.066122 1.891628
v -0.031374 0.092113 1.891628
v -0.012995 0.110491 1.891628
v -0.025991 0.105108 1.808259
v -0.025991 0.053127 1.808259
v -0.036756 0.079118 1.808259
v -0.012995 0.047744 1.808259
v -0.031374 0.092113 1.808259
v -0.031374 0.066122 1.808259
v -0.012995 0.110491 1.808259
v 0.000000 0.115874 1.656820
v 0.000000 0.042361 1.656820
v 0.025991 0.053127 1.656820
v 0.036756 0.079118 1.656820
v 0.025991 0.105108 1.656820
v 0.035926 0.079118 1.678910
v 0.025404 0.104521 1.678910
v 0.025404 0.053714 1.678910
v 0.000000 0.115044 1.678910
v 0.000000 0.043192 1.678910
v 0.000000 0.115044 1.718827
v 0.000000 0.043192 1.718827
v 0.025404 0.053714 1.718827
v 0.035926 0.079118 1.718827
v 0.025404 0.104521 1.718827
v 0.031358 0.079118 1.675716
v 0.022174 0.101291 1.675716
v 0.000000 0.047759 1.722020
v 0.000000 0.047759 1.675716
v 0.000000 0.110476 1.675716
v 0.000000 0.110476 1.722020
v 0.022174 0.101291 1.722020
v 0.031358 0.079118 1.722020
v 0.022174 0.056944 1.722020
v 0.022174 0.056944 1.675716
v 0.000000 0.042361 1.720695
v 0.025991 0.053127 1.720695
v 0.036756 0.079118 1.720695
v 0.025991 0.105108 1.720695
v 0.000000 0.115874 1.720695
v 0.035926 0.079118 1.750740
v 0.025404 0.104521 1.750740
v 0.025404 0.053714 1.750740
v 0.000000 0.115044 1.750740
v 0.000000 0.043192 1.750740
v 0.000000 0.115044 1.790657
v 0.000000 0.043192 1.790657
v 0.025404 0.053714 1.790657
v 0.035926 0.079118 1.790657
v 0.025404 0.104521 1.790657
v 0.031358 0.079118 1.747547
v 0.022174 0.101291 1.747547
v 0.000000 0.047759 1.793850
v 0.000000 0.047759 1.747547
v 0.000000 0.110476 1.747547
v 0.000000 0.110476 1.793850
v 0.022174 0.101291 1.793850
v 0.031358 0.079118 1.793850
v 0.022174 0.056944 1.793850
v 0.022174 0.056944 1.747547
v 0.000000 0.042361 1.799001
v 0.025991 0.053127 1.799001
v 0.036756 0.079118 1.799001
v 0.025991 0.105108 1.799001
v 0.000000 0.115874 1.799001
v 0.036756 0.079118 1.891628
v 0.000000 0.042361 1.891631
v 0.000000 0.115874 1.891628
v 0.012995 0.047744 1.799001
v 0.031374 0.066122 1.799001
v 0.031374 0.092113 1.799001
v 0.012995 0.110491 1.799001
v 0.012995 0.047744 1.891628
v 0.031374 0.066122 1.891628
v 0.031374 0.092113 1.891628
v 0.012995 0.110491 1.891628
v 0.025991 0.105108 1.808259
v 0.000000 0.115874 1.808259
v 0.025991 0.053127 1.808259
v 0.036756 0.079118 1.808259
v 0.000000 0.042361 1.808259
v 0.012995 0.047744 1.808259
v 0.031374 0.092113 1.808259
v 0.031374 0.066122 1.808259
v 0.012995 0.110491 1.808259
vn -0.3827 0.9239 0.0000
vn -0.9239 0.3827 0.0000
vn -0.9239 -0.3827 0.0000
vn -0.3827 -0.9239 0.0000
vn 0.0000 0.0000 -1.0000
vn -0.0000 0.0000 1.0000
vn 0.3827 0.9239 0.0000
vn 0.9239 0.3827 0.0000
vn 0.9239 -0.3827 0.0000
vn 0.3827 -0.9239 0.0000
vn 0.3825 -0.9233 -0.0347
vn 0.9233 -0.3825 -0.0347
vn 0.9233 0.3825 -0.0347
vn 0.3825 0.9233 -0.0347
vn -0.2309 -0.5575 0.7974
vn -0.5575 -0.2309 0.7974
vn -0.5575 0.2309 0.7974
vn -0.2309 -0.5575 -0.7974
vn -0.2309 0.5575 0.7974
vn -0.5575 0.2309 -0.7974
vn -0.2309 0.5575 -0.7974
vn -0.5575 -0.2309 -0.7974
vn 0.3540 0.8546 0.3798
vn 0.8547 0.3540 0.3798
vn 0.8547 -0.3540 0.3798
vn 0.3540 -0.8547 0.3798
vn 0.3826 -0.9236 -0.0255
vn 0.9236 -0.3826 -0.0255
vn 0.9236 0.3826 -0.0255
vn 0.3826 0.9236 -0.0255
vn 0.3811 0.9200 0.0915
vn 0.9200 0.3811 0.0915
vn 0.9200 -0.3811 0.0915
vn 0.3811 -0.9200 0.0915
vn -0.3825 -0.9233 -0.0347
vn -0.9233 -0.3825 -0.0347
vn -0.9233 0.3825 -0.0347
vn -0.3825 0.9233 -0.0347
vn 0.2309 -0.5575 0.7974
vn 0.5575 -0.2309 0.7974
vn 0.5575 0.2309 0.7974
vn 0.2309 -0.5575 -0.7974
vn 0.2309 0.5575 0.7974
vn 0.5575 0.2309 -0.7974
vn 0.2309 0.5575 -0.7974
vn 0.5575 -0.2309 -0.7974
vn -0.3540 0.8546 0.3798
vn -0.8547 0.3540 0.3798
vn -0.8547 -0.3540 0.3798
vn -0.3540 -0.8547 0.3798
vn -0.3826 -0.9236 -0.0255
vn -0.9236 -0.3826 -0.0255
vn -0.9236 0.3826 -0.0255
vn -0.3826 0.9236 -0.0255
vn -0.3811 0.9200 0.0915
vn -0.9200 0.3811 0.0915
vn -0.9200 -0.3811 0.0915
vn -0.3811 -0.9200 0.0915
vn -0.0002 0.0000 1.0000
vn 0.0002 0.0000 1.0000
usemtl None
s off
f 3//1 5//1 58//1 50//1
f 2//2 4//2 5//2 3//2
f 1//3 6//3 4//3 2//3
f 51//4 59//4 6//4 1//4
f 61//5 7//5 14//5 67//5
f 7//5 8//5 13//5 14//5
f 8//5 9//5 12//5 13//5
f 6//6 59//6 68//6 15//6
f 9//5 60//5 70//5 12//5
f 11//1 12//1 70//1 69//1
f 10//2 13//2 12//2 11//2
f 15//3 14//3 13//3 10//3
f 68//4 67//4 14//4 15//4
f 5//6 4//6 10//6 11//6
f 58//6 5//6 11//6 69//6
f 4//6 6//6 15//6 10//6
f 61//4 75//4 16//4 7//4
f 7//3 16//3 17//3 8//3
f 8//2 17//2 18//2 9//2
f 9//1 18//1 79//1 60//1
f 18//1 20//1 83//1 79//1
f 17//2 19//2 20//2 18//2
f 16//3 21//3 19//3 17//3
f 75//4 84//4 21//4 16//4
f 86//5 22//5 29//5 92//5
f 22//5 23//5 28//5 29//5
f 23//5 24//5 27//5 28//5
f 21//6 84//6 93//6 30//6
f 24//5 85//5 95//5 27//5
f 26//1 27//1 95//1 94//1
f 25//2 28//2 27//2 26//2
f 30//3 29//3 28//3 25//3
f 93//4 92//4 29//4 30//4
f 20//6 19//6 25//6 26//6
f 83//6 20//6 26//6 94//6
f 19//6 21//6 30//6 25//6
f 86//4 100//4 35//4 31//4 22//4
f 22//3 31//3 36//3 32//3 23//3
f 23//2 32//2 37//2 33//2 24//2
f 24//1 33//1 38//1 104//1 85//1
f 31//4 35//4 46//4 44//4
f 35//4 100//4 120//4 46//4
f 39//4 46//4 120//4 106//4
f 33//2 37//2 47//2 43//2
f 37//2 32//2 45//2 47//2
f 45//3 48//3 40//3 34//3
f 32//3 36//3 48//3 45//3
f 36//3 31//3 44//3 48//3
f 117//1 49//1 42//1 107//1
f 104//1 38//1 49//1 117//1
f 38//1 33//1 43//1 49//1
f 34//2 41//2 47//2 45//2
f 54//7 50//7 58//7 56//7
f 53//8 54//8 56//8 55//8
f 52//9 53//9 55//9 57//9
f 51//10 52//10 57//10 59//10
f 61//5 67//5 73//5 62//5
f 62//5 73//5 72//5 63//5
f 63//5 72//5 71//5 64//5
f 57//6 74//6 68//6 59//6
f 64//5 71//5 70//5 60//5
f 66//7 69//7 70//7 71//7
f 65//8 66//8 71//8 72//8
f 74//9 65//9 72//9 73//9
f 68//10 74//10 73//10 67//10
f 56//6 66//6 65//6 55//6
f 58//6 69//6 66//6 56//6
f 55//6 65//6 74//6 57//6
f 61//10 62//10 76//10 75//10
f 62//9 63//9 77//9 76//9
f 63//8 64//8 78//8 77//8
f 64//7 60//7 79//7 78//7
f 78//7 79//7 83//7 81//7
f 77//8 78//8 81//8 80//8
f 76//9 77//9 80//9 82//9
f 75//10 76//10 82//10 84//10
f 86//5 92//5 98//5 87//5
f 87//5 98//5 97//5 88//5
f 88//5 97//5 96//5 89//5
f 82//6 99//6 93//6 84//6
f 89//5 96//5 95//5 85//5
f 91//7 94//7 95//7 96//7
f 90//8 91//8 96//8 97//8
f 99//9 90//9 97//9 98//9
f 93//10 99//10 98//10 92//10
f 81//6 91//6 90//6 80//6
f 83//6 94//6 91//6 81//6
f 80//6 90//6 99//6 82//6
f 86//10 87//10 101//10 108//10 100//10
f 87//9 88//9 102//9 109//9 101//9
f 88//8 89//8 103//8 110//8 102//8
f 89//7 85//7 104//7 111//7 103//7
f 101//10 118//10 121//10 108//10
f 108//10 121//10 120//10 100//10
f 112//10 106//10 120//10 121//10
f 103//8 116//8 122//8 110//8
f 110//8 122//8 119//8 102//8
f 119//9 105//9 113//9 123//9
f 102//9 119//9 123//9 109//9
f 109//9 123//9 118//9 101//9
f 117//7 107//7 115//7 124//7
f 104//7 117//7 124//7 111//7
f 111//7 124//7 116//7 103//7
f 105//8 119//8 122//8 114//8
f 127//11 174//11 182//11 129//11
f 126//12 127//12 129//12 128//12
f 125//13 126//13 128//13 130//13
f 175//14 125//14 130//14 183//14
f 185//15 191//15 138//15 131//15
f 131//16 138//16 137//16 132//16
f 132//17 137//17 136//17 133//17
f 130//18 139//18 192//18 183//18
f 133//19 136//19 194//19 184//19
f 135//10 193//10 194//10 136//10
f 134//9 135//9 136//9 137//9
f 139//8 134//8 137//8 138//8
f 192//7 139//7 138//7 191//7
f 129//20 135//20 134//20 128//20
f 182//21 193//21 135//21 129//21
f 128//22 134//22 139//22 130//22
f 185//23 131//23 140//23 199//23
f 131//24 132//24 141//24 140//24
f 132//25 133//25 142//25 141//25
f 133//26 184//26 203//26 142//26
f 142//27 203//27 207//27 144//27
f 141//28 142//28 144//28 143//28
f 140//29 141//29 143//29 145//29
f 199//30 140//30 145//30 208//30
f 210//15 216//15 153//15 146//15
f 146//16 153//16 152//16 147//16
f 147//17 152//17 151//17 148//17
f 145//18 154//18 217//18 208//18
f 148//19 151//19 219//19 209//19
f 150//10 218//10 219//10 151//10
f 149//9 150//9 151//9 152//9
f 154//8 149//8 152//8 153//8
f 217//7 154//7 153//7 216//7
f 144//20 150//20 149//20 143//20
f 207//21 218//21 150//21 144//21
f 143//22 149//22 154//22 145//22
f 210//31 146//31 155//31 159//31 224//31
f 146//32 147//32 156//32 160//32 155//32
f 147//33 148//33 157//33 161//33 156//33
f 148//34 209//34 228//34 162//34 157//34
f 155//7 168//7 170//7 159//7
f 159//7 170//7 244//7 224//7
f 163//7 230//7 244//7 170//7
f 157//9 167//9 171//9 161//9
f 161//9 171//9 169//9 156//9
f 169//8 158//8 164//8 172//8
f 156//8 169//8 172//8 160//8
f 160//8 172//8 168//8 155//8
f 241//10 231//10 166//10 173//10
f 228//10 241//10 173//10 162//10
f 162//10 173//10 167//10 157//10
f 158//9 169//9 171//9 165//9
f 178//35 180//35 182//35 174//35
f 177//36 179//36 180//36 178//36
f 176//37 181//37 179//37 177//37
f 175//38 183//38 181//38 176//38
f 185//39 186//39 197//39 191//39
f 186//40 187//40 196//40 197//40
f 187//41 188//41 195//41 196//41
f 181//42 183//42 192//42 198//42
f 188//43 184//43 194//43 195//43
f 190//4 195//4 194//4 193//4
f 189//3 196//3 195//3 190//3
f 198//2 197//2 196//2 189//2
f 192//1 191//1 197//1 198//1
f 180//44 179//44 189//44 190//44
f 182//45 180//45 190//45 193//45
f 179//46 181//46 198//46 189//46
f 185//47 199//47 200//47 186//47
f 186//48 200//48 201//48 187//48
f 187//49 201//49 202//49 188//49
f 188//50 202//50 203//50 184//50
f 202//51 205//51 207//51 203//51
f 201//52 204//52 205//52 202//52
f 200//53 206//53 204//53 201//53
f 199//54 208//54 206//54 200//54
f 210//39 211//39 222//39 216//39
f 211//40 212//40 221//40 222//40
f 212//41 213//41 220//41 221//41
f 206//42 208//42 217//42 223//42
f 213//43 209//43 219//43 220//43
f 215//4 220//4 219//4 218//4
f 214//3 221//3 220//3 215//3
f 223//2 222//2 221//2 214//2
f 217//1 216//1 222//1 223//1
f 205//44 204//44 214//44 215//44
f 207//45 205//45 215//45 218//45
f 204//46 206//46 223//46 214//46
f 210//55 224//55 232//55 225//55 211//55
f 211//56 225//56 233//56 226//56 212//56
f 212//57 226//57 234//57 227//57 213//57
f 213//58 227//58 235//58 228//58 209//58
f 225//1 232//1 245//1 242//1
f 232//1 224//1 244//1 245//1
f 236//1 245//1 244//1 230//1
f 227//3 234//3 246//3 240//3
f 234//3 226//3 243//3 246//3
f 243//2 247//2 237//2 229//2
f 226//2 233//2 247//2 243//2
f 233//2 225//2 242//2 247//2
f 241//4 248//4 239//4 231//4
f 228//4 235//4 248//4 241//4
f 235//4 227//4 240//4 248//4
f 229//3 238//3 246//3 243//3
f 51//5 1//5 125//5 175//5
f 1//5 2//5 126//5 125//5
f 2//5 3//5 127//5 126//5
f 3//5 50//5 174//5 127//5
f 34//6 40//6 164//6 158//6
f 39//59 106//59 230//59 163//59
f 107//6 42//6 166//6 231//6
f 46//2 39//2 163//2 170//2
f 44//6 46//6 170//6 168//6
f 47//7 41//7 165//7 171//7
f 43//6 47//6 171//6 167//6
f 40//10 48//10 172//10 164//10
f 48//6 44//6 168//6 172//6
f 42//3 49//3 173//3 166//3
f 49//6 43//6 167//6 173//6
f 41//6 34//6 158//6 165//6
f 52//5 51//5 175//5 176//5
f 53//5 52//5 176//5 177//5
f 54//5 53//5 177//5 178//5
f 50//5 54//5 178//5 174//5
f 113//6 105//6 229//6 237//6
f 106//60 112//60 236//60 230//60
f 115//6 107//6 231//6 239//6
f 112//8 121//8 245//8 236//8
f 121//6 118//6 242//6 245//6
f 114//1 122//1 246//1 238//1
f 122//6 116//6 240//6 246//6
f 123//4 113//4 237//4 247//4
f 118//6 123//6 247//6 242//6
f 124//9 115//9 239//9 248//9
f 116//6 124//6 248//6 240//6
f 105//6 114//6 238//6 229//6
