# Blender v2.79 (sub 0) OBJ File: 'MK68.blend'
# www.blender.org
mtllib MK68_detonator.mtl
o Cube.016_Cube.007
v -0.282887 0.399877 0.159642
v -0.282887 0.617613 0.159642
v -0.282887 0.399877 -0.159642
v -0.282887 0.617613 -0.159642
v -0.244796 0.399877 0.159642
v -0.244796 0.617613 0.159642
v -0.244796 0.399877 -0.159642
v -0.244796 0.617613 -0.159642
v -0.246399 -0.227818 0.196685
v -0.246399 0.649905 0.196685
v -0.246399 -0.227818 -0.196685
v -0.246399 0.649905 -0.196685
v -0.025531 -0.227818 0.196685
v -0.025531 0.649905 0.196685
v -0.025531 -0.227818 -0.196685
v -0.025531 0.649905 -0.196685
v 0.122822 0.405542 -0.219047
v 0.122822 0.405542 -0.139115
v 0.099365 0.333349 -0.219047
v 0.099365 0.333349 -0.139115
v 0.037954 0.288732 -0.219047
v 0.037954 0.288732 -0.139115
v -0.037954 0.288732 -0.219047
v -0.037954 0.288732 -0.139115
v -0.099365 0.333349 -0.219047
v -0.099365 0.333349 -0.139115
v -0.122822 0.405542 -0.219047
v -0.122822 0.405542 -0.139115
v -0.099365 0.477735 -0.219047
v -0.099365 0.477735 -0.139115
v -0.037954 0.522353 -0.219047
v -0.037954 0.522353 -0.139115
v 0.037954 0.522353 -0.219047
v 0.037954 0.522353 -0.139115
v 0.099365 0.477735 -0.219047
v 0.099365 0.477735 -0.139115
vt 0.919369 0.235775
vt 0.775944 0.235775
vt 0.775944 0.092350
vt 0.919369 0.092350
vt 0.919369 0.235775
vt 0.775944 0.235775
vt 0.775944 0.092350
vt 0.919369 0.092350
vt 0.919369 0.235775
vt 0.775944 0.235775
vt 0.775944 0.092350
vt 0.919369 0.092350
vt 0.919369 0.235775
vt 0.775944 0.235775
vt 0.775944 0.092350
vt 0.919369 0.092350
vt 0.775944 0.235775
vt 0.775944 0.092350
vt 0.919369 0.235775
vt 0.919369 0.092350
vt 0.434822 0.790290
vt 0.596428 0.790290
vt 0.596428 0.951897
vt 0.434822 0.951897
vt 0.434822 0.790290
vt 0.596428 0.790290
vt 0.596428 0.951897
vt 0.434822 0.951897
vt 0.434822 0.790290
vt 0.596428 0.790290
vt 0.596428 0.951897
vt 0.434822 0.951897
vt 0.434822 0.790290
vt 0.596428 0.790290
vt 0.596428 0.951897
vt 0.434822 0.951897
vt 0.596428 0.790290
vt 0.596428 0.951897
vt 0.434822 0.790290
vt 0.434822 0.951897
vt 0.112671 0.030639
vt 0.363892 0.030639
vt 0.363892 0.281861
vt 0.112671 0.281861
vt 0.112671 0.030639
vt 0.363892 0.030639
vt 0.363892 0.281861
vt 0.112671 0.281861
vt 0.112671 0.030639
vt 0.363892 0.030639
vt 0.363892 0.281861
vt 0.112671 0.281861
vt 0.112671 0.030639
vt 0.363892 0.030639
vt 0.363892 0.281861
vt 0.112671 0.281861
vt 0.112671 0.030639
vt 0.363892 0.030639
vt 0.363892 0.281861
vt 0.112671 0.281861
vt 0.112671 0.030639
vt 0.363892 0.030639
vt 0.363892 0.281861
vt 0.112671 0.281861
vt 0.112671 0.030639
vt 0.363892 0.030639
vt 0.363892 0.281861
vt 0.112671 0.281861
vt 0.112671 0.030639
vt 0.363892 0.030639
vt 0.363892 0.281861
vt 0.112671 0.281861
vt 0.238281 0.281861
vt 0.312113 0.257871
vt 0.357744 0.195066
vt 0.357744 0.117434
vt 0.312113 0.054629
vt 0.238281 0.030639
vt 0.164449 0.054629
vt 0.118818 0.117434
vt 0.118818 0.195066
vt 0.164449 0.257871
vt 0.112671 0.030639
vt 0.363892 0.030639
vt 0.363892 0.281861
vt 0.112671 0.281861
vt 0.112671 0.030639
vt 0.363892 0.030639
vt 0.363892 0.281861
vt 0.112671 0.281861
vt 0.238281 0.281861
vt 0.312113 0.257871
vt 0.357744 0.195066
vt 0.357744 0.117434
vt 0.312113 0.054629
vt 0.238281 0.030639
vt 0.164449 0.054629
vt 0.118818 0.117434
vt 0.118818 0.195066
vt 0.164449 0.257871
vn -1.0000 0.0000 0.0000
vn 0.0000 0.0000 -1.0000
vn 1.0000 0.0000 0.0000
vn 0.0000 0.0000 1.0000
vn 0.0000 -1.0000 0.0000
vn 0.0000 1.0000 0.0000
vn 0.9511 -0.3090 0.0000
vn 0.5878 -0.8090 0.0000
vn -0.5878 -0.8090 0.0000
vn -0.9511 -0.3090 -0.0000
vn -0.9511 0.3090 0.0000
vn -0.5878 0.8090 0.0000
vn 0.5878 0.8090 0.0000
vn 0.9511 0.3090 0.0000
usemtl None
s off
f 1/1/1 2/2/1 4/3/1 3/4/1
f 3/5/2 4/6/2 8/7/2 7/8/2
f 7/9/3 8/10/3 6/11/3 5/12/3
f 5/13/4 6/14/4 2/15/4 1/16/4
f 3/5/5 7/17/5 5/18/5 1/16/5
f 8/19/6 4/6/6 2/15/6 6/20/6
f 9/21/1 10/22/1 12/23/1 11/24/1
f 11/25/2 12/26/2 16/27/2 15/28/2
f 15/29/3 16/30/3 14/31/3 13/32/3
f 13/33/4 14/34/4 10/35/4 9/36/4
f 11/25/5 15/37/5 13/38/5 9/36/5
f 16/39/6 12/26/6 10/35/6 14/40/6
f 17/41/7 18/42/7 20/43/7 19/44/7
f 19/45/8 20/46/8 22/47/8 21/48/8
f 21/49/5 22/50/5 24/51/5 23/52/5
f 23/53/9 24/54/9 26/55/9 25/56/9
f 25/57/10 26/58/10 28/59/10 27/60/10
f 27/61/11 28/62/11 30/63/11 29/64/11
f 29/65/12 30/66/12 32/67/12 31/68/12
f 31/69/6 32/70/6 34/71/6 33/72/6
f 20/73/4 18/74/4 36/75/4 34/76/4 32/77/4 30/78/4 28/79/4 26/80/4 24/81/4 22/82/4
f 33/83/13 34/84/13 36/85/13 35/86/13
f 35/87/14 36/88/14 18/89/14 17/90/14
f 17/91/2 19/92/2 21/93/2 23/94/2 25/95/2 27/96/2 29/97/2 31/98/2 33/99/2 35/100/2
