# Blender v2.79 (sub 0) OBJ File: 'MK68.blend'
# www.blender.org
mtllib MK68_pin.mtl
o Plane.005_Plane.010
v 0.024141 1.181485 0.358711
v 0.052881 1.164892 0.358711
v 0.052881 1.131706 0.358711
v 0.024141 1.115113 0.358711
v -0.004599 1.131706 0.358711
v -0.004599 1.164892 0.358711
v 0.024141 1.181485 0.000000
v 0.024141 1.181485 -0.256156
v 0.052881 1.164892 0.000000
v 0.052881 1.164892 -0.256156
v 0.052881 1.131706 0.000000
v 0.052881 1.131706 -0.256156
v 0.024141 1.115113 0.000000
v 0.024141 1.115113 -0.256156
v -0.004599 1.131706 0.000000
v -0.004599 1.131706 -0.256156
v -0.004599 1.164892 0.000000
v -0.004599 1.164892 -0.256156
v 0.278564 0.950781 0.452531
v 0.261953 0.960704 0.479536
v 0.228732 0.960704 0.479536
v 0.212121 0.950781 0.452531
v 0.228732 0.940857 0.425526
v 0.261953 0.940857 0.425526
v 0.244441 1.070314 0.408605
v 0.230056 1.072443 0.438475
v 0.201285 1.056851 0.444204
v 0.186900 1.039132 0.420064
v 0.201285 1.037004 0.390194
v 0.230056 1.052595 0.384465
v 0.151215 1.157819 0.376449
v 0.142910 1.154240 0.408416
v 0.126299 1.127235 0.418340
v 0.117994 1.103809 0.396297
v 0.126299 1.107388 0.364330
v 0.142910 1.134393 0.354406
v 0.023866 1.189848 0.364679
v 0.023866 1.184180 0.397414
v 0.023866 1.152997 0.408873
v 0.023866 1.127483 0.387597
v 0.023866 1.133150 0.354863
v 0.023866 1.164333 0.343404
v -0.103482 1.157819 0.376449
v -0.095177 1.154240 0.408416
v -0.078566 1.127235 0.418340
v -0.070261 1.103809 0.396297
v -0.078566 1.107388 0.364330
v -0.095177 1.134393 0.354406
v -0.196708 1.070314 0.408605
v -0.182323 1.072443 0.438475
v -0.153552 1.056851 0.444204
v -0.139167 1.039132 0.420064
v -0.153552 1.037004 0.390194
v -0.182323 1.052595 0.384465
v -0.230831 0.950781 0.452531
v -0.214221 0.960704 0.479536
v -0.180999 0.960704 0.479536
v -0.164388 0.950781 0.452531
v -0.180999 0.940857 0.425526
v -0.214221 0.940857 0.425526
v -0.196708 0.831247 0.496456
v -0.182323 0.848967 0.520596
v -0.153552 0.864558 0.514867
v -0.139167 0.862430 0.484997
v -0.153552 0.844711 0.460857
v -0.182323 0.829120 0.466586
v -0.103482 0.743743 0.528612
v -0.095177 0.767169 0.550655
v -0.078566 0.794174 0.540731
v -0.070261 0.797753 0.508765
v -0.078566 0.774327 0.486721
v -0.095177 0.747321 0.496645
v 0.023866 0.711714 0.540382
v 0.023866 0.737229 0.561657
v 0.023866 0.768411 0.550198
v 0.023866 0.774079 0.517464
v 0.023866 0.748564 0.496188
v 0.023866 0.717381 0.507647
v 0.151215 0.743743 0.528612
v 0.142910 0.767169 0.550655
v 0.126299 0.794174 0.540731
v 0.117994 0.797753 0.508765
v 0.126299 0.774327 0.486721
v 0.142910 0.747321 0.496645
v 0.244441 0.831247 0.496456
v 0.230056 0.848967 0.520596
v 0.201285 0.864558 0.514867
v 0.186900 0.862430 0.484997
v 0.201285 0.844711 0.460857
v 0.230056 0.829120 0.466586
vt 0.150723 0.850038
vt 0.243483 0.773144
vt 0.198534 0.769398
vt 0.218552 0.887738
vt 0.177385 0.809011
vt 0.286493 0.849468
vt 0.193608 0.851114
vt 0.286493 0.774267
vt 0.238593 0.852849
vt 0.218816 0.735584
vt 0.262678 0.814373
vt 0.150890 0.772867
vt 0.440797 0.860220
vt 0.436431 0.863018
vt 0.697058 0.877503
vt 0.684898 0.873569
vt 0.422953 0.863018
vt 0.683980 0.879621
vt 0.401373 0.857919
vt 0.675252 0.877985
vt 0.422921 0.855543
vt 0.673056 0.875608
vt 0.676196 0.873759
vt 0.436191 0.857005
vt 0.595023 0.313207
vt 0.406109 0.313207
vt 0.406109 0.124293
vt 0.595023 0.124293
vt 0.595023 0.313207
vt 0.406109 0.313207
vt 0.406109 0.124293
vt 0.595023 0.124293
vt 0.595023 0.313207
vt 0.406109 0.313207
vt 0.406109 0.124293
vt 0.595023 0.124293
vt 0.595023 0.313207
vt 0.406109 0.313207
vt 0.406109 0.124293
vt 0.595023 0.124293
vt 0.595023 0.313207
vt 0.406109 0.313207
vt 0.406109 0.124293
vt 0.595023 0.124293
vt 0.595023 0.313207
vt 0.406109 0.313207
vt 0.406109 0.124293
vt 0.595023 0.124293
vt 0.595023 0.313207
vt 0.406109 0.313207
vt 0.406109 0.124293
vt 0.595023 0.124293
vt 0.595023 0.313207
vt 0.406109 0.313207
vt 0.406109 0.124293
vt 0.595023 0.124293
vt 0.595023 0.313207
vt 0.406109 0.313207
vt 0.406109 0.124293
vt 0.595023 0.124293
vt 0.595023 0.313207
vt 0.406109 0.313207
vt 0.406109 0.124293
vt 0.595023 0.124293
vt 0.595023 0.313207
vt 0.406109 0.313207
vt 0.406109 0.124293
vt 0.595023 0.124293
vt 0.595023 0.313207
vt 0.406109 0.313207
vt 0.406109 0.124293
vt 0.595023 0.124293
vt 0.595023 0.313207
vt 0.406109 0.313207
vt 0.406109 0.124293
vt 0.595023 0.124293
vt 0.595023 0.313207
vt 0.406109 0.313207
vt 0.406109 0.124293
vt 0.595023 0.124293
vt 0.595023 0.313207
vt 0.406109 0.313207
vt 0.406109 0.124293
vt 0.595023 0.124293
vt 0.595023 0.313207
vt 0.406109 0.313207
vt 0.406109 0.124293
vt 0.595023 0.124293
vt 0.595023 0.313207
vt 0.406109 0.313207
vt 0.406109 0.124293
vt 0.595023 0.124293
vt 0.595023 0.313207
vt 0.406109 0.313207
vt 0.406109 0.124293
vt 0.595023 0.124293
vt 0.595023 0.313207
vt 0.406109 0.313207
vt 0.406109 0.124293
vt 0.595023 0.124293
vt 0.595023 0.313207
vt 0.406109 0.313207
vt 0.406109 0.124293
vt 0.595023 0.124293
vt 0.595023 0.313207
vt 0.406109 0.313207
vt 0.406109 0.124293
vt 0.595023 0.124293
vt 0.595023 0.313207
vt 0.406109 0.313207
vt 0.406109 0.124293
vt 0.595023 0.124293
vt 0.595023 0.313207
vt 0.406109 0.313207
vt 0.406109 0.124293
vt 0.595023 0.124293
vt 0.595023 0.313207
vt 0.406109 0.313207
vt 0.406109 0.124293
vt 0.595023 0.124293
vt 0.595023 0.313207
vt 0.406109 0.313207
vt 0.406109 0.124293
vt 0.595023 0.124293
vt 0.595023 0.313207
vt 0.406109 0.313207
vt 0.406109 0.124293
vt 0.595023 0.124293
vt 0.595023 0.313207
vt 0.406109 0.313207
vt 0.406109 0.124293
vt 0.595023 0.124293
vt 0.595023 0.313207
vt 0.406109 0.313207
vt 0.406109 0.124293
vt 0.595023 0.124293
vt 0.595023 0.313207
vt 0.406109 0.313207
vt 0.406109 0.124293
vt 0.595023 0.124293
vt 0.595023 0.313207
vt 0.406109 0.313207
vt 0.406109 0.124293
vt 0.595023 0.124293
vt 0.595023 0.313207
vt 0.406109 0.313207
vt 0.406109 0.124293
vt 0.595023 0.124293
vt 0.595023 0.313207
vt 0.406109 0.313207
vt 0.406109 0.124293
vt 0.595023 0.124293
vt 0.595023 0.313207
vt 0.406109 0.313207
vt 0.406109 0.124293
vt 0.595023 0.124293
vt 0.595023 0.313207
vt 0.406109 0.313207
vt 0.406109 0.124293
vt 0.595023 0.124293
vt 0.595023 0.313207
vt 0.406109 0.313207
vt 0.406109 0.124293
vt 0.595023 0.124293
vt 0.595023 0.313207
vt 0.406109 0.313207
vt 0.406109 0.124293
vt 0.595023 0.124293
vt 0.595023 0.313207
vt 0.406109 0.313207
vt 0.406109 0.124293
vt 0.595023 0.124293
vt 0.595023 0.313207
vt 0.406109 0.313207
vt 0.406109 0.124293
vt 0.595023 0.124293
vt 0.595023 0.313207
vt 0.406109 0.313207
vt 0.406109 0.124293
vt 0.595023 0.124293
vt 0.595023 0.313207
vt 0.406109 0.313207
vt 0.406109 0.124293
vt 0.595023 0.124293
vt 0.595023 0.313207
vt 0.406109 0.313207
vt 0.406109 0.124293
vt 0.595023 0.124293
vt 0.595023 0.313207
vt 0.406109 0.313207
vt 0.406109 0.124293
vt 0.595023 0.124293
vt 0.595023 0.313207
vt 0.406109 0.313207
vt 0.406109 0.124293
vt 0.595023 0.124293
vt 0.595023 0.313207
vt 0.406109 0.313207
vt 0.406109 0.124293
vt 0.595023 0.124293
vt 0.595023 0.313207
vt 0.406109 0.313207
vt 0.406109 0.124293
vt 0.595023 0.124293
vt 0.595023 0.313207
vt 0.406109 0.313207
vt 0.406109 0.124293
vt 0.595023 0.124293
vt 0.595023 0.313207
vt 0.406109 0.313207
vt 0.406109 0.124293
vt 0.595023 0.124293
vt 0.595023 0.313207
vt 0.406109 0.313207
vt 0.406109 0.124293
vt 0.595023 0.124293
vt 0.595023 0.313207
vt 0.406109 0.313207
vt 0.406109 0.124293
vt 0.595023 0.124293
vt 0.595023 0.313207
vt 0.406109 0.313207
vt 0.406109 0.124293
vt 0.595023 0.124293
vt 0.595023 0.313207
vt 0.406109 0.313207
vt 0.406109 0.124293
vt 0.595023 0.124293
vt 0.595023 0.313207
vt 0.406109 0.313207
vt 0.406109 0.124293
vt 0.595023 0.124293
vt 0.595023 0.313207
vt 0.406109 0.313207
vt 0.406109 0.124293
vt 0.595023 0.124293
vt 0.595023 0.313207
vt 0.406109 0.313207
vt 0.406109 0.124293
vt 0.595023 0.124293
vt 0.595023 0.313207
vt 0.406109 0.313207
vt 0.406109 0.124293
vt 0.595023 0.124293
vt 0.595023 0.313207
vt 0.406109 0.313207
vt 0.406109 0.124293
vt 0.595023 0.124293
vt 0.595023 0.313207
vt 0.406109 0.313207
vt 0.406109 0.124293
vt 0.595023 0.124293
vt 0.595023 0.313207
vt 0.406109 0.313207
vt 0.406109 0.124293
vt 0.595023 0.124293
vt 0.595023 0.313207
vt 0.406109 0.313207
vt 0.406109 0.124293
vt 0.595023 0.124293
vt 0.595023 0.313207
vt 0.406109 0.313207
vt 0.406109 0.124293
vt 0.595023 0.124293
vt 0.595023 0.313207
vt 0.406109 0.313207
vt 0.406109 0.124293
vt 0.595023 0.124293
vt 0.595023 0.313207
vt 0.406109 0.313207
vt 0.406109 0.124293
vt 0.595023 0.124293
vt 0.595023 0.313207
vt 0.406109 0.313207
vt 0.406109 0.124293
vt 0.595023 0.124293
vt 0.595023 0.313207
vt 0.406109 0.313207
vt 0.406109 0.124293
vt 0.595023 0.124293
vt 0.595023 0.313207
vt 0.406109 0.313207
vt 0.406109 0.124293
vt 0.595023 0.124293
vt 0.595023 0.313207
vt 0.406109 0.313207
vt 0.406109 0.124293
vt 0.595023 0.124293
vt 0.595023 0.313207
vt 0.406109 0.313207
vt 0.406109 0.124293
vt 0.595023 0.124293
vt 0.595023 0.313207
vt 0.406109 0.313207
vt 0.406109 0.124293
vt 0.595023 0.124293
vt 0.595023 0.313207
vt 0.406109 0.313207
vt 0.406109 0.124293
vt 0.595023 0.124293
vt 0.595023 0.313207
vt 0.406109 0.313207
vt 0.406109 0.124293
vt 0.595023 0.124293
vt 0.595023 0.313207
vt 0.406109 0.313207
vt 0.406109 0.124293
vt 0.595023 0.124293
vt 0.595023 0.313207
vt 0.406109 0.313207
vt 0.406109 0.124293
vt 0.595023 0.124293
vn 0.5000 0.8660 0.0000
vn 1.0000 -0.0000 0.0000
vn 0.5000 -0.8660 0.0000
vn -0.5000 -0.8660 0.0000
vn -1.0000 0.0000 0.0000
vn -0.5000 0.8660 0.0000
vn -0.0000 0.0000 -1.0000
vn 0.8436 0.3802 0.3792
vn -0.0000 0.3449 0.9386
vn -0.8436 -0.0442 0.5351
vn -0.8436 -0.3802 -0.3792
vn 0.0000 -0.3449 -0.9386
vn 0.8436 0.0442 -0.5351
vn 0.6176 0.7477 0.2442
vn -0.6176 -0.4117 0.6702
vn -0.6176 -0.7477 -0.2442
vn 0.6176 0.4117 -0.6702
vn 0.2260 0.9598 0.1662
vn -0.2260 -0.6238 0.7481
vn -0.2260 -0.9598 -0.1662
vn 0.2260 0.6238 -0.7481
vn -0.2260 0.9598 0.1662
vn 0.2260 -0.6238 0.7481
vn 0.2260 -0.9598 -0.1662
vn -0.2260 0.6238 -0.7481
vn -0.6176 0.7477 0.2442
vn 0.6176 -0.4117 0.6702
vn 0.6176 -0.7477 -0.2442
vn -0.6176 0.4117 -0.6702
vn -0.8436 0.3802 0.3792
vn 0.8436 -0.0442 0.5351
vn 0.8436 -0.3802 -0.3792
vn -0.8436 0.0442 -0.5351
vn 0.0000 0.0000 1.0000
usemtl None
s off
f 7/1/1 1/2/1 2/3/1 9/4/1
f 9/4/2 2/3/2 3/5/2 11/6/2
f 11/6/3 3/5/3 4/7/3 13/8/3
f 13/8/4 4/7/4 5/9/4 15/10/4
f 15/10/5 5/9/5 6/11/5 17/12/5
f 17/12/6 6/11/6 1/2/6 7/1/6
f 7/13/1 9/14/1 10/15/1 8/16/1
f 9/14/2 11/17/2 12/18/2 10/15/2
f 11/17/3 13/19/3 14/20/3 12/18/3
f 13/19/4 15/21/4 16/22/4 14/20/4
f 10/15/7 12/18/7 14/20/7 16/22/7 18/23/7 8/16/7
f 15/21/5 17/24/5 18/23/5 16/22/5
f 17/24/6 7/13/6 8/16/6 18/23/6
f 19/25/8 25/26/8 26/27/8 20/28/8
f 20/29/9 26/30/9 27/31/9 21/32/9
f 21/33/10 27/34/10 28/35/10 22/36/10
f 22/37/11 28/38/11 29/39/11 23/40/11
f 23/41/12 29/42/12 30/43/12 24/44/12
f 24/45/13 30/46/13 25/47/13 19/48/13
f 25/49/14 31/50/14 32/51/14 26/52/14
f 26/53/9 32/54/9 33/55/9 27/56/9
f 27/57/15 33/58/15 34/59/15 28/60/15
f 28/61/16 34/62/16 35/63/16 29/64/16
f 29/65/12 35/66/12 36/67/12 30/68/12
f 30/69/17 36/70/17 31/71/17 25/72/17
f 31/73/18 37/74/18 38/75/18 32/76/18
f 32/77/9 38/78/9 39/79/9 33/80/9
f 33/81/19 39/82/19 40/83/19 34/84/19
f 34/85/20 40/86/20 41/87/20 35/88/20
f 35/89/12 41/90/12 42/91/12 36/92/12
f 36/93/21 42/94/21 37/95/21 31/96/21
f 37/97/22 43/98/22 44/99/22 38/100/22
f 38/101/9 44/102/9 45/103/9 39/104/9
f 39/105/23 45/106/23 46/107/23 40/108/23
f 40/109/24 46/110/24 47/111/24 41/112/24
f 41/113/12 47/114/12 48/115/12 42/116/12
f 42/117/25 48/118/25 43/119/25 37/120/25
f 43/121/26 49/122/26 50/123/26 44/124/26
f 44/125/9 50/126/9 51/127/9 45/128/9
f 45/129/27 51/130/27 52/131/27 46/132/27
f 46/133/28 52/134/28 53/135/28 47/136/28
f 47/137/12 53/138/12 54/139/12 48/140/12
f 48/141/29 54/142/29 49/143/29 43/144/29
f 49/145/30 55/146/30 56/147/30 50/148/30
f 50/149/9 56/150/9 57/151/9 51/152/9
f 51/153/31 57/154/31 58/155/31 52/156/31
f 52/157/32 58/158/32 59/159/32 53/160/32
f 53/161/12 59/162/12 60/163/12 54/164/12
f 54/165/33 60/166/33 55/167/33 49/168/33
f 55/169/10 61/170/10 62/171/10 56/172/10
f 56/173/9 62/174/9 63/175/9 57/176/9
f 57/177/8 63/178/8 64/179/8 58/180/8
f 58/181/13 64/182/13 65/183/13 59/184/13
f 59/185/12 65/186/12 66/187/12 60/188/12
f 60/189/11 66/190/11 61/191/11 55/192/11
f 61/193/15 67/194/15 68/195/15 62/196/15
f 62/197/9 68/198/9 69/199/9 63/200/9
f 63/201/14 69/202/14 70/203/14 64/204/14
f 64/205/17 70/206/17 71/207/17 65/208/17
f 65/209/12 71/210/12 72/211/12 66/212/12
f 66/213/16 72/214/16 67/215/16 61/216/16
f 67/217/19 73/218/19 74/219/19 68/220/19
f 68/221/9 74/222/9 75/223/9 69/224/9
f 69/225/18 75/226/18 76/227/18 70/228/18
f 70/229/21 76/230/21 77/231/21 71/232/21
f 71/233/12 77/234/12 78/235/12 72/236/12
f 72/237/20 78/238/20 73/239/20 67/240/20
f 73/241/23 79/242/23 80/243/23 74/244/23
f 74/245/9 80/246/9 81/247/9 75/248/9
f 75/249/22 81/250/22 82/251/22 76/252/22
f 76/253/25 82/254/25 83/255/25 77/256/25
f 77/257/12 83/258/12 84/259/12 78/260/12
f 78/261/24 84/262/24 79/263/24 73/264/24
f 79/265/27 85/266/27 86/267/27 80/268/27
f 80/269/9 86/270/9 87/271/9 81/272/9
f 81/273/26 87/274/26 88/275/26 82/276/26
f 82/277/29 88/278/29 89/279/29 83/280/29
f 83/281/12 89/282/12 90/283/12 84/284/12
f 84/285/28 90/286/28 85/287/28 79/288/28
f 85/289/31 19/290/31 20/291/31 86/292/31
f 86/293/9 20/294/9 21/295/9 87/296/9
f 87/297/30 21/298/30 22/299/30 88/300/30
f 88/301/33 22/302/33 23/303/33 89/304/33
f 89/305/12 23/306/12 24/307/12 90/308/12
f 90/309/32 24/310/32 19/311/32 85/312/32
f 2/3/34 1/2/34 6/11/34 5/9/34 4/7/34 3/5/34
