# Blender v2.79 (sub 0) OBJ File: 'MK68.blend'
# www.blender.org
mtllib MK68_core.mtl
o Cube.019_Cube.011
v 0.165118 -0.465882 0.067922
v 0.165118 -0.221967 0.067922
v 0.165118 -0.465882 -0.067922
v 0.165118 -0.221967 -0.067922
v 0.251096 -0.465882 0.067922
v 0.251096 -0.221967 0.067922
v 0.251096 -0.465882 -0.067922
v 0.251096 -0.221967 -0.067922
v -0.163098 0.908588 0.163098
v 0.513963 1.195902 0.163098
v 0.513963 1.230111 0.128890
v -0.163098 1.195902 0.163098
v -0.163098 1.230111 0.128890
v 0.024141 1.182279 -0.010983
v 0.055346 1.164262 -0.010983
v 0.055346 1.128230 -0.010983
v 0.024141 1.110214 -0.010983
v -0.007064 1.128230 -0.010983
v -0.007064 1.164262 -0.010983
v -0.007064 1.164262 0.163098
v -0.007064 1.128230 0.163098
v 0.055346 1.164262 0.163098
v 0.055346 1.128230 0.163098
v 0.024141 1.182279 0.163098
v 0.024141 1.110214 0.163098
v 0.381834 0.908588 0.163098
v 0.513963 1.040717 0.163098
v 0.381834 0.908588 0.163098
v 0.513963 1.040717 0.163098
v -0.163098 0.908588 -0.163098
v -0.163098 0.908588 0.000000
v -0.163098 1.230111 0.000000
v 0.513963 1.230111 0.000000
v 0.513963 1.195902 -0.163098
v 0.513963 1.230111 -0.128890
v -0.163098 1.195902 -0.163098
v -0.163098 1.230111 -0.128890
v 0.024141 1.182279 0.010983
v 0.055346 1.164262 0.010983
v 0.055346 1.128230 0.010983
v 0.024141 1.110214 0.010983
v -0.007064 1.128230 0.010983
v -0.007064 1.164262 0.010983
v -0.007064 1.164262 -0.163098
v -0.007064 1.128230 -0.163098
v 0.055346 1.164262 -0.163098
v 0.055346 1.128230 -0.163098
v 0.024141 1.182279 -0.163098
v 0.024141 1.110214 -0.163098
v 0.381834 0.908588 0.000000
v 0.381834 0.908588 -0.163098
v 0.381834 0.908588 0.000000
v 0.513963 1.040717 -0.163098
v 0.513963 1.040717 0.000000
v 0.381834 0.908588 -0.163098
v 0.513963 1.040717 -0.163098
v 0.513963 1.040717 0.000000
v 0.165118 0.523352 0.067922
v 0.165118 0.767268 0.067922
v 0.165118 0.523352 -0.067922
v 0.165118 0.767268 -0.067922
v 0.251096 0.523352 0.067922
v 0.251096 0.767268 0.067922
v 0.251096 0.523352 -0.067922
v 0.251096 0.767268 -0.067922
v -0.000000 -0.585953 -0.202942
v -0.000000 0.872815 -0.202942
v 0.143502 -0.585953 -0.143502
v 0.143502 0.872815 -0.143502
v 0.202942 -0.585953 0.000000
v 0.202942 0.872815 0.000000
v 0.143502 -0.585953 0.143502
v 0.143502 0.872815 0.143502
v -0.000000 -0.585953 0.202942
v -0.000000 0.872815 0.202942
v -0.143502 -0.585953 0.143502
v -0.143502 0.872815 0.143502
v -0.202943 -0.585953 -0.000000
v -0.202943 0.872815 -0.000000
v -0.143502 -0.585953 -0.143502
v -0.143502 0.872815 -0.143502
v -0.000000 0.864106 -0.343514
v -0.000000 1.053264 -0.343514
v 0.242901 0.864106 -0.242901
v 0.242901 1.053264 -0.242901
v 0.343514 0.864106 0.000000
v 0.343514 1.053264 0.000000
v 0.242901 0.864106 0.242901
v 0.242901 1.053264 0.242901
v -0.000000 0.864106 0.343514
v -0.000000 1.053264 0.343514
v -0.242901 0.864106 0.242901
v -0.242901 1.053264 0.242901
v -0.343514 0.864106 -0.000000
v -0.343514 1.053264 -0.000000
v -0.242901 0.864106 -0.242901
v -0.242901 1.053264 -0.242901
v -0.000000 -0.585953 -0.162437
v 0.114860 -0.585953 -0.114860
v 0.162437 -0.585953 0.000000
v 0.114860 -0.585953 0.114860
v -0.000000 -0.585953 0.162437
v -0.114860 -0.585953 0.114860
v -0.162437 -0.585953 -0.000000
v -0.114860 -0.585953 -0.114860
v -0.000000 -0.501337 -0.162437
v 0.114860 -0.501337 -0.114860
v 0.162437 -0.501337 0.000000
v 0.114860 -0.501337 0.114860
v -0.000000 -0.501337 0.162437
v -0.114860 -0.501337 0.114860
v -0.162437 -0.501337 -0.000000
v -0.114860 -0.501337 -0.114860
vt 0.814094 0.060188
vt 0.951531 0.060188
vt 0.951531 0.197625
vt 0.814094 0.197625
vt 0.814094 0.060188
vt 0.951531 0.060188
vt 0.951531 0.197625
vt 0.814094 0.197625
vt 0.814094 0.060188
vt 0.951531 0.060188
vt 0.951531 0.197625
vt 0.814094 0.197625
vt 0.814094 0.060188
vt 0.951531 0.060188
vt 0.951531 0.197625
vt 0.814094 0.197625
vt 0.951531 0.060188
vt 0.951531 0.197625
vt 0.814094 0.060188
vt 0.814094 0.197625
vt 0.193829 0.785050
vt 0.260457 0.800512
vt 0.255828 0.784185
vt 0.199027 0.787054
vt 0.319721 0.792620
vt 0.154262 0.784475
vt 0.168462 0.787023
vt 0.307969 0.787550
vt 0.175523 0.797585
vt 0.302680 0.792936
vt 0.213982 0.806386
vt 0.214162 0.806392
vt 0.217772 0.806922
vt 0.214624 0.805831
vt 0.214162 0.806348
vt 0.218754 0.807567
vt 0.213917 0.806292
vt 0.213529 0.805520
vt 0.213691 0.806308
vt 0.207754 0.806343
vt 0.213763 0.806343
vt 0.211244 0.805887
vt 0.293415 0.769784
vt 0.339120 0.770199
vt 0.166364 0.952216
vt 0.082092 0.952216
vt 0.082092 0.855668
vt 0.166364 0.855668
vt 0.190010 0.783863
vt 0.285011 0.810874
vt 0.329347 0.797332
vt 0.137692 0.777969
vt 0.123922 0.760267
vt 0.341090 0.788252
vt 0.201820 0.754354
vt 0.202394 0.756229
vt 0.207175 0.756573
vt 0.202049 0.754398
vt 0.208358 0.752343
vt 0.202049 0.754331
vt 0.201112 0.754819
vt 0.201697 0.754355
vt 0.193576 0.751764
vt 0.201422 0.754265
vt 0.197947 0.754270
vt 0.201523 0.754296
vt 0.376078 0.810874
vt 0.250636 0.855668
vt 0.250636 0.952216
vt 0.860843 0.185062
vt 0.732907 0.185062
vt 0.732907 0.057125
vt 0.860843 0.057125
vt 0.860843 0.185062
vt 0.732907 0.185062
vt 0.732907 0.057125
vt 0.860843 0.057125
vt 0.860843 0.185062
vt 0.732907 0.185062
vt 0.732907 0.057125
vt 0.860843 0.057125
vt 0.860843 0.185062
vt 0.732907 0.185062
vt 0.732907 0.057125
vt 0.860843 0.057125
vt 0.732907 0.185062
vt 0.732907 0.057125
vt 0.860843 0.185062
vt 0.860843 0.057125
vt 0.773362 0.771615
vt 0.925842 0.771615
vt 0.925842 0.924095
vt 0.773362 0.924095
vt 0.773362 0.771615
vt 0.925842 0.771615
vt 0.925842 0.924095
vt 0.773362 0.924095
vt 0.773362 0.771615
vt 0.925842 0.771615
vt 0.925842 0.924095
vt 0.773362 0.924095
vt 0.773362 0.771615
vt 0.925842 0.771615
vt 0.925842 0.924095
vt 0.773362 0.924095
vt 0.773362 0.771615
vt 0.925842 0.771615
vt 0.925842 0.924095
vt 0.773362 0.924095
vt 0.773362 0.771615
vt 0.925842 0.771615
vt 0.925842 0.924095
vt 0.773362 0.924095
vt 0.839318 0.940803
vt 0.904937 0.913623
vt 0.932117 0.848004
vt 0.904937 0.782385
vt 0.839318 0.755205
vt 0.773699 0.782385
vt 0.746519 0.848004
vt 0.773699 0.913623
vt 0.773362 0.771615
vt 0.925842 0.771615
vt 0.925842 0.924095
vt 0.773362 0.924095
vt 0.773362 0.771615
vt 0.925842 0.771615
vt 0.925842 0.924095
vt 0.773362 0.924095
vt 0.773362 0.924095
vt 0.773362 0.771615
vt 0.098288 0.078757
vt 0.261087 0.078757
vt 0.261087 0.241555
vt 0.098288 0.241555
vt 0.098288 0.078757
vt 0.261087 0.078757
vt 0.261087 0.241555
vt 0.098288 0.241555
vt 0.098288 0.078757
vt 0.261087 0.078757
vt 0.261087 0.241555
vt 0.098288 0.241555
vt 0.098288 0.078757
vt 0.261087 0.078757
vt 0.261087 0.241555
vt 0.098288 0.241555
vt 0.098288 0.078757
vt 0.261087 0.078757
vt 0.261087 0.241555
vt 0.098288 0.241555
vt 0.098288 0.078757
vt 0.261087 0.078757
vt 0.261087 0.241555
vt 0.098288 0.241555
vt 0.179688 0.241555
vt 0.237245 0.217714
vt 0.261087 0.160156
vt 0.237245 0.102598
vt 0.179688 0.078757
vt 0.122130 0.102598
vt 0.098288 0.160156
vt 0.122130 0.217714
vt 0.098288 0.078757
vt 0.261087 0.078757
vt 0.261087 0.241555
vt 0.098288 0.241555
vt 0.098288 0.078757
vt 0.261087 0.078757
vt 0.261087 0.241555
vt 0.098288 0.241555
vt 0.179688 0.241555
vt 0.237245 0.217714
vt 0.261087 0.160156
vt 0.237245 0.102598
vt 0.179688 0.078757
vt 0.122130 0.102598
vt 0.098288 0.160156
vt 0.122130 0.217714
vt 0.773362 0.924095
vt 0.773362 0.771615
vt 0.773362 0.924095
vt 0.773362 0.771615
vt 0.773362 0.924095
vt 0.773362 0.771615
vt 0.773362 0.924095
vt 0.773362 0.771615
vt 0.773362 0.924095
vt 0.773362 0.771615
vt 0.773362 0.924095
vt 0.773362 0.771615
vt 0.773362 0.924095
vt 0.773362 0.771615
vt 0.773362 0.924095
vt 0.773362 0.771615
vt 0.773362 0.924095
vt 0.773362 0.771615
vt 0.773362 0.924095
vt 0.773362 0.771615
vt 0.773362 0.924095
vt 0.773362 0.771615
vt 0.773362 0.924095
vt 0.773362 0.771615
vt 0.773362 0.924095
vt 0.773362 0.771615
vt 0.773362 0.924095
vt 0.773362 0.771615
vt 0.773362 0.924095
vt 0.773362 0.771615
vn -1.0000 0.0000 0.0000
vn 0.0000 0.0000 -1.0000
vn 1.0000 0.0000 0.0000
vn 0.0000 0.0000 1.0000
vn 0.0000 -1.0000 0.0000
vn 0.0000 1.0000 0.0000
vn 0.0000 0.7071 0.7071
vn -0.5000 -0.8660 0.0000
vn -0.5000 0.8660 0.0000
vn 0.5000 0.8660 0.0000
vn 0.5000 -0.8660 0.0000
vn 0.7071 -0.7071 0.0000
vn 0.0000 0.7071 -0.7071
vn 0.3827 0.0000 -0.9239
vn 0.9239 0.0000 -0.3827
vn 0.9239 0.0000 0.3827
vn 0.3827 0.0000 0.9239
vn -0.3827 0.0000 0.9239
vn -0.9239 0.0000 0.3827
vn -0.9239 0.0000 -0.3827
vn -0.3827 0.0000 -0.9239
usemtl None
s off
f 1/1/1 2/2/1 4/3/1 3/4/1
f 3/5/2 4/6/2 8/7/2 7/8/2
f 7/9/3 8/10/3 6/11/3 5/12/3
f 5/13/4 6/14/4 2/15/4 1/16/4
f 3/5/5 7/17/5 5/18/5 1/16/5
f 8/19/6 4/6/6 2/15/6 6/20/6
f 31/21/5 52/22/5 26/23/5 9/24/5
f 33/25/6 32/26/6 13/27/6 11/28/6
f 9/24/1 12/29/1 13/27/1 32/26/1 31/21/1
f 11/28/7 13/27/7 12/29/7 10/30/7
f 14/31/8 15/32/8 22/33/8 24/34/8
f 15/32/1 16/35/1 23/36/1 22/33/1
f 16/35/9 17/37/9 25/38/9 23/36/9
f 17/37/10 18/39/10 21/40/10 25/38/10
f 18/39/3 19/41/3 20/42/3 21/40/3
f 19/41/11 14/31/11 24/34/11 20/42/11
f 14/31/4 19/41/4 18/39/4 17/37/4 16/35/4 15/32/4
f 12/29/4 21/40/4 20/42/4 24/34/4 22/33/4 10/30/4
f 26/23/4 27/43/4 10/30/4 22/33/4 23/36/4 25/38/4 21/40/4 12/29/4 9/24/4
f 27/43/3 54/44/3 33/25/3 11/28/3 10/30/3
f 57/45/12 29/46/12 28/47/12 50/48/12
f 31/21/5 30/49/5 51/50/5 52/22/5
f 33/25/6 35/51/6 37/52/6 32/26/6
f 30/49/1 31/21/1 32/26/1 37/52/1 36/53/1
f 35/51/13 34/54/13 36/53/13 37/52/13
f 38/55/8 48/56/8 46/57/8 39/58/8
f 39/58/1 46/57/1 47/59/1 40/60/1
f 40/60/9 47/59/9 49/61/9 41/62/9
f 41/62/10 49/61/10 45/63/10 42/64/10
f 42/64/3 45/63/3 44/65/3 43/66/3
f 43/66/11 44/65/11 48/56/11 38/55/11
f 38/55/2 39/58/2 40/60/2 41/62/2 42/64/2 43/66/2
f 36/53/2 34/54/2 46/57/2 48/56/2 44/65/2 45/63/2
f 51/50/2 30/49/2 36/53/2 45/63/2 49/61/2 47/59/2 46/57/2 34/54/2 53/67/2
f 53/67/3 34/54/3 35/51/3 33/25/3 54/44/3
f 57/45/12 50/48/12 55/68/12 56/69/12
f 58/70/1 59/71/1 61/72/1 60/73/1
f 60/74/2 61/75/2 65/76/2 64/77/2
f 64/78/3 65/79/3 63/80/3 62/81/3
f 62/82/4 63/83/4 59/84/4 58/85/4
f 60/74/5 64/86/5 62/87/5 58/85/5
f 65/88/6 61/75/6 59/84/6 63/89/6
f 66/90/14 67/91/14 69/92/14 68/93/14
f 68/94/15 69/95/15 71/96/15 70/97/15
f 70/98/16 71/99/16 73/100/16 72/101/16
f 72/102/17 73/103/17 75/104/17 74/105/17
f 74/106/18 75/107/18 77/108/18 76/109/18
f 76/110/19 77/111/19 79/112/19 78/113/19
f 69/114/6 67/115/6 81/116/6 79/117/6 77/118/6 75/119/6 73/120/6 71/121/6
f 78/122/20 79/123/20 81/124/20 80/125/20
f 80/126/21 81/127/21 67/128/21 66/129/21
f 70/98/5 72/101/5 101/130/5 100/131/5
f 82/132/14 83/133/14 85/134/14 84/135/14
f 84/136/15 85/137/15 87/138/15 86/139/15
f 86/140/16 87/141/16 89/142/16 88/143/16
f 88/144/17 89/145/17 91/146/17 90/147/17
f 90/148/18 91/149/18 93/150/18 92/151/18
f 92/152/19 93/153/19 95/154/19 94/155/19
f 85/156/6 83/157/6 97/158/6 95/159/6 93/160/6 91/161/6 89/162/6 87/163/6
f 94/164/20 95/165/20 97/166/20 96/167/20
f 96/168/21 97/169/21 83/170/21 82/171/21
f 82/172/5 84/173/5 86/174/5 88/175/5 90/176/5 92/177/5 94/178/5 96/179/5
f 76/110/5 78/113/5 104/180/5 103/181/5
f 72/102/5 74/105/5 102/182/5 101/183/5
f 78/122/5 80/125/5 105/184/5 104/185/5
f 68/94/5 70/97/5 100/186/5 99/187/5
f 74/106/5 76/109/5 103/188/5 102/189/5
f 80/126/5 66/129/5 98/190/5 105/191/5
f 66/90/5 68/93/5 99/192/5 98/193/5
f 101/183/21 102/182/21 110/194/21 109/195/21
f 99/187/19 100/186/19 108/196/19 107/197/19
f 104/185/16 105/184/16 113/198/16 112/199/16
f 102/189/14 103/188/14 111/200/14 110/201/14
f 100/131/20 101/130/20 109/202/20 108/203/20
f 98/193/18 99/192/18 107/204/18 106/205/18
f 105/191/17 98/190/17 106/206/17 113/207/17
f 103/181/15 104/180/15 112/208/15 111/209/15
f 106/206/5 107/197/5 108/203/5 109/195/5 110/201/5 111/209/5 112/199/5 113/207/5
