# Blender v2.79 (sub 0) OBJ File: 'MK68.blend'
# www.blender.org
mtllib MK68_shell.mtl
o Cylinder.015
v -0.000000 -0.756320 -0.435690
v -0.000000 0.810406 -0.435690
v 0.112765 -0.756320 -0.420844
v 0.112765 0.810406 -0.420844
v 0.217845 -0.756320 -0.377318
v 0.217845 0.810406 -0.377318
v 0.308079 -0.756320 -0.308079
v 0.308079 0.810406 -0.308079
v 0.377318 -0.756320 -0.217845
v 0.377318 0.810406 -0.217845
v 0.420844 -0.756320 -0.112765
v 0.420844 0.810406 -0.112765
v 0.435690 -0.756320 0.000000
v 0.435690 0.810406 0.000000
v 0.420844 -0.756320 0.112765
v 0.420844 0.810406 0.112765
v 0.377319 -0.756320 0.217845
v 0.377319 0.810406 0.217845
v 0.308079 -0.756320 0.308079
v 0.308079 0.810406 0.308079
v 0.217845 -0.756320 0.377318
v 0.217845 0.810406 0.377318
v 0.112765 -0.756320 0.420844
v 0.112765 0.810406 0.420844
v 0.000000 -0.756320 0.435690
v 0.000000 0.810406 0.435690
v -0.112765 -0.756320 0.420844
v -0.112765 0.810406 0.420844
v -0.217845 -0.756320 0.377319
v -0.217845 0.810406 0.377319
v -0.308079 -0.756320 0.308079
v -0.308079 0.810406 0.308079
v -0.377318 -0.756320 0.217845
v -0.377318 0.810406 0.217845
v -0.420844 -0.756320 0.112765
v -0.420844 0.810406 0.112765
v -0.435690 -0.756320 0.000000
v -0.435690 0.810406 0.000000
v -0.420844 -0.756320 -0.112765
v -0.420844 0.810406 -0.112765
v -0.377319 -0.756320 -0.217845
v -0.377319 0.810406 -0.217845
v -0.308079 -0.756320 -0.308079
v -0.308079 0.810406 -0.308079
v -0.217845 -0.756320 -0.377318
v -0.217845 0.810406 -0.377318
v -0.112765 -0.756320 -0.420844
v -0.112765 0.810406 -0.420844
v -0.000000 -0.742743 -0.421005
v -0.000000 0.810406 -0.415690
v 0.108964 -0.742743 -0.406660
v 0.107589 0.810406 -0.401526
v 0.210503 -0.742743 -0.364601
v 0.207845 0.810406 -0.359998
v 0.297696 -0.742743 -0.297696
v 0.293938 0.810406 -0.293937
v 0.364601 -0.742743 -0.210503
v 0.359998 0.810406 -0.207845
v 0.406660 -0.742743 -0.108964
v 0.401526 0.810406 -0.107589
v 0.421005 -0.742743 0.000000
v 0.415690 0.810406 0.000000
v 0.406660 -0.742743 0.108964
v 0.401526 0.810406 0.107589
v 0.364601 -0.742743 0.210503
v 0.359998 0.810406 0.207845
v 0.297696 -0.742743 0.297696
v 0.293938 0.810406 0.293938
v 0.210503 -0.742743 0.364601
v 0.207845 0.810406 0.359998
v 0.108964 -0.742743 0.406660
v 0.107589 0.810406 0.401526
v 0.000000 -0.742743 0.421005
v 0.000000 0.810406 0.415690
v -0.108964 -0.742743 0.406660
v -0.107589 0.810406 0.401526
v -0.210503 -0.742743 0.364602
v -0.207845 0.810406 0.359998
v -0.297695 -0.742743 0.297696
v -0.293937 0.810406 0.293938
v -0.364601 -0.742743 0.210503
v -0.359998 0.810406 0.207845
v -0.406660 -0.742743 0.108964
v -0.401526 0.810406 0.107589
v -0.421005 -0.742743 0.000000
v -0.415690 0.810406 0.000000
v -0.406660 -0.742743 -0.108964
v -0.401526 0.810406 -0.107589
v -0.364602 -0.742743 -0.210502
v -0.359998 0.810406 -0.207845
v -0.297696 -0.742743 -0.297695
v -0.293938 0.810406 -0.293937
v -0.210503 -0.742743 -0.364601
v -0.207846 0.810406 -0.359998
v -0.108964 -0.742743 -0.406660
v -0.107589 0.810406 -0.401526
v -0.000000 0.885619 -0.494577
v 0.349719 0.885619 -0.349719
v 0.494577 0.885619 0.000000
v 0.349719 0.885619 0.349719
v -0.000000 0.885619 0.494577
v -0.349719 0.885619 0.349719
v -0.494577 0.885619 -0.000000
v -0.349719 0.885619 -0.349719
v -0.000000 0.885619 -0.274847
v 0.194346 0.885619 -0.194346
v 0.274847 0.885619 0.000000
v 0.194346 0.885619 0.194346
v -0.000000 0.885619 0.274847
v -0.194346 0.885619 0.194346
v -0.274847 0.885619 -0.000000
v -0.194346 0.885619 -0.194346
v -0.000000 0.689800 -0.494577
v 0.349719 0.689800 -0.349719
v 0.494577 0.689800 0.000000
v 0.349719 0.689800 0.349719
v -0.000000 0.689800 0.494577
v -0.349719 0.689800 0.349719
v -0.494577 0.689800 -0.000000
v -0.349719 0.689800 -0.349719
v -0.000000 0.689800 -0.274847
v 0.194346 0.689800 -0.194346
v 0.274847 0.689800 0.000000
v 0.194346 0.689800 0.194346
v -0.000000 0.689800 0.274847
v -0.194346 0.689800 0.194346
v -0.274847 0.689800 -0.000000
v -0.194346 0.689800 -0.194346
v -0.000000 0.787709 -0.494577
v 0.349719 0.787709 -0.349719
v 0.494577 0.787709 0.000000
v 0.349719 0.787709 0.349719
v -0.000000 0.787709 0.494577
v -0.349719 0.787709 0.349719
v -0.494577 0.787709 -0.000000
v -0.349719 0.787709 -0.349719
v -0.000000 -0.756320 -0.435690
v 0.112765 -0.756320 -0.420844
v 0.217845 -0.756320 -0.377318
v 0.308079 -0.756320 -0.308079
v 0.377318 -0.756320 -0.217845
v 0.420844 -0.756320 -0.112765
v 0.435690 -0.756320 0.000000
v 0.420844 -0.756320 0.112765
v 0.377319 -0.756320 0.217845
v 0.308079 -0.756320 0.308079
v 0.217845 -0.756320 0.377318
v 0.112765 -0.756320 0.420844
v 0.000000 -0.756320 0.435690
v -0.112765 -0.756320 0.420844
v -0.217845 -0.756320 0.377319
v -0.308079 -0.756320 0.308079
v -0.377318 -0.756320 0.217845
v -0.420844 -0.756320 0.112765
v -0.435690 -0.756320 0.000000
v -0.420844 -0.756320 -0.112765
v -0.377319 -0.756320 -0.217845
v -0.308079 -0.756320 -0.308079
v -0.217845 -0.756320 -0.377318
v -0.112765 -0.756320 -0.420844
v -0.000000 -0.788251 -0.494577
v -0.000000 -0.592432 -0.494577
v 0.349719 -0.788251 -0.349719
v 0.349719 -0.592432 -0.349719
v 0.494577 -0.788251 0.000000
v 0.494577 -0.592432 0.000000
v 0.349719 -0.788251 0.349719
v 0.349719 -0.592432 0.349719
v -0.000000 -0.788251 0.494577
v -0.000000 -0.592432 0.494577
v -0.349719 -0.788251 0.349719
v -0.349719 -0.592432 0.349719
v -0.494577 -0.788251 -0.000000
v -0.494577 -0.592432 -0.000000
v -0.349719 -0.788251 -0.349719
v -0.349719 -0.592432 -0.349719
vt 0.790698 0.226931
vt 0.900720 0.075926
vt 0.926437 0.101973
vt 0.781047 0.219330
vt 0.944546 0.133793
vt 0.773735 0.209509
vt 0.953848 0.169208
vt 0.769270 0.198150
vt 0.953766 0.205828
vt 0.767944 0.186073
vt 0.944324 0.241206
vt 0.769887 0.174102
vt 0.926159 0.272981
vt 0.774968 0.163093
vt 0.900479 0.299016
vt 0.782837 0.153844
vt 0.868975 0.317501
vt 0.792934 0.146947
vt 0.833732 0.327096
vt 0.804502 0.142663
vt 0.797219 0.327108
vt 0.816805 0.141495
vt 0.761967 0.317536
vt 0.829023 0.143355
vt 0.730446 0.299070
vt 0.840332 0.148283
vt 0.704763 0.273034
vt 0.850021 0.155774
vt 0.686644 0.241237
vt 0.857362 0.165515
vt 0.677283 0.205841
vt 0.861839 0.176815
vt 0.677283 0.169222
vt 0.863135 0.188873
vt 0.686635 0.133821
vt 0.861150 0.200826
vt 0.704722 0.102005
vt 0.856016 0.211816
vt 0.730423 0.075955
vt 0.848167 0.221213
vt 0.762000 0.057483
vt 0.838105 0.228262
vt 0.797281 0.047898
vt 0.826524 0.232475
vt 0.833847 0.047892
vt 0.814229 0.233728
vt 0.869132 0.057464
vt 0.802023 0.231785
vt 0.790698 0.226931
vt 0.781047 0.219330
vt 0.926437 0.101973
vt 0.900720 0.075926
vt 0.773735 0.209509
vt 0.944546 0.133793
vt 0.769270 0.198150
vt 0.953848 0.169208
vt 0.767944 0.186073
vt 0.953766 0.205828
vt 0.769887 0.174102
vt 0.944324 0.241206
vt 0.774968 0.163093
vt 0.926159 0.272981
vt 0.782837 0.153844
vt 0.900479 0.299016
vt 0.792934 0.146947
vt 0.868975 0.317501
vt 0.804502 0.142663
vt 0.833732 0.327096
vt 0.816805 0.141495
vt 0.797219 0.327108
vt 0.829023 0.143355
vt 0.761967 0.317536
vt 0.840332 0.148283
vt 0.730446 0.299070
vt 0.850021 0.155774
vt 0.704763 0.273034
vt 0.857362 0.165515
vt 0.686644 0.241237
vt 0.861839 0.176815
vt 0.677283 0.205841
vt 0.863135 0.188873
vt 0.677283 0.169222
vt 0.861150 0.200826
vt 0.686635 0.133821
vt 0.856016 0.211816
vt 0.704722 0.102005
vt 0.848167 0.221213
vt 0.730423 0.075955
vt 0.838105 0.228262
vt 0.762000 0.057483
vt 0.826524 0.232475
vt 0.797281 0.047898
vt 0.814229 0.233728
vt 0.833847 0.047892
vt 0.802023 0.231785
vt 0.869132 0.057464
vt 0.071681 0.731837
vt 0.287694 0.731837
vt 0.287694 0.947850
vt 0.071681 0.947850
vt 0.071681 0.731837
vt 0.287694 0.731837
vt 0.287694 0.947850
vt 0.071681 0.947850
vt 0.071681 0.731837
vt 0.287694 0.731837
vt 0.287694 0.947850
vt 0.071681 0.947850
vt 0.071681 0.731837
vt 0.287694 0.731837
vt 0.287694 0.947850
vt 0.071681 0.947850
vt 0.071681 0.731837
vt 0.287694 0.731837
vt 0.287694 0.947850
vt 0.071681 0.947850
vt 0.071681 0.731837
vt 0.287694 0.731837
vt 0.287694 0.947850
vt 0.071681 0.947850
vt 0.071681 0.731837
vt 0.287694 0.731837
vt 0.287694 0.947850
vt 0.071681 0.947850
vt 0.071681 0.731837
vt 0.287694 0.731837
vt 0.287694 0.947850
vt 0.071681 0.947850
vt 0.071681 0.731837
vt 0.287694 0.947850
vt 0.071681 0.947850
vt 0.071681 0.731837
vt 0.287694 0.947850
vt 0.071681 0.947850
vt 0.071681 0.731837
vt 0.287694 0.947850
vt 0.071681 0.947850
vt 0.071681 0.731837
vt 0.287694 0.947850
vt 0.071681 0.947850
vt 0.071681 0.731837
vt 0.287694 0.947850
vt 0.071681 0.947850
vt 0.071681 0.731837
vt 0.287694 0.947850
vt 0.071681 0.947850
vt 0.071681 0.731837
vt 0.287694 0.947850
vt 0.071681 0.947850
vt 0.071681 0.731837
vt 0.287694 0.947850
vt 0.071681 0.947850
vt 0.287694 0.731837
vt 0.287694 0.947850
vt 0.071681 0.947850
vt 0.287694 0.731837
vt 0.287694 0.947850
vt 0.071681 0.947850
vt 0.287694 0.731837
vt 0.287694 0.947850
vt 0.071681 0.947850
vt 0.287694 0.731837
vt 0.287694 0.947850
vt 0.071681 0.947850
vt 0.287694 0.731837
vt 0.287694 0.947850
vt 0.071681 0.947850
vt 0.287694 0.731837
vt 0.287694 0.947850
vt 0.071681 0.947850
vt 0.287694 0.731837
vt 0.287694 0.947850
vt 0.071681 0.947850
vt 0.287694 0.731837
vt 0.287694 0.947850
vt 0.071681 0.947850
vt 0.071681 0.731837
vt 0.287694 0.731837
vt 0.287694 0.947850
vt 0.071681 0.731837
vt 0.287694 0.731837
vt 0.287694 0.947850
vt 0.071681 0.731837
vt 0.287694 0.731837
vt 0.287694 0.947850
vt 0.071681 0.731837
vt 0.287694 0.731837
vt 0.287694 0.947850
vt 0.071681 0.731837
vt 0.287694 0.731837
vt 0.287694 0.947850
vt 0.071681 0.731837
vt 0.287694 0.731837
vt 0.287694 0.947850
vt 0.071681 0.731837
vt 0.287694 0.731837
vt 0.287694 0.947850
vt 0.071681 0.731837
vt 0.287694 0.731837
vt 0.287694 0.947850
vt 0.071681 0.731837
vt 0.071681 0.731837
vt 0.071681 0.731837
vt 0.071681 0.731837
vt 0.071681 0.731837
vt 0.071681 0.731837
vt 0.071681 0.731837
vt 0.071681 0.731837
vt 0.323283 0.957418
vt 0.304067 0.942284
vt 0.289509 0.922729
vt 0.280620 0.900114
vt 0.277978 0.876068
vt 0.281846 0.852232
vt 0.291963 0.830313
vt 0.307630 0.811897
vt 0.327734 0.798166
vt 0.350768 0.789636
vt 0.375265 0.787311
vt 0.399590 0.791013
vt 0.422107 0.800825
vt 0.441398 0.815741
vt 0.456015 0.835135
vt 0.464929 0.857635
vt 0.467509 0.881643
vt 0.463557 0.905441
vt 0.453336 0.927323
vt 0.437707 0.946033
vt 0.417673 0.960069
vt 0.394614 0.968456
vt 0.370134 0.970951
vt 0.345832 0.967084
vt 0.052041 0.727823
vt 0.244834 0.727823
vt 0.244834 0.920615
vt 0.052041 0.920615
vt 0.052041 0.727823
vt 0.244834 0.727823
vt 0.244834 0.920615
vt 0.052041 0.920615
vt 0.052041 0.727823
vt 0.244834 0.727823
vt 0.244834 0.920615
vt 0.052041 0.920615
vt 0.052041 0.727823
vt 0.244834 0.727823
vt 0.244834 0.920615
vt 0.052041 0.920615
vt 0.052041 0.727823
vt 0.244834 0.727823
vt 0.244834 0.920615
vt 0.052041 0.920615
vt 0.052041 0.727823
vt 0.244834 0.727823
vt 0.244834 0.920615
vt 0.052041 0.920615
vt 0.522684 0.949054
vt 0.576243 0.926869
vt 0.598428 0.873311
vt 0.576243 0.819752
vt 0.522684 0.797567
vt 0.469126 0.819752
vt 0.446941 0.873311
vt 0.469126 0.926869
vt 0.052041 0.727823
vt 0.244834 0.727823
vt 0.244834 0.920615
vt 0.052041 0.920615
vt 0.052041 0.727823
vt 0.244834 0.727823
vt 0.244834 0.920615
vt 0.052041 0.920615
vt 0.803892 0.937767
vt 0.888338 0.902788
vt 0.923317 0.818342
vt 0.888338 0.733895
vt 0.803892 0.698917
vt 0.719446 0.733895
vt 0.684467 0.818342
vt 0.719446 0.902788
vn 0.1305 0.0000 -0.9914
vn 0.3827 0.0000 -0.9239
vn 0.6088 0.0000 -0.7934
vn 0.7934 0.0000 -0.6088
vn 0.9239 0.0000 -0.3827
vn 0.9914 0.0000 -0.1305
vn 0.9914 0.0000 0.1305
vn 0.9239 0.0000 0.3827
vn 0.7934 0.0000 0.6088
vn 0.6088 0.0000 0.7934
vn 0.3827 0.0000 0.9239
vn 0.1305 0.0000 0.9914
vn -0.1305 0.0000 0.9914
vn -0.3827 0.0000 0.9239
vn -0.6088 0.0000 0.7934
vn -0.7934 0.0000 0.6088
vn -0.9239 0.0000 0.3827
vn -0.9914 0.0000 0.1305
vn -0.9914 0.0000 -0.1305
vn -0.9239 0.0000 -0.3827
vn -0.7934 0.0000 -0.6088
vn -0.6088 0.0000 -0.7934
vn -0.3827 0.0000 -0.9239
vn -0.1305 0.0000 -0.9914
vn 0.0000 -1.0000 -0.0000
vn -0.1305 -0.0034 0.9914
vn -0.3827 -0.0034 0.9239
vn -0.6088 -0.0034 0.7933
vn -0.7933 -0.0034 0.6088
vn -0.9239 -0.0034 0.3827
vn -0.9914 -0.0034 0.1305
vn -0.9914 -0.0034 -0.1305
vn -0.9239 -0.0034 -0.3827
vn -0.7933 -0.0034 -0.6088
vn -0.6088 -0.0034 -0.7933
vn -0.3827 -0.0034 -0.9239
vn -0.1305 -0.0034 -0.9914
vn 0.1305 -0.0034 -0.9914
vn 0.3827 -0.0034 -0.9239
vn 0.6088 -0.0034 -0.7933
vn 0.7933 -0.0034 -0.6088
vn 0.9239 -0.0034 -0.3827
vn 0.9914 -0.0034 -0.1305
vn 0.9914 -0.0034 0.1305
vn 0.9239 -0.0034 0.3827
vn 0.7933 -0.0034 0.6088
vn 0.6088 -0.0034 0.7933
vn 0.3827 -0.0034 0.9239
vn 0.1305 -0.0034 0.9914
vn 0.0000 1.0000 0.0000
usemtl None
s off
f 1/1/1 2/2/1 4/3/1 3/4/1
f 3/4/2 4/3/2 6/5/2 5/6/2
f 5/6/3 6/5/3 8/7/3 7/8/3
f 7/8/4 8/7/4 10/9/4 9/10/4
f 9/10/5 10/9/5 12/11/5 11/12/5
f 11/12/6 12/11/6 14/13/6 13/14/6
f 13/14/7 14/13/7 16/15/7 15/16/7
f 15/16/8 16/15/8 18/17/8 17/18/8
f 17/18/9 18/17/9 20/19/9 19/20/9
f 19/20/10 20/19/10 22/21/10 21/22/10
f 21/22/11 22/21/11 24/23/11 23/24/11
f 23/24/12 24/23/12 26/25/12 25/26/12
f 25/26/13 26/25/13 28/27/13 27/28/13
f 27/28/14 28/27/14 30/29/14 29/30/14
f 29/30/15 30/29/15 32/31/15 31/32/15
f 31/32/16 32/31/16 34/33/16 33/34/16
f 33/34/17 34/33/17 36/35/17 35/36/17
f 35/36/18 36/35/18 38/37/18 37/38/18
f 37/38/19 38/37/19 40/39/19 39/40/19
f 39/40/20 40/39/20 42/41/20 41/42/20
f 41/42/21 42/41/21 44/43/21 43/44/21
f 43/44/22 44/43/22 46/45/22 45/46/22
f 45/46/23 46/45/23 48/47/23 47/48/23
f 47/48/24 48/47/24 2/2/24 1/1/24
f 1/1/25 3/4/25 5/6/25 7/8/25 9/10/25 11/12/25 13/14/25 15/16/25 17/18/25 19/20/25 21/22/25 23/24/25 25/26/25 27/28/25 29/30/25 31/32/25 33/34/25 35/36/25 37/38/25 39/40/25 41/42/25 43/44/25 45/46/25 47/48/25
f 49/49/26 51/50/26 52/51/26 50/52/26
f 51/50/27 53/53/27 54/54/27 52/51/27
f 53/53/28 55/55/28 56/56/28 54/54/28
f 55/55/29 57/57/29 58/58/29 56/56/29
f 57/57/30 59/59/30 60/60/30 58/58/30
f 59/59/31 61/61/31 62/62/31 60/60/31
f 61/61/32 63/63/32 64/64/32 62/62/32
f 63/63/33 65/65/33 66/66/33 64/64/33
f 65/65/34 67/67/34 68/68/34 66/66/34
f 67/67/35 69/69/35 70/70/35 68/68/35
f 69/69/36 71/71/36 72/72/36 70/70/36
f 71/71/37 73/73/37 74/74/37 72/72/37
f 73/73/38 75/75/38 76/76/38 74/74/38
f 75/75/39 77/77/39 78/78/39 76/76/39
f 77/77/40 79/79/40 80/80/40 78/78/40
f 79/79/41 81/81/41 82/82/41 80/80/41
f 81/81/42 83/83/42 84/84/42 82/82/42
f 83/83/43 85/85/43 86/86/43 84/84/43
f 85/85/44 87/87/44 88/88/44 86/86/44
f 87/87/45 89/89/45 90/90/45 88/88/45
f 89/89/46 91/91/46 92/92/46 90/90/46
f 91/91/47 93/93/47 94/94/47 92/92/47
f 93/93/48 95/95/48 96/96/48 94/94/48
f 95/95/49 49/49/49 50/52/49 96/96/49
f 49/49/50 95/95/50 93/93/50 91/91/50 89/89/50 87/87/50 85/85/50 83/83/50 81/81/50 79/79/50 77/77/50 75/75/50 73/73/50 71/71/50 69/69/50 67/67/50 65/65/50 63/63/50 61/61/50 59/59/50 57/57/50 55/55/50 53/53/50 51/50/50
f 4/3/50 2/2/50 50/52/50 52/51/50
f 6/5/50 4/3/50 52/51/50 54/54/50
f 8/7/50 6/5/50 54/54/50 56/56/50
f 10/9/50 8/7/50 56/56/50 58/58/50
f 12/11/50 10/9/50 58/58/50 60/60/50
f 14/13/50 12/11/50 60/60/50 62/62/50
f 16/15/50 14/13/50 62/62/50 64/64/50
f 18/17/50 16/15/50 64/64/50 66/66/50
f 20/19/50 18/17/50 66/66/50 68/68/50
f 22/21/50 20/19/50 68/68/50 70/70/50
f 24/23/50 22/21/50 70/70/50 72/72/50
f 26/25/50 24/23/50 72/72/50 74/74/50
f 28/27/50 26/25/50 74/74/50 76/76/50
f 30/29/50 28/27/50 76/76/50 78/78/50
f 32/31/50 30/29/50 78/78/50 80/80/50
f 34/33/50 32/31/50 80/80/50 82/82/50
f 36/35/50 34/33/50 82/82/50 84/84/50
f 38/37/50 36/35/50 84/84/50 86/86/50
f 40/39/50 38/37/50 86/86/50 88/88/50
f 42/41/50 40/39/50 88/88/50 90/90/50
f 44/43/50 42/41/50 90/90/50 92/92/50
f 46/45/50 44/43/50 92/92/50 94/94/50
f 48/47/50 46/45/50 94/94/50 96/96/50
f 2/2/50 48/47/50 96/96/50 50/52/50
f 129/97/2 97/98/2 98/99/2 130/100/2
f 130/101/5 98/102/5 99/103/5 131/104/5
f 131/105/8 99/106/8 100/107/8 132/108/8
f 132/109/11 100/110/11 101/111/11 133/112/11
f 133/113/14 101/114/14 102/115/14 134/116/14
f 134/117/17 102/118/17 103/119/17 135/120/17
f 135/121/20 103/122/20 104/123/20 136/124/20
f 136/125/23 104/126/23 97/127/23 129/128/23
f 101/129/50 100/110/50 108/130/50 109/131/50
f 104/132/50 103/122/50 111/133/50 112/134/50
f 99/135/50 98/102/50 106/136/50 107/137/50
f 102/138/50 101/114/50 109/139/50 110/140/50
f 97/141/50 104/126/50 112/142/50 105/143/50
f 98/144/50 97/98/50 105/145/50 106/146/50
f 100/147/50 99/106/50 107/148/50 108/149/50
f 103/150/50 102/118/50 110/151/50 111/152/50
f 129/97/2 130/153/2 114/154/2 113/155/2
f 130/101/5 131/156/5 115/157/5 114/158/5
f 131/105/8 132/159/8 116/160/8 115/161/8
f 132/109/11 133/162/11 117/163/11 116/164/11
f 133/113/14 134/165/14 118/166/14 117/167/14
f 134/117/17 135/168/17 119/169/17 118/170/17
f 135/121/20 136/171/20 120/172/20 119/173/20
f 136/125/23 129/174/23 113/175/23 120/176/23
f 117/177/25 125/178/25 124/179/25 116/164/25
f 120/180/25 128/181/25 127/182/25 119/173/25
f 115/183/25 123/184/25 122/185/25 114/158/25
f 118/186/25 126/187/25 125/188/25 117/167/25
f 113/189/25 121/190/25 128/191/25 120/176/25
f 114/192/25 122/193/25 121/194/25 113/155/25
f 116/195/25 124/196/25 123/197/25 115/161/25
f 119/198/25 127/199/25 126/200/25 118/170/25
f 106/201/17 122/193/17 123/197/17 107/137/17
f 107/202/20 123/184/20 124/179/20 108/149/20
f 108/203/23 124/196/23 125/188/23 109/131/23
f 109/204/2 125/178/2 126/200/2 110/140/2
f 110/205/5 126/187/5 127/182/5 111/152/5
f 111/206/8 127/199/8 128/191/8 112/134/8
f 112/207/11 128/181/11 121/194/11 105/143/11
f 105/208/14 121/190/14 122/185/14 106/146/14
f 137/209/25 138/210/25 139/211/25 140/212/25 141/213/25 142/214/25 143/215/25 144/216/25 145/217/25 146/218/25 147/219/25 148/220/25 149/221/25 150/222/25 151/223/25 152/224/25 153/225/25 154/226/25 155/227/25 156/228/25 157/229/25 158/230/25 159/231/25 160/232/25
f 161/233/2 162/234/2 164/235/2 163/236/2
f 163/237/5 164/238/5 166/239/5 165/240/5
f 165/241/8 166/242/8 168/243/8 167/244/8
f 167/245/11 168/246/11 170/247/11 169/248/11
f 169/249/14 170/250/14 172/251/14 171/252/14
f 171/253/17 172/254/17 174/255/17 173/256/17
f 164/257/50 162/258/50 176/259/50 174/260/50 172/261/50 170/262/50 168/263/50 166/264/50
f 173/265/20 174/266/20 176/267/20 175/268/20
f 175/269/23 176/270/23 162/271/23 161/272/23
f 161/273/25 163/274/25 165/275/25 167/276/25 169/277/25 171/278/25 173/279/25 175/280/25
