# Blender v2.79 (sub 0) OBJ File: 'MK68.blend'
# www.blender.org
mtllib MK68_spoon.mtl
o Plane_Plane.002
v -0.551465 0.000000 0.188794
v 0.213511 -0.047118 0.188794
v 0.154831 0.000000 0.188794
v 0.386493 -1.413389 0.113965
v 0.278361 -0.143709 0.166258
v -0.551465 -0.060394 0.188794
v 0.154831 -0.060394 0.188794
v 0.258934 -1.507732 0.113965
v 0.293066 -0.316372 0.113965
v -0.539918 -0.011547 0.177247
v 0.202181 -0.055352 0.174519
v 0.149728 -0.014504 0.176005
v 0.368268 -1.405152 0.113965
v 0.259747 -0.150570 0.163725
v -0.537323 -0.060394 0.174652
v 0.154632 -0.059517 0.168815
v 0.247041 -1.491652 0.113965
v 0.273139 -0.318069 0.113965
v -0.433388 0.000000 0.188794
v -0.433388 -0.060394 0.188794
v -0.434982 -0.012211 0.176968
v -0.431869 -0.060197 0.173342
v -0.271098 0.000000 0.188794
v -0.271098 -0.060394 0.188794
v -0.272628 -0.012518 0.176839
v -0.269275 -0.060106 0.172736
v -0.407306 -0.187649 0.185740
v -0.406376 -0.187452 0.176279
v -0.296532 -0.187649 0.185740
v -0.295416 -0.187361 0.175907
v -0.377127 -0.091271 0.173890
v -0.377127 -0.100121 0.187841
v -0.377127 -0.091271 0.188053
v -0.377127 -0.124457 0.187257
v -0.377127 -0.124457 0.174686
v -0.319647 -0.091271 0.173676
v -0.319647 -0.091271 0.188053
v -0.319647 -0.124457 0.174478
v -0.319647 -0.124457 0.187257
v -0.348387 -0.074677 0.173382
v -0.348387 -0.074677 0.188451
v -0.348387 -0.141050 0.186858
v -0.348387 -0.141050 0.174984
v -0.551465 0.000000 -0.188794
v 0.213511 -0.047118 -0.188794
v 0.154831 0.000000 -0.188794
v 0.386493 -1.413389 -0.113965
v 0.278361 -0.143709 -0.166258
v -0.551465 0.000000 0.000000
v 0.213511 -0.047116 0.000000
v 0.154831 0.000000 0.000000
v 0.386493 -1.413389 0.000000
v 0.278361 -0.143709 0.000000
v -0.551465 -0.060394 -0.188794
v 0.154831 -0.060394 -0.188794
v 0.258934 -1.507732 -0.113965
v 0.258934 -1.507732 0.000000
v 0.293066 -0.316372 -0.113965
v 0.293066 -0.316372 0.000000
v -0.551465 -0.060398 0.000000
v -0.539918 -0.011547 -0.177247
v 0.202181 -0.055352 -0.174519
v 0.149728 -0.014504 -0.176005
v 0.368268 -1.405152 -0.113965
v 0.259747 -0.150570 -0.163725
v -0.537323 -0.014142 0.000000
v 0.198779 -0.060642 0.000000
v 0.148194 -0.018867 0.000000
v 0.368268 -1.405152 0.000000
v 0.259494 -0.150343 0.000000
v -0.537323 -0.060394 -0.174652
v 0.154632 -0.059517 -0.168815
v 0.247041 -1.491652 -0.113965
v 0.247041 -1.491652 0.000000
v 0.273139 -0.318069 -0.113965
v 0.273139 -0.318069 0.000000
v -0.531465 -0.060398 0.000000
v -0.433388 0.000000 -0.188794
v -0.433388 0.000000 0.000000
v -0.433388 -0.060394 -0.188794
v -0.434982 -0.012211 -0.176968
v -0.433314 -0.015202 0.000000
v -0.431869 -0.060197 -0.173342
v -0.271098 0.000000 -0.188794
v -0.271098 -0.060394 -0.188794
v -0.272628 -0.012518 -0.176839
v -0.269275 -0.060106 -0.172736
v -0.271098 0.000000 0.000000
v -0.271389 -0.015693 0.000000
v -0.407306 -0.187649 -0.185740
v -0.406376 -0.187452 -0.176279
v -0.296532 -0.187649 -0.185740
v -0.295416 -0.187361 -0.175907
v -0.377127 -0.091271 -0.173890
v -0.377127 -0.100121 -0.187841
v -0.377127 -0.091271 -0.188053
v -0.377127 -0.124457 -0.187257
v -0.377127 -0.124457 -0.174686
v -0.319647 -0.091271 -0.173676
v -0.319647 -0.091271 -0.188053
v -0.319647 -0.124457 -0.174478
v -0.319647 -0.124457 -0.187257
v -0.348387 -0.074677 -0.173382
v -0.348387 -0.074677 -0.188451
v -0.348387 -0.141050 -0.186858
v -0.348387 -0.141050 -0.174984
vn 0.9964 0.0849 0.0000
vn 0.8302 0.5574 0.0000
vn 0.0000 1.0000 0.0000
vn 0.6261 0.7797 0.0000
vn 0.0000 0.0000 1.0000
vn 0.0265 -0.2242 0.9742
vn 0.5946 -0.8040 0.0000
vn -1.0000 0.0000 0.0000
vn -0.9962 -0.0872 0.0000
vn -0.8418 -0.5395 0.0172
vn -0.0061 -0.9998 0.0214
vn -0.6250 -0.7800 0.0303
vn -0.0074 0.0637 -0.9979
vn 0.1029 0.1678 -0.9804
vn -0.5808 0.8140 0.0000
vn -0.9968 -0.0805 0.0008
vn 0.9959 0.0879 0.0233
vn 0.0008 -1.0000 -0.0062
vn -0.8040 -0.5946 0.0000
vn 0.0008 -0.2873 0.9578
vn 0.0000 -1.0000 0.0000
vn 0.1024 0.1729 -0.9796
vn -0.6552 -0.7549 -0.0267
vn -0.9753 -0.1976 -0.0990
vn -0.0022 0.0805 -0.9968
vn -0.0082 -0.9998 0.0157
vn -0.0054 0.1206 -0.9927
vn 0.0005 -0.9995 -0.0323
vn -0.0025 -0.9998 0.0174
vn 0.0004 -0.9997 -0.0251
vn -0.0035 -0.0240 -0.9997
vn 0.0000 -0.0240 0.9997
vn 0.9745 -0.1974 0.1062
vn 0.5000 -0.8660 0.0000
vn -0.5000 0.8660 0.0000
vn 0.5000 0.8660 -0.0000
vn -0.5000 -0.8660 0.0000
vn 1.0000 0.0000 -0.0000
vn 0.0000 0.0000 -1.0000
vn 0.0265 -0.2242 -0.9742
vn -0.8418 -0.5395 -0.0172
vn -0.0061 -0.9998 -0.0214
vn -0.6250 -0.7800 -0.0303
vn -0.0074 0.0637 0.9979
vn 0.1029 0.1678 0.9804
vn -0.9968 -0.0805 -0.0008
vn 0.9959 0.0879 -0.0233
vn 0.0008 -1.0000 0.0062
vn 0.0008 -0.2873 -0.9578
vn 0.1024 0.1729 0.9796
vn -0.6552 -0.7549 0.0267
vn -0.9753 -0.1976 0.0990
vn -0.0022 0.0805 0.9968
vn -0.0082 -0.9998 -0.0157
vn -0.0054 0.1206 0.9927
vn 0.0005 -0.9995 0.0323
vn -0.0025 -0.9998 -0.0174
vn 0.0004 -0.9997 0.0251
vn -0.0035 -0.0240 0.9997
vn 0.0000 -0.0240 -0.9997
vn 0.9745 -0.1974 -0.1062
usemtl None
s off
f 59//1 9//1 4//1 52//1
f 50//2 2//2 5//2 53//2
f 23//3 3//3 51//3 88//3
f 3//4 2//4 50//4 51//4
f 19//5 1//5 6//5 20//5
f 3//5 7//5 2//5
f 5//6 2//6 7//6 14//6
f 52//7 4//7 8//7 57//7
f 53//1 5//1 9//1 59//1
f 60//8 6//8 1//8 49//8
f 76//9 69//9 13//9 18//9
f 67//10 70//10 14//10 11//10
f 25//11 89//11 68//11 12//11
f 12//12 68//12 67//12 11//12
f 21//13 22//13 15//13 10//13
f 12//14 11//14 16//14
f 69//15 74//15 17//15 13//15
f 70//16 76//16 18//16 14//16
f 77//17 66//17 10//17 15//17
f 4//5 9//5 18//5 13//5
f 20//18 6//18 15//18 22//18
f 57//19 8//19 17//19 74//19
f 8//5 4//5 13//5 17//5
f 9//20 5//20 14//20 18//20
f 6//21 60//21 77//21 15//21
f 14//22 16//22 11//22
f 14//23 7//23 16//23
f 20//24 22//24 28//24 27//24
f 25//25 26//25 22//25 21//25
f 10//26 66//26 82//26 21//26
f 23//5 19//5 20//5 24//5
f 1//3 19//3 79//3 49//3
f 3//5 23//5 24//5 7//5
f 12//27 16//27 26//27 25//27
f 7//28 24//28 26//28 16//28
f 21//29 82//29 89//29 25//29
f 19//3 23//3 88//3 79//3
f 29//30 27//30 28//30 30//30
f 22//31 26//31 36//31 40//31 31//31 35//31 28//31
f 24//32 37//32 39//32 42//32 34//32 32//32 20//32 27//32 29//32
f 26//33 24//33 29//33 30//33
f 40//34 41//34 33//34 31//34
f 43//35 42//35 39//35 38//35
f 38//8 39//8 37//8 36//8
f 35//36 34//36 42//36 43//36
f 20//32 32//32 33//32 41//32 37//32 24//32
f 28//31 35//31 43//31 38//31 36//31 26//31 30//31
f 36//37 37//37 41//37 40//37
f 31//38 33//38 32//38 34//38 35//38
f 59//1 52//1 47//1 58//1
f 50//2 53//2 48//2 45//2
f 84//3 88//3 51//3 46//3
f 46//4 51//4 50//4 45//4
f 78//39 80//39 54//39 44//39
f 46//39 45//39 55//39
f 48//40 65//40 55//40 45//40
f 52//7 57//7 56//7 47//7
f 53//1 59//1 58//1 48//1
f 60//8 49//8 44//8 54//8
f 76//9 75//9 64//9 69//9
f 67//41 62//41 65//41 70//41
f 86//42 63//42 68//42 89//42
f 63//43 62//43 67//43 68//43
f 81//44 61//44 71//44 83//44
f 63//45 72//45 62//45
f 69//15 64//15 73//15 74//15
f 70//46 65//46 75//46 76//46
f 77//47 71//47 61//47 66//47
f 47//39 64//39 75//39 58//39
f 50//5 67//5 70//5 53//5
f 59//5 76//5 69//5 52//5
f 88//5 89//5 68//5 51//5
f 51//5 68//5 67//5 50//5
f 80//48 83//48 71//48 54//48
f 57//19 74//19 73//19 56//19
f 56//39 73//39 64//39 47//39
f 52//5 69//5 74//5 57//5
f 58//49 75//49 65//49 48//49
f 53//5 70//5 76//5 59//5
f 60//5 77//5 66//5 49//5
f 54//21 71//21 77//21 60//21
f 65//50 62//50 72//50
f 65//51 72//51 55//51
f 80//52 90//52 91//52 83//52
f 49//5 66//5 82//5 79//5
f 86//53 81//53 83//53 87//53
f 61//54 81//54 82//54 66//54
f 84//39 85//39 80//39 78//39
f 44//3 49//3 79//3 78//3
f 46//39 55//39 85//39 84//39
f 63//55 86//55 87//55 72//55
f 55//56 72//56 87//56 85//56
f 79//5 82//5 89//5 88//5
f 81//57 86//57 89//57 82//57
f 78//3 79//3 88//3 84//3
f 92//58 93//58 91//58 90//58
f 83//59 91//59 98//59 94//59 103//59 99//59 87//59
f 85//60 92//60 90//60 80//60 95//60 97//60 105//60 102//60 100//60
f 87//61 93//61 92//61 85//61
f 103//34 94//34 96//34 104//34
f 106//35 101//35 102//35 105//35
f 101//8 99//8 100//8 102//8
f 98//36 106//36 105//36 97//36
f 80//60 85//60 100//60 104//60 96//60 95//60
f 91//59 93//59 87//59 99//59 101//59 106//59 98//59
f 99//37 103//37 104//37 100//37
f 94//38 98//38 97//38 95//38 96//38
