# Blender v2.79 (sub 0) OBJ File: 'MK68.blend'
# www.blender.org
mtllib MK68_wire_blue.mtl
o BezierCurve.002
v 0.219484 0.591422 -0.039046
v 0.213990 0.596661 -0.027549
v 0.209382 0.591400 -0.015681
v 0.208357 0.578720 -0.010392
v 0.211518 0.566050 -0.014781
v 0.217012 0.560811 -0.026278
v 0.221621 0.566072 -0.038147
v 0.222645 0.578752 -0.043435
v 0.265127 0.592010 -0.008336
v 0.256284 0.597258 0.000832
v 0.246745 0.592010 0.009274
v 0.242098 0.579341 0.012044
v 0.245065 0.566671 0.007520
v 0.253908 0.561423 -0.001649
v 0.263447 0.566671 -0.010090
v 0.268094 0.579341 -0.012860
v 0.289851 0.582343 0.032434
v 0.278973 0.588385 0.038345
v 0.266192 0.584403 0.041599
v 0.258997 0.572727 0.040291
v 0.261601 0.560199 0.035188
v 0.272480 0.554156 0.029277
v 0.285261 0.558139 0.026023
v 0.292456 0.569814 0.027331
v 0.296134 0.563344 0.077492
v 0.284829 0.570397 0.080993
v 0.271268 0.568271 0.079824
v 0.263394 0.558209 0.074671
v 0.265819 0.546107 0.068551
v 0.277124 0.539053 0.065051
v 0.290685 0.541180 0.066219
v 0.298559 0.551242 0.071373
v 0.289132 0.536321 0.122667
v 0.277953 0.543977 0.125157
v 0.264710 0.543389 0.121405
v 0.257161 0.534901 0.113609
v 0.259729 0.523485 0.106337
v 0.270908 0.515829 0.103847
v 0.284151 0.516417 0.107599
v 0.291700 0.524905 0.115395
v 0.273644 0.501671 0.165873
v 0.262497 0.509405 0.168265
v 0.249696 0.509875 0.163196
v 0.242738 0.502804 0.153636
v 0.245700 0.492335 0.145186
v 0.256847 0.484600 0.142794
v 0.269649 0.484131 0.147863
v 0.276606 0.491202 0.157422
v 0.253600 0.459443 0.205059
v 0.242246 0.466723 0.207870
v 0.229744 0.467852 0.202194
v 0.223417 0.462169 0.191356
v 0.226972 0.453003 0.181704
v 0.238325 0.445723 0.178893
v 0.250827 0.444595 0.184570
v 0.257154 0.450278 0.195408
v 0.232651 0.409703 0.237847
v 0.220861 0.415904 0.241359
v 0.208482 0.417336 0.235486
v 0.202765 0.413161 0.223667
v 0.207059 0.405823 0.212827
v 0.218849 0.399622 0.209315
v 0.231229 0.398190 0.215188
v 0.236945 0.402365 0.227007
v 0.214402 0.352588 0.261662
v 0.202049 0.356949 0.265927
v 0.189647 0.358306 0.260084
v 0.184460 0.355865 0.247557
v 0.189528 0.351054 0.235683
v 0.201880 0.346693 0.231419
v 0.214283 0.345336 0.237262
v 0.219469 0.347778 0.249789
v 0.202453 0.288325 0.273849
v 0.189638 0.290060 0.278599
v 0.177151 0.290938 0.272844
v 0.172307 0.290444 0.259957
v 0.177944 0.288868 0.247485
v 0.190759 0.287133 0.242735
v 0.203245 0.286255 0.248489
v 0.208089 0.286749 0.261377
v 0.200374 0.217204 0.271756
v 0.187482 0.215848 0.276419
v 0.174975 0.215920 0.270642
v 0.170180 0.217380 0.257810
v 0.175906 0.219371 0.245438
v 0.188798 0.220727 0.240776
v 0.201305 0.220655 0.246552
v 0.206100 0.219196 0.259385
v 0.211682 0.139490 0.252777
v 0.199212 0.135182 0.256742
v 0.186836 0.134337 0.250749
v 0.181805 0.137450 0.238307
v 0.187065 0.142697 0.226706
v 0.199536 0.147005 0.222741
v 0.211912 0.147850 0.228734
v 0.216943 0.144737 0.241176
v 0.239826 0.055496 0.214367
v 0.227865 0.049490 0.217632
v 0.215681 0.048009 0.211376
v 0.210410 0.051919 0.199263
v 0.215141 0.058930 0.188389
v 0.227102 0.064935 0.185123
v 0.239287 0.066417 0.191379
v 0.244557 0.062507 0.203492
v 0.260729 0.004053 0.188060
v 0.248787 -0.002003 0.191302
v 0.236657 -0.003629 0.184977
v 0.231444 0.000129 0.172791
v 0.236202 0.007068 0.161882
v 0.248144 0.013124 0.158641
v 0.260274 0.014749 0.164965
v 0.265487 0.010992 0.177151
v 0.279862 -0.050046 0.164707
v 0.267687 -0.055439 0.168238
v 0.255493 -0.056886 0.161991
v 0.250425 -0.053541 0.149625
v 0.255451 -0.047363 0.138384
v 0.267627 -0.041970 0.134852
v 0.279820 -0.040523 0.141099
v 0.284888 -0.043868 0.153466
v 0.296457 -0.105612 0.143749
v 0.284070 -0.110292 0.147552
v 0.271772 -0.111386 0.141440
v 0.266767 -0.108253 0.128993
v 0.271987 -0.102729 0.117503
v 0.284373 -0.098049 0.113700
v 0.296671 -0.096955 0.119812
v 0.301676 -0.100087 0.132259
v 0.309655 -0.161270 0.124724
v 0.297080 -0.165146 0.128805
v 0.284650 -0.165671 0.122889
v 0.279644 -0.162537 0.110443
v 0.284996 -0.157580 0.098756
v 0.297571 -0.153705 0.094675
v 0.310002 -0.153180 0.100590
v 0.315007 -0.156314 0.113037
v 0.318586 -0.215686 0.107140
v 0.305860 -0.218605 0.111534
v 0.293293 -0.218275 0.105899
v 0.288247 -0.214889 0.093534
v 0.293679 -0.210431 0.081684
v 0.306405 -0.207512 0.077290
v 0.318972 -0.207842 0.082926
v 0.324018 -0.211228 0.095290
v 0.322344 -0.267572 0.090479
v 0.309540 -0.269298 0.095262
v 0.296892 -0.267720 0.090033
v 0.291810 -0.263762 0.077855
v 0.297270 -0.259744 0.065862
v 0.310074 -0.258018 0.061079
v 0.322721 -0.259596 0.066308
v 0.327804 -0.263554 0.078486
v 0.319928 -0.315702 0.074166
v 0.307219 -0.315891 0.079480
v 0.294682 -0.312519 0.074870
v 0.289661 -0.307562 0.063037
v 0.295098 -0.303923 0.050913
v 0.307807 -0.303735 0.045599
v 0.320344 -0.307107 0.050209
v 0.325365 -0.312064 0.062041
v 0.310142 -0.358829 0.057558
v 0.297911 -0.357056 0.063645
v 0.285976 -0.351214 0.060009
v 0.281328 -0.344726 0.048779
v 0.286690 -0.341393 0.036535
v 0.298921 -0.343166 0.030447
v 0.310856 -0.349008 0.034084
v 0.315504 -0.355496 0.045313
v 0.291537 -0.395379 0.039995
v 0.280505 -0.391348 0.047194
v 0.270160 -0.382509 0.045033
v 0.266564 -0.374041 0.034779
v 0.271821 -0.370904 0.022438
v 0.282854 -0.374935 0.015239
v 0.293199 -0.383774 0.017400
v 0.296795 -0.392242 0.027654
v 0.262867 -0.423013 0.021070
v 0.253933 -0.416990 0.029655
v 0.246484 -0.405404 0.029408
v 0.244884 -0.395041 0.020472
v 0.250070 -0.391972 0.008083
v 0.259004 -0.397995 -0.000502
v 0.266453 -0.409582 -0.000254
v 0.268053 -0.419944 0.008681
v 0.223939 -0.439148 0.000831
v 0.217562 -0.432038 0.010759
v 0.213753 -0.418903 0.012424
v 0.214745 -0.407438 0.004850
v 0.219956 -0.404358 -0.007525
v 0.226333 -0.411468 -0.017454
v 0.230142 -0.424603 -0.019118
v 0.229150 -0.436068 -0.011545
v 0.175095 -0.442227 -0.020712
v 0.171055 -0.434937 -0.009742
v 0.170663 -0.421540 -0.006555
v 0.174148 -0.409883 -0.013019
v 0.179468 -0.406795 -0.025346
v 0.183507 -0.414085 -0.036316
v 0.183899 -0.427482 -0.039502
v 0.180415 -0.439139 -0.033039
vn 0.3939 0.6968 -0.5994
vn 0.5654 0.6920 -0.4487
vn 0.7235 0.0226 -0.6900
vn 0.5573 0.0361 -0.8295
vn 0.0144 0.9990 -0.0421
vn 0.1025 0.9941 0.0350
vn -0.3889 0.7272 0.5656
vn -0.4302 0.7440 0.5112
vn -0.5540 0.0008 0.8325
vn -0.7198 0.0297 0.6935
vn -0.3745 -0.7216 0.5822
vn -0.5464 -0.7192 0.4291
vn 0.0376 -0.9988 -0.0311
vn -0.0254 -0.9939 -0.1072
vn 0.4244 -0.6620 -0.6178
vn 0.4923 -0.6659 -0.5606
vn 0.7897 0.6078 -0.0835
vn 0.9327 -0.0559 -0.3563
vn 0.2192 0.9467 0.2357
vn -0.4877 0.7611 0.4277
vn -0.9244 0.1114 0.3646
vn -0.7787 -0.6237 0.0677
vn -0.1356 -0.9534 -0.2696
vn 0.5681 -0.6970 -0.4375
vn 0.8437 0.4778 0.2447
vn 0.9814 -0.1723 -0.0840
vn 0.2398 0.8657 0.4393
vn -0.5097 0.7689 0.3860
vn -0.9715 0.2150 0.0994
vn -0.8409 -0.4788 -0.2524
vn -0.1871 -0.8751 -0.4461
vn 0.5694 -0.7342 -0.3696
vn 0.8149 0.3601 0.4541
vn 0.9632 -0.2619 0.0602
vn 0.2084 0.7784 0.5922
vn -0.5214 0.7571 0.3936
vn -0.9553 0.2931 -0.0389
vn -0.8189 -0.3524 -0.4530
vn -0.1827 -0.7853 -0.5915
vn 0.5592 -0.7404 -0.3728
vn 0.7711 0.2662 0.5783
vn 0.9435 -0.3096 0.1177
vn 0.1612 0.6876 0.7079
vn -0.5420 0.7190 0.4350
vn -0.9377 0.3347 -0.0925
vn -0.7814 -0.2521 -0.5708
vn -0.1525 -0.6905 -0.7071
vn 0.5668 -0.7108 -0.4164
vn 0.7312 0.1883 0.6556
vn 0.9390 -0.3192 0.1278
vn 0.1072 0.5838 0.8048
vn -0.5770 0.6478 0.4974
vn -0.9350 0.3411 -0.0973
vn -0.7483 -0.1692 -0.6414
vn -0.1107 -0.5828 -0.8050
vn 0.5946 -0.6440 -0.4813
vn 0.6980 0.1185 0.7062
vn 0.9504 -0.2902 0.1119
vn 0.0488 0.4542 0.8895
vn -0.6253 0.5324 0.5705
vn -0.9481 0.3091 -0.0738
vn -0.7238 -0.0967 -0.6832
vn -0.0633 -0.4502 -0.8907
vn 0.6388 -0.5311 -0.5565
vn 0.6727 0.0520 0.7380
vn 0.9722 -0.2176 0.0860
vn -0.0076 0.2874 0.9578
vn -0.6791 0.3601 0.6396
vn -0.9721 0.2310 -0.0389
vn -0.7091 -0.0330 -0.7043
vn -0.0179 -0.2821 -0.9592
vn 0.6900 -0.3604 -0.6276
vn 0.6579 -0.0110 0.7530
vn 0.9926 -0.1005 0.0670
vn -0.0479 0.0829 0.9954
vn -0.7207 0.1297 0.6810
vn -0.9944 0.1044 -0.0136
vn -0.7035 0.0191 -0.7104
vn 0.0127 -0.0795 -0.9967
vn 0.7294 -0.1305 -0.6714
vn 0.6557 -0.0643 0.7523
vn 0.9964 0.0467 0.0707
vn -0.0553 -0.1363 0.9891
vn -0.7284 -0.1317 0.6723
vn -0.9984 -0.0538 -0.0188
vn -0.7032 0.0558 -0.7088
vn 0.0159 0.1346 -0.9908
vn 0.7347 0.1313 -0.6656
vn 0.6632 -0.0998 0.7417
vn 0.9755 0.1948 0.1021
vn -0.0263 -0.3314 0.9431
vn -0.6949 -0.3749 0.6136
vn -0.9761 -0.2091 -0.0592
vn -0.7040 0.0781 -0.7059
vn -0.0105 0.3247 -0.9457
vn 0.6984 0.3757 -0.6092
vn 0.6802 -0.0995 0.7262
vn 0.9485 0.2925 0.1215
vn 0.0144 -0.4308 0.9023
vn -0.6565 -0.5108 0.5550
vn -0.9485 -0.2962 -0.1124
vn -0.6907 0.0915 -0.7172
vn -0.0266 0.4276 -0.9035
vn 0.6547 0.5119 -0.5561
vn 0.6867 -0.0795 0.7225
vn 0.9455 0.3048 0.1144
vn 0.0219 -0.4189 0.9077
vn -0.6577 -0.5103 0.5541
vn -0.9458 -0.2986 -0.1279
vn -0.6760 0.0879 -0.7317
vn -0.0139 0.4214 -0.9067
vn 0.6545 0.5107 -0.5575
vn 0.6831 -0.0711 0.7269
vn 0.9573 0.2707 0.1017
vn 0.0065 -0.3727 0.9279
vn -0.6759 -0.4545 0.5801
vn -0.9573 -0.2666 -0.1118
vn -0.6730 0.0779 -0.7355
vn 0.0031 0.3755 -0.9268
vn 0.6755 0.4546 -0.5805
vn 0.6846 -0.0772 0.7248
vn 0.9697 0.2280 0.0872
vn -0.0023 -0.3386 0.9409
vn -0.6904 -0.4010 0.6021
vn -0.9696 -0.2256 -0.0943
vn -0.6748 0.0829 -0.7333
vn 0.0144 0.3415 -0.9398
vn 0.6928 0.4007 -0.5995
vn 0.6900 -0.1001 0.7169
vn 0.9823 0.1734 0.0700
vn -0.0057 -0.3164 0.9486
vn -0.7013 -0.3474 0.6224
vn -0.9822 -0.1722 -0.0741
vn -0.6799 0.1049 -0.7258
vn 0.0214 0.3192 -0.9474
vn 0.7070 0.3465 -0.6164
vn 0.6973 -0.1438 0.7022
vn 0.9936 0.1017 0.0484
vn -0.0047 -0.3070 0.9517
vn -0.7083 -0.2909 0.6431
vn -0.9936 -0.1017 -0.0492
vn -0.6863 0.1480 -0.7120
vn 0.0255 0.3091 -0.9507
vn 0.7182 0.2887 -0.6331
vn 0.7027 -0.2158 0.6779
vn 0.9998 0.0049 0.0191
vn -0.0006 -0.3133 0.9496
vn -0.7095 -0.2282 0.6667
vn -0.9998 -0.0067 -0.0160
vn -0.6901 0.2191 -0.6897
vn 0.0289 0.3133 -0.9492
vn 0.7252 0.2231 -0.6514
vn 0.6971 -0.3263 0.6384
vn 0.9916 -0.1273 -0.0236
vn 0.0031 -0.3403 0.9403
vn -0.7008 -0.1562 0.6960
vn -0.9919 0.1227 0.0316
vn -0.6821 0.3281 -0.6535
vn 0.0357 0.3350 -0.9415
vn 0.7244 0.1445 -0.6741
vn 0.6599 -0.4846 0.5741
vn 0.9487 -0.3034 -0.0892
vn -0.0026 -0.3942 0.9190
vn -0.6744 -0.0739 0.7346
vn -0.9500 0.2946 0.1036
vn -0.6424 0.4839 -0.5943
vn 0.0538 0.3772 -0.9246
vn 0.7068 0.0489 -0.7056
vn 0.5564 -0.6812 0.4758
vn 0.8383 -0.5118 -0.1877
vn -0.0368 -0.4734 0.8801
vn -0.6207 0.0112 0.7840
vn -0.8413 0.4983 0.2094
vn -0.5376 0.6781 -0.5011
vn 0.0951 0.4372 -0.8943
vn 0.6573 -0.0576 -0.7514
vn 0.3636 -0.8639 0.3485
vn 0.6416 -0.6991 -0.3155
vn -0.1171 -0.5528 0.8250
vn -0.5402 0.0820 0.8375
vn -0.6458 0.6828 0.3417
vn -0.3457 0.8600 -0.3752
vn 0.1662 0.4998 -0.8500
vn 0.5674 -0.1475 -0.8101
vn 0.1171 -0.9681 0.2215
vn 0.3976 -0.8030 -0.4440
vn -0.2301 -0.5970 0.7685
vn -0.4508 0.1246 0.8838
vn -0.4028 0.7865 0.4681
vn -0.1033 0.9643 -0.2439
vn 0.2575 0.5437 -0.7988
vn 0.4591 -0.1906 -0.8677
vn -0.0097 -0.9866 0.1628
vn 0.2723 -0.8219 -0.5003
vn -0.2897 -0.6036 0.7428
vn -0.4061 0.1401 0.9030
vn -0.2778 0.8076 0.5201
vn 0.0199 0.9834 -0.1802
vn 0.3053 0.5595 -0.7705
vn 0.4058 -0.1955 -0.8928
usemtl None
s 1
f 1//1 9//2 16//3 8//4
f 2//5 10//6 9//2 1//1
f 3//7 11//8 10//6 2//5
f 4//9 12//10 11//8 3//7
f 5//11 13//12 12//10 4//9
f 6//13 14//14 13//12 5//11
f 7//15 15//16 14//14 6//13
f 8//4 16//3 15//16 7//15
f 9//2 17//17 24//18 16//3
f 10//6 18//19 17//17 9//2
f 11//8 19//20 18//19 10//6
f 12//10 20//21 19//20 11//8
f 13//12 21//22 20//21 12//10
f 14//14 22//23 21//22 13//12
f 15//16 23//24 22//23 14//14
f 16//3 24//18 23//24 15//16
f 17//17 25//25 32//26 24//18
f 18//19 26//27 25//25 17//17
f 19//20 27//28 26//27 18//19
f 20//21 28//29 27//28 19//20
f 21//22 29//30 28//29 20//21
f 22//23 30//31 29//30 21//22
f 23//24 31//32 30//31 22//23
f 24//18 32//26 31//32 23//24
f 25//25 33//33 40//34 32//26
f 26//27 34//35 33//33 25//25
f 27//28 35//36 34//35 26//27
f 28//29 36//37 35//36 27//28
f 29//30 37//38 36//37 28//29
f 30//31 38//39 37//38 29//30
f 31//32 39//40 38//39 30//31
f 32//26 40//34 39//40 31//32
f 33//33 41//41 48//42 40//34
f 34//35 42//43 41//41 33//33
f 35//36 43//44 42//43 34//35
f 36//37 44//45 43//44 35//36
f 37//38 45//46 44//45 36//37
f 38//39 46//47 45//46 37//38
f 39//40 47//48 46//47 38//39
f 40//34 48//42 47//48 39//40
f 41//41 49//49 56//50 48//42
f 42//43 50//51 49//49 41//41
f 43//44 51//52 50//51 42//43
f 44//45 52//53 51//52 43//44
f 45//46 53//54 52//53 44//45
f 46//47 54//55 53//54 45//46
f 47//48 55//56 54//55 46//47
f 48//42 56//50 55//56 47//48
f 49//49 57//57 64//58 56//50
f 50//51 58//59 57//57 49//49
f 51//52 59//60 58//59 50//51
f 52//53 60//61 59//60 51//52
f 53//54 61//62 60//61 52//53
f 54//55 62//63 61//62 53//54
f 55//56 63//64 62//63 54//55
f 56//50 64//58 63//64 55//56
f 57//57 65//65 72//66 64//58
f 58//59 66//67 65//65 57//57
f 59//60 67//68 66//67 58//59
f 60//61 68//69 67//68 59//60
f 61//62 69//70 68//69 60//61
f 62//63 70//71 69//70 61//62
f 63//64 71//72 70//71 62//63
f 64//58 72//66 71//72 63//64
f 65//65 73//73 80//74 72//66
f 66//67 74//75 73//73 65//65
f 67//68 75//76 74//75 66//67
f 68//69 76//77 75//76 67//68
f 69//70 77//78 76//77 68//69
f 70//71 78//79 77//78 69//70
f 71//72 79//80 78//79 70//71
f 72//66 80//74 79//80 71//72
f 73//73 81//81 88//82 80//74
f 74//75 82//83 81//81 73//73
f 75//76 83//84 82//83 74//75
f 76//77 84//85 83//84 75//76
f 77//78 85//86 84//85 76//77
f 78//79 86//87 85//86 77//78
f 79//80 87//88 86//87 78//79
f 80//74 88//82 87//88 79//80
f 81//81 89//89 96//90 88//82
f 82//83 90//91 89//89 81//81
f 83//84 91//92 90//91 82//83
f 84//85 92//93 91//92 83//84
f 85//86 93//94 92//93 84//85
f 86//87 94//95 93//94 85//86
f 87//88 95//96 94//95 86//87
f 88//82 96//90 95//96 87//88
f 89//89 97//97 104//98 96//90
f 90//91 98//99 97//97 89//89
f 91//92 99//100 98//99 90//91
f 92//93 100//101 99//100 91//92
f 93//94 101//102 100//101 92//93
f 94//95 102//103 101//102 93//94
f 95//96 103//104 102//103 94//95
f 96//90 104//98 103//104 95//96
f 97//97 105//105 112//106 104//98
f 98//99 106//107 105//105 97//97
f 99//100 107//108 106//107 98//99
f 100//101 108//109 107//108 99//100
f 101//102 109//110 108//109 100//101
f 102//103 110//111 109//110 101//102
f 103//104 111//112 110//111 102//103
f 104//98 112//106 111//112 103//104
f 105//105 113//113 120//114 112//106
f 106//107 114//115 113//113 105//105
f 107//108 115//116 114//115 106//107
f 108//109 116//117 115//116 107//108
f 109//110 117//118 116//117 108//109
f 110//111 118//119 117//118 109//110
f 111//112 119//120 118//119 110//111
f 112//106 120//114 119//120 111//112
f 113//113 121//121 128//122 120//114
f 114//115 122//123 121//121 113//113
f 115//116 123//124 122//123 114//115
f 116//117 124//125 123//124 115//116
f 117//118 125//126 124//125 116//117
f 118//119 126//127 125//126 117//118
f 119//120 127//128 126//127 118//119
f 120//114 128//122 127//128 119//120
f 121//121 129//129 136//130 128//122
f 122//123 130//131 129//129 121//121
f 123//124 131//132 130//131 122//123
f 124//125 132//133 131//132 123//124
f 125//126 133//134 132//133 124//125
f 126//127 134//135 133//134 125//126
f 127//128 135//136 134//135 126//127
f 128//122 136//130 135//136 127//128
f 129//129 137//137 144//138 136//130
f 130//131 138//139 137//137 129//129
f 131//132 139//140 138//139 130//131
f 132//133 140//141 139//140 131//132
f 133//134 141//142 140//141 132//133
f 134//135 142//143 141//142 133//134
f 135//136 143//144 142//143 134//135
f 136//130 144//138 143//144 135//136
f 137//137 145//145 152//146 144//138
f 138//139 146//147 145//145 137//137
f 139//140 147//148 146//147 138//139
f 140//141 148//149 147//148 139//140
f 141//142 149//150 148//149 140//141
f 142//143 150//151 149//150 141//142
f 143//144 151//152 150//151 142//143
f 144//138 152//146 151//152 143//144
f 145//145 153//153 160//154 152//146
f 146//147 154//155 153//153 145//145
f 147//148 155//156 154//155 146//147
f 148//149 156//157 155//156 147//148
f 149//150 157//158 156//157 148//149
f 150//151 158//159 157//158 149//150
f 151//152 159//160 158//159 150//151
f 152//146 160//154 159//160 151//152
f 153//153 161//161 168//162 160//154
f 154//155 162//163 161//161 153//153
f 155//156 163//164 162//163 154//155
f 156//157 164//165 163//164 155//156
f 157//158 165//166 164//165 156//157
f 158//159 166//167 165//166 157//158
f 159//160 167//168 166//167 158//159
f 160//154 168//162 167//168 159//160
f 161//161 169//169 176//170 168//162
f 162//163 170//171 169//169 161//161
f 163//164 171//172 170//171 162//163
f 164//165 172//173 171//172 163//164
f 165//166 173//174 172//173 164//165
f 166//167 174//175 173//174 165//166
f 167//168 175//176 174//175 166//167
f 168//162 176//170 175//176 167//168
f 169//169 177//177 184//178 176//170
f 170//171 178//179 177//177 169//169
f 171//172 179//180 178//179 170//171
f 172//173 180//181 179//180 171//172
f 173//174 181//182 180//181 172//173
f 174//175 182//183 181//182 173//174
f 175//176 183//184 182//183 174//175
f 176//170 184//178 183//184 175//176
f 177//177 185//185 192//186 184//178
f 178//179 186//187 185//185 177//177
f 179//180 187//188 186//187 178//179
f 180//181 188//189 187//188 179//180
f 181//182 189//190 188//189 180//181
f 182//183 190//191 189//190 181//182
f 183//184 191//192 190//191 182//183
f 184//178 192//186 191//192 183//184
f 185//185 193//193 200//194 192//186
f 186//187 194//195 193//193 185//185
f 187//188 195//196 194//195 186//187
f 188//189 196//197 195//196 187//188
f 189//190 197//198 196//197 188//189
f 190//191 198//199 197//198 189//190
f 191//192 199//200 198//199 190//191
f 192//186 200//194 199//200 191//192
