# Blender v2.79 (sub 0) OBJ File: 'MK68.blend'
# www.blender.org
mtllib MK68_wire_trigger.mtl
o Cube.020_Cube.012
v 0.347778 0.152680 0.016020
v 0.344644 0.284845 0.076670
v 0.347142 0.179484 -0.042422
v 0.344008 0.311648 0.018228
v 0.412059 0.154205 0.016020
v 0.408924 0.286369 0.076670
v 0.411423 0.181008 -0.042422
v 0.408288 0.313173 0.018228
vn -0.9997 -0.0237 -0.0000
vn -0.0099 0.4169 -0.9089
vn 0.9997 0.0237 0.0000
vn 0.0099 -0.4169 0.9089
vn 0.0216 -0.9087 -0.4170
vn -0.0216 0.9087 0.4170
usemtl None
s off
f 1//1 2//1 4//1 3//1
f 3//2 4//2 8//2 7//2
f 7//3 8//3 6//3 5//3
f 5//4 6//4 2//4 1//4
f 3//5 7//5 5//5 1//5
f 8//6 4//6 2//6 6//6
