# Blender v2.79 (sub 0) OBJ File: 'MK68.blend'
# www.blender.org
mtllib MK68_wire_red_cut.mtl
o BezierCurve.003_CUBezierCurve.003
v 0.223876 0.661268 -0.036538
v 0.214607 0.666526 -0.027807
v 0.205862 0.661266 -0.018552
v 0.202763 0.648569 -0.014196
v 0.207126 0.635873 -0.017289
v 0.216395 0.630615 -0.026020
v 0.225141 0.635875 -0.035275
v 0.228239 0.648572 -0.039631
v 0.257737 0.661231 -0.002173
v 0.248972 0.666482 0.007068
v 0.239548 0.661231 0.015636
v 0.234985 0.648554 0.018512
v 0.237957 0.635877 0.014012
v 0.246723 0.630626 0.004771
v 0.256147 0.635877 -0.003797
v 0.260709 0.648554 -0.006673
v 0.287150 0.653587 0.028045
v 0.279144 0.658626 0.038061
v 0.268987 0.653580 0.045881
v 0.262628 0.641403 0.046925
v 0.263793 0.629230 0.040581
v 0.271798 0.624190 0.030566
v 0.281955 0.629237 0.022745
v 0.288314 0.641414 0.021701
v 0.312412 0.637831 0.053484
v 0.305439 0.642211 0.064529
v 0.294563 0.637623 0.071633
v 0.286155 0.626756 0.070634
v 0.285141 0.615974 0.062118
v 0.292114 0.611594 0.051073
v 0.302990 0.616182 0.043970
v 0.311398 0.627050 0.044968
v 0.333569 0.613725 0.073233
v 0.327710 0.616838 0.085307
v 0.316260 0.612903 0.091881
v 0.305927 0.604225 0.089103
v 0.302763 0.595887 0.078602
v 0.308622 0.592774 0.066529
v 0.320072 0.596709 0.059955
v 0.330405 0.605387 0.062732
v 0.350685 0.581525 0.086466
v 0.345746 0.582944 0.099249
v 0.333951 0.579644 0.105557
v 0.322211 0.573557 0.101696
v 0.317402 0.568250 0.089927
v 0.322341 0.566831 0.077145
v 0.334135 0.570131 0.070837
v 0.345876 0.576218 0.074698
v 0.364136 0.541597 0.092771
v 0.359797 0.541293 0.105843
v 0.347852 0.538426 0.112079
v 0.335297 0.534674 0.107825
v 0.329487 0.532236 0.095573
v 0.333826 0.532539 0.082501
v 0.345771 0.535407 0.076266
v 0.358326 0.539158 0.080520
v 0.374516 0.493945 0.091967
v 0.370515 0.492156 0.105027
v 0.358523 0.489491 0.111264
v 0.345566 0.487512 0.107024
v 0.339233 0.487378 0.094790
v 0.343234 0.489167 0.081729
v 0.355225 0.491831 0.075492
v 0.368183 0.493810 0.079733
v 0.382409 0.438276 0.083812
v 0.378586 0.435291 0.096706
v 0.366590 0.432657 0.102947
v 0.353448 0.431918 0.098879
v 0.346859 0.433507 0.086885
v 0.350683 0.436492 0.073991
v 0.362679 0.439126 0.067750
v 0.375820 0.439865 0.071818
v 0.388323 0.374219 0.067950
v 0.384591 0.370283 0.080614
v 0.372602 0.367573 0.086836
v 0.359379 0.367677 0.082973
v 0.352667 0.370533 0.071285
v 0.356399 0.374469 0.058621
v 0.368388 0.377179 0.052399
v 0.381611 0.377075 0.056262
v 0.392707 0.301423 0.043952
v 0.389024 0.296724 0.056368
v 0.377044 0.293876 0.062545
v 0.363784 0.294548 0.058866
v 0.357013 0.298346 0.047486
v 0.360696 0.303045 0.035070
v 0.372676 0.305892 0.028892
v 0.385935 0.305221 0.032571
v 0.398572 0.128269 -0.030343
v 0.394916 0.122925 -0.018183
v 0.382941 0.119996 -0.012034
v 0.369662 0.121198 -0.015499
v 0.362857 0.125826 -0.026547
v 0.366513 0.131170 -0.038707
v 0.378488 0.134099 -0.044856
v 0.391767 0.132897 -0.041392
v 0.399436 0.076071 -0.051688
v 0.395766 0.071727 -0.039140
v 0.383782 0.069457 -0.032735
v 0.370503 0.070592 -0.036225
v 0.363708 0.074466 -0.047566
v 0.367378 0.078811 -0.060114
v 0.379362 0.081080 -0.066519
v 0.392641 0.079946 -0.063029
v 0.399115 0.021044 -0.067251
v 0.395458 0.018157 -0.054286
v 0.383483 0.016890 -0.047595
v 0.370203 0.017984 -0.051097
v 0.363400 0.020799 -0.062741
v 0.367057 0.023686 -0.075706
v 0.379032 0.024954 -0.082397
v 0.392311 0.023859 -0.078895
v 0.396972 -0.035349 -0.077189
v 0.393373 -0.036823 -0.063973
v 0.381443 -0.036988 -0.057085
v 0.368170 -0.035748 -0.060561
v 0.361329 -0.033829 -0.072365
v 0.364928 -0.032355 -0.085581
v 0.376858 -0.032190 -0.092468
v 0.390131 -0.033430 -0.088992
v 0.392357 -0.091746 -0.081698
v 0.388879 -0.091803 -0.068367
v 0.377056 -0.090721 -0.061379
v 0.363813 -0.089133 -0.064827
v 0.356907 -0.087969 -0.076691
v 0.360385 -0.087912 -0.090022
v 0.372208 -0.088994 -0.097010
v 0.385451 -0.090582 -0.093562
v 0.384598 -0.146799 -0.080956
v 0.381335 -0.145385 -0.067646
v 0.369723 -0.142854 -0.060679
v 0.356564 -0.140690 -0.064135
v 0.349566 -0.140159 -0.075990
v 0.352829 -0.141574 -0.089300
v 0.364441 -0.144104 -0.096267
v 0.377600 -0.146269 -0.092811
v 0.372985 -0.199170 -0.075116
v 0.370082 -0.196180 -0.061985
v 0.358859 -0.191941 -0.055211
v 0.345892 -0.188937 -0.058762
v 0.338775 -0.188927 -0.070559
v 0.341679 -0.191917 -0.083690
v 0.352901 -0.196156 -0.090464
v 0.365869 -0.199160 -0.086912
v 0.356750 -0.247494 -0.064288
v 0.354433 -0.242801 -0.051544
v 0.343901 -0.236561 -0.045225
v 0.331322 -0.232430 -0.049033
v 0.324065 -0.232827 -0.060736
v 0.326381 -0.237520 -0.073480
v 0.336914 -0.243760 -0.079799
v 0.349493 -0.247891 -0.075991
v 0.335058 -0.290303 -0.048544
v 0.333668 -0.283825 -0.036465
v 0.324296 -0.275346 -0.030981
v 0.312434 -0.269833 -0.035303
v 0.305028 -0.270516 -0.046900
v 0.306419 -0.276995 -0.058978
v 0.315790 -0.285474 -0.064463
v 0.327653 -0.290986 -0.060141
v 0.307084 -0.325909 -0.027982
v 0.307050 -0.317735 -0.016892
v 0.299470 -0.307017 -0.012714
v 0.288785 -0.300033 -0.017895
v 0.281253 -0.300873 -0.029400
v 0.281288 -0.309047 -0.040490
v 0.288867 -0.319765 -0.044668
v 0.299553 -0.326750 -0.039487
v 0.272200 -0.352383 -0.002877
v 0.273915 -0.342893 0.006962
v 0.268746 -0.330361 0.009416
v 0.259721 -0.322128 0.003048
v 0.252126 -0.323016 -0.008412
v 0.250411 -0.332506 -0.018251
v 0.255580 -0.345038 -0.020705
v 0.264605 -0.353271 -0.014337
v 0.230140 -0.367842 0.026240
v 0.233764 -0.357642 0.034762
v 0.231321 -0.344096 0.035335
v 0.224243 -0.335139 0.027625
v 0.216675 -0.336017 0.016147
v 0.213050 -0.346217 0.007625
v 0.215493 -0.359763 0.007051
v 0.222572 -0.368721 0.014762
v 0.180774 -0.370809 0.058777
v 0.186199 -0.360487 0.066114
v 0.186400 -0.346761 0.064947
v 0.181259 -0.337672 0.055960
v 0.173788 -0.338544 0.044418
v 0.168364 -0.348866 0.037081
v 0.168163 -0.362592 0.038248
v 0.173303 -0.371681 0.047235
v 0.373427 0.287115 0.021414
v 0.377814 0.274659 0.054894
v 0.361449 0.284227 0.027576
v 0.389792 0.277547 0.048732
v 0.357772 0.279382 0.039935
v 0.393469 0.282392 0.036374
v 0.364551 0.275419 0.051250
v 0.386691 0.286354 0.025058
v 0.365080 0.181724 -0.015611
v 0.361424 0.176391 -0.003446
v 0.368227 0.171829 0.007631
v 0.397134 0.179023 -0.007161
v 0.381504 0.170711 0.011131
v 0.377054 0.184704 -0.021738
v 0.390331 0.183585 -0.018238
v 0.393478 0.173690 0.005004
vn 0.4977 0.7160 -0.4896
vn 0.5429 0.7144 -0.4414
vn 0.7158 0.0215 -0.6980
vn 0.7123 0.0176 -0.7016
vn 0.0016 1.0000 -0.0005
vn 0.0635 0.9959 0.0638
vn -0.4960 0.7172 0.4894
vn -0.4520 0.7152 0.5330
vn -0.7122 0.0168 0.7017
vn -0.7129 0.0217 0.7009
vn -0.5084 -0.7004 0.5009
vn -0.5560 -0.6937 0.4579
vn 0.0013 -1.0000 -0.0011
vn -0.0613 -0.9961 -0.0638
vn 0.5099 -0.6984 -0.5022
vn 0.4702 -0.6930 -0.5465
vn 0.6417 0.6901 -0.3347
vn 0.7191 0.0275 -0.6943
vn 0.2040 0.9562 0.2097
vn -0.3473 0.6885 0.6366
vn -0.7072 0.0270 0.7065
vn -0.6561 -0.6620 0.3623
vn -0.2039 -0.9569 -0.2065
vn 0.3737 -0.6628 -0.6488
vn 0.7514 0.6221 -0.2199
vn 0.7136 0.0374 -0.6996
vn 0.3682 0.8501 0.3765
vn -0.2180 0.6076 0.7637
vn -0.6880 0.0207 0.7254
vn -0.7636 -0.5904 0.2613
vn -0.3722 -0.8509 -0.3706
vn 0.2518 -0.5819 -0.7732
vn 0.8523 0.5080 -0.1248
vn 0.6983 0.0561 -0.7136
vn 0.5264 0.6685 0.5253
vn -0.0891 0.4595 0.8837
vn -0.6612 -0.0092 0.7501
vn -0.8587 -0.4815 0.1756
vn -0.5346 -0.6682 -0.5173
vn 0.1247 -0.4386 -0.8900
vn 0.9238 0.3760 -0.0717
vn 0.6769 0.0878 -0.7308
vn 0.6456 0.4480 0.6184
vn 0.0094 0.2707 0.9626
vn -0.6377 -0.0604 0.7679
vn -0.9245 -0.3611 0.1218
vn -0.6552 -0.4469 -0.6090
vn 0.0209 -0.2571 -0.9662
vn 0.9633 0.2622 -0.0571
vn 0.6564 0.1304 -0.7430
vn 0.7171 0.2432 0.6532
vn 0.0686 0.0875 0.9938
vn -0.6230 -0.1187 0.7731
vn -0.9611 -0.2578 0.0989
vn -0.7260 -0.2430 -0.6433
vn -0.0464 -0.0801 -0.9957
vn 0.9814 0.1816 -0.0624
vn 0.6410 0.1764 -0.7470
vn 0.7540 0.0825 0.6517
vn 0.0989 -0.0632 0.9931
vn -0.6155 -0.1734 0.7688
vn -0.9785 -0.1832 0.0945
vn -0.7617 -0.0836 -0.6425
vn -0.0841 0.0668 -0.9942
vn 0.9887 0.1303 -0.0733
vn 0.6308 0.2203 -0.7439
vn 0.7717 -0.0343 0.6350
vn 0.1133 -0.1789 0.9773
vn -0.6121 -0.2210 0.7592
vn -0.9861 -0.1346 0.0974
vn -0.7785 0.0324 -0.6268
vn -0.1039 0.1805 -0.9781
vn 0.9915 0.0998 -0.0835
vn 0.6244 0.2600 -0.7365
vn 0.7801 -0.1174 0.6144
vn 0.1198 -0.2664 0.9564
vn -0.6107 -0.2620 0.7472
vn -0.9892 -0.1049 0.1018
vn -0.7861 0.1151 -0.6073
vn -0.1143 0.2672 -0.9568
vn 0.9924 0.0829 -0.0910
vn 0.6204 0.2953 -0.7266
vn 0.7842 -0.1768 0.5947
vn 0.1228 -0.3336 0.9347
vn -0.6102 -0.2976 0.7342
vn -0.9905 -0.0880 0.1052
vn -0.7895 0.1743 -0.5884
vn -0.1198 0.3339 -0.9349
vn 0.9926 0.0726 -0.0974
vn 0.9915 0.0697 -0.1098
vn 0.6124 0.3253 -0.7205
vn 0.6163 0.3416 -0.7096
vn 0.7866 -0.2380 0.5698
vn 0.7917 -0.2276 0.5668
vn 0.1237 -0.4094 0.9039
vn 0.1255 -0.3918 0.9114
vn -0.6107 -0.3433 0.7136
vn -0.6155 -0.3247 0.7181
vn -0.9912 -0.0771 0.1074
vn -0.9926 -0.0661 0.1012
vn -0.7917 0.2351 -0.5638
vn -0.7860 0.2305 -0.5735
vn -0.1246 0.4093 -0.9038
vn -0.1218 0.3917 -0.9120
vn 0.9907 0.0488 -0.1269
vn 0.6100 0.2609 -0.7482
vn 0.7963 -0.1935 0.5731
vn 0.1271 -0.3228 0.9379
vn -0.6202 -0.2586 0.7406
vn -0.9940 -0.0403 0.1018
vn -0.7811 0.1998 -0.5916
vn -0.1188 0.3229 -0.9389
vn 0.9906 0.0094 -0.1365
vn 0.6106 0.1639 -0.7748
vn 0.7963 -0.1516 0.5855
vn 0.1290 -0.2239 0.9660
vn -0.6177 -0.1625 0.7694
vn -0.9935 -0.0042 0.1138
vn -0.7815 0.1556 -0.6042
vn -0.1184 0.2241 -0.9673
vn 0.9886 -0.0408 -0.1444
vn 0.6078 0.0647 -0.7914
vn 0.7977 -0.1233 0.5904
vn 0.1342 -0.1335 0.9819
vn -0.6123 -0.0641 0.7880
vn -0.9914 0.0436 0.1234
vn -0.7826 0.1249 -0.6099
vn -0.1207 0.1330 -0.9837
vn 0.9833 -0.1045 -0.1490
vn 0.6002 -0.0402 -0.7988
vn 0.7994 -0.1086 0.5908
vn 0.1432 -0.0489 0.9885
vn -0.6020 0.0403 0.7974
vn -0.9861 0.1053 0.1288
vn -0.7835 0.1075 -0.6120
vn -0.1263 0.0471 -0.9908
vn 0.9716 -0.1849 -0.1478
vn 0.5848 -0.1552 -0.7962
vn 0.8005 -0.1082 0.5895
vn 0.1575 0.0326 0.9870
vn -0.5839 0.1547 0.7969
vn -0.9746 0.1839 0.1278
vn -0.7830 0.1035 -0.6133
vn -0.1361 -0.0367 -0.9900
vn 0.9484 -0.2860 -0.1367
vn 0.5568 -0.2845 -0.7804
vn 0.7985 -0.1234 0.5892
vn 0.1791 0.1129 0.9773
vn -0.5529 0.2834 0.7835
vn -0.9521 0.2830 0.1161
vn -0.7791 0.1133 -0.6165
vn -0.1522 -0.1211 -0.9809
vn 0.9055 -0.4100 -0.1091
vn 0.5083 -0.4305 -0.7458
vn 0.7895 -0.1557 0.5936
vn 0.2108 0.1923 0.9584
vn -0.5010 0.4283 0.7520
vn -0.9102 0.4046 0.0876
vn -0.7685 0.1375 -0.6249
vn -0.1778 -0.2073 -0.9619
vn 0.8310 -0.5533 -0.0564
vn 0.4280 -0.5893 -0.6852
vn 0.7670 -0.2043 0.6083
vn 0.2556 0.2683 0.9288
vn -0.4171 0.5856 0.6950
vn -0.8374 0.5455 0.0341
vn -0.7461 0.1748 -0.6424
vn -0.2175 -0.2937 -0.9308
vn 0.7136 -0.6999 0.0287
vn 0.3058 -0.7447 -0.5932
vn 0.7235 -0.2619 0.6387
vn 0.3142 0.3346 0.8884
vn -0.2917 0.7393 0.6069
vn -0.7217 0.6903 -0.0510
vn -0.7068 0.2199 -0.6724
vn -0.2754 -0.3725 -0.8862
vn 0.5532 -0.8204 0.1440
vn 0.1430 -0.8683 -0.4750
vn 0.6564 -0.3132 0.6863
vn 0.3822 0.3832 0.8408
vn -0.1274 0.8614 0.4916
vn -0.5623 0.8104 -0.1646
vn -0.6485 0.2625 -0.7145
vn -0.3496 -0.4307 -0.8320
vn 0.3698 -0.8883 0.2722
vn -0.0394 -0.9364 -0.3487
vn 0.5740 -0.3420 0.7440
vn 0.4501 0.4101 0.7932
vn 0.0540 0.9288 0.3666
vn -0.3786 0.8792 -0.2893
vn -0.5764 0.2913 -0.7635
vn -0.4291 -0.4592 -0.7778
vn 0.2748 -0.9013 0.3348
vn -0.1313 -0.9493 -0.2856
vn 0.5305 -0.3475 0.7732
vn 0.4823 0.4190 0.7692
vn 0.1439 0.9421 0.3027
vn -0.2827 0.8935 -0.3488
vn -0.5370 0.3021 -0.7876
vn -0.4680 -0.4638 -0.7522
vn 0.6114 0.3138 -0.7265
vn -0.1237 0.3628 -0.9236
vn -0.7864 0.2011 -0.5840
vn -0.9923 -0.0780 0.0962
vn -0.6174 -0.3122 0.7220
vn 0.1217 -0.3629 0.9238
vn 0.7894 -0.1995 0.5806
vn 0.9912 0.0812 -0.1044
usemtl None
s 1
f 1//1 9//2 16//3 8//4
f 2//5 10//6 9//2 1//1
f 3//7 11//8 10//6 2//5
f 4//9 12//10 11//8 3//7
f 5//11 13//12 12//10 4//9
f 6//13 14//14 13//12 5//11
f 7//15 15//16 14//14 6//13
f 8//4 16//3 15//16 7//15
f 9//2 17//17 24//18 16//3
f 10//6 18//19 17//17 9//2
f 11//8 19//20 18//19 10//6
f 12//10 20//21 19//20 11//8
f 13//12 21//22 20//21 12//10
f 14//14 22//23 21//22 13//12
f 15//16 23//24 22//23 14//14
f 16//3 24//18 23//24 15//16
f 17//17 25//25 32//26 24//18
f 18//19 26//27 25//25 17//17
f 19//20 27//28 26//27 18//19
f 20//21 28//29 27//28 19//20
f 21//22 29//30 28//29 20//21
f 22//23 30//31 29//30 21//22
f 23//24 31//32 30//31 22//23
f 24//18 32//26 31//32 23//24
f 25//25 33//33 40//34 32//26
f 26//27 34//35 33//33 25//25
f 27//28 35//36 34//35 26//27
f 28//29 36//37 35//36 27//28
f 29//30 37//38 36//37 28//29
f 30//31 38//39 37//38 29//30
f 31//32 39//40 38//39 30//31
f 32//26 40//34 39//40 31//32
f 33//33 41//41 48//42 40//34
f 34//35 42//43 41//41 33//33
f 35//36 43//44 42//43 34//35
f 36//37 44//45 43//44 35//36
f 37//38 45//46 44//45 36//37
f 38//39 46//47 45//46 37//38
f 39//40 47//48 46//47 38//39
f 40//34 48//42 47//48 39//40
f 41//41 49//49 56//50 48//42
f 42//43 50//51 49//49 41//41
f 43//44 51//52 50//51 42//43
f 44//45 52//53 51//52 43//44
f 45//46 53//54 52//53 44//45
f 46//47 54//55 53//54 45//46
f 47//48 55//56 54//55 46//47
f 48//42 56//50 55//56 47//48
f 49//49 57//57 64//58 56//50
f 50//51 58//59 57//57 49//49
f 51//52 59//60 58//59 50//51
f 52//53 60//61 59//60 51//52
f 53//54 61//62 60//61 52//53
f 54//55 62//63 61//62 53//54
f 55//56 63//64 62//63 54//55
f 56//50 64//58 63//64 55//56
f 57//57 65//65 72//66 64//58
f 58//59 66//67 65//65 57//57
f 59//60 67//68 66//67 58//59
f 60//61 68//69 67//68 59//60
f 61//62 69//70 68//69 60//61
f 62//63 70//71 69//70 61//62
f 63//64 71//72 70//71 62//63
f 64//58 72//66 71//72 63//64
f 65//65 73//73 80//74 72//66
f 66//67 74//75 73//73 65//65
f 67//68 75//76 74//75 66//67
f 68//69 76//77 75//76 67//68
f 69//70 77//78 76//77 68//69
f 70//71 78//79 77//78 69//70
f 71//72 79//80 78//79 70//71
f 72//66 80//74 79//80 71//72
f 73//73 81//81 88//82 80//74
f 74//75 82//83 81//81 73//73
f 75//76 83//84 82//83 74//75
f 76//77 84//85 83//84 75//76
f 77//78 85//86 84//85 76//77
f 78//79 86//87 85//86 77//78
f 79//80 87//88 86//87 78//79
f 80//74 88//82 87//88 79//80
f 204//89 89//90 96//91 207//92
f 208//93 90//94 89//90 204//89
f 205//95 91//96 90//94 208//93
f 203//97 92//98 91//96 205//95
f 202//99 93//100 92//98 203//97
f 201//101 94//102 93//100 202//99
f 206//103 95//104 94//102 201//101
f 207//92 96//91 95//104 206//103
f 89//90 97//105 104//106 96//91
f 90//94 98//107 97//105 89//90
f 91//96 99//108 98//107 90//94
f 92//98 100//109 99//108 91//96
f 93//100 101//110 100//109 92//98
f 94//102 102//111 101//110 93//100
f 95//104 103//112 102//111 94//102
f 96//91 104//106 103//112 95//104
f 97//105 105//113 112//114 104//106
f 98//107 106//115 105//113 97//105
f 99//108 107//116 106//115 98//107
f 100//109 108//117 107//116 99//108
f 101//110 109//118 108//117 100//109
f 102//111 110//119 109//118 101//110
f 103//112 111//120 110//119 102//111
f 104//106 112//114 111//120 103//112
f 105//113 113//121 120//122 112//114
f 106//115 114//123 113//121 105//113
f 107//116 115//124 114//123 106//115
f 108//117 116//125 115//124 107//116
f 109//118 117//126 116//125 108//117
f 110//119 118//127 117//126 109//118
f 111//120 119//128 118//127 110//119
f 112//114 120//122 119//128 111//120
f 113//121 121//129 128//130 120//122
f 114//123 122//131 121//129 113//121
f 115//124 123//132 122//131 114//123
f 116//125 124//133 123//132 115//124
f 117//126 125//134 124//133 116//125
f 118//127 126//135 125//134 117//126
f 119//128 127//136 126//135 118//127
f 120//122 128//130 127//136 119//128
f 121//129 129//137 136//138 128//130
f 122//131 130//139 129//137 121//129
f 123//132 131//140 130//139 122//131
f 124//133 132//141 131//140 123//132
f 125//134 133//142 132//141 124//133
f 126//135 134//143 133//142 125//134
f 127//136 135//144 134//143 126//135
f 128//130 136//138 135//144 127//136
f 129//137 137//145 144//146 136//138
f 130//139 138//147 137//145 129//137
f 131//140 139//148 138//147 130//139
f 132//141 140//149 139//148 131//140
f 133//142 141//150 140//149 132//141
f 134//143 142//151 141//150 133//142
f 135//144 143//152 142//151 134//143
f 136//138 144//146 143//152 135//144
f 137//145 145//153 152//154 144//146
f 138//147 146//155 145//153 137//145
f 139//148 147//156 146//155 138//147
f 140//149 148//157 147//156 139//148
f 141//150 149//158 148//157 140//149
f 142//151 150//159 149//158 141//150
f 143//152 151//160 150//159 142//151
f 144//146 152//154 151//160 143//152
f 145//153 153//161 160//162 152//154
f 146//155 154//163 153//161 145//153
f 147//156 155//164 154//163 146//155
f 148//157 156//165 155//164 147//156
f 149//158 157//166 156//165 148//157
f 150//159 158//167 157//166 149//158
f 151//160 159//168 158//167 150//159
f 152//154 160//162 159//168 151//160
f 153//161 161//169 168//170 160//162
f 154//163 162//171 161//169 153//161
f 155//164 163//172 162//171 154//163
f 156//165 164//173 163//172 155//164
f 157//166 165//174 164//173 156//165
f 158//167 166//175 165//174 157//166
f 159//168 167//176 166//175 158//167
f 160//162 168//170 167//176 159//168
f 161//169 169//177 176//178 168//170
f 162//171 170//179 169//177 161//169
f 163//172 171//180 170//179 162//171
f 164//173 172//181 171//180 163//172
f 165//174 173//182 172//181 164//173
f 166//175 174//183 173//182 165//174
f 167//176 175//184 174//183 166//175
f 168//170 176//178 175//184 167//176
f 169//177 177//185 184//186 176//178
f 170//179 178//187 177//185 169//177
f 171//180 179//188 178//187 170//179
f 172//181 180//189 179//188 171//180
f 173//182 181//190 180//189 172//181
f 174//183 182//191 181//190 173//182
f 175//184 183//192 182//191 174//183
f 176//178 184//186 183//192 175//184
f 177//185 185//193 192//194 184//186
f 178//187 186//195 185//193 177//185
f 179//188 187//196 186//195 178//187
f 180//189 188//197 187//196 179//188
f 181//190 189//198 188//197 180//189
f 182//191 190//199 189//198 181//190
f 183//192 191//200 190//199 182//191
f 184//186 192//194 191//200 183//192
f 88//82 200//201 193//202 87//88
f 87//88 193//202 195//203 86//87
f 86//87 195//203 197//204 85//86
f 85//86 197//204 199//205 84//85
f 84//85 199//205 194//206 83//84
f 83//84 194//206 196//207 82//83
f 82//83 196//207 198//208 81//81
f 81//81 198//208 200//201 88//82
