# Blender v2.79 (sub 0) OBJ File: 'MK68.blend'
# www.blender.org
mtllib MK68_wire_green.mtl
o BezierCurve
v 0.209607 0.733397 -0.003082
v 0.213967 0.738654 0.008883
v 0.219226 0.733410 0.020487
v 0.222302 0.720739 0.024933
v 0.221395 0.708062 0.019616
v 0.217035 0.702806 0.007651
v 0.211777 0.708049 -0.003953
v 0.208700 0.720720 -0.008399
v 0.242909 0.733335 -0.017241
v 0.248660 0.738563 -0.005866
v 0.253166 0.733335 0.006057
v 0.253789 0.720713 0.011543
v 0.250162 0.708091 0.007379
v 0.244412 0.702863 -0.003996
v 0.239905 0.708091 -0.015919
v 0.239283 0.720713 -0.021405
v 0.270093 0.725355 -0.029619
v 0.277444 0.730073 -0.018965
v 0.280723 0.725236 -0.006489
v 0.278010 0.713679 0.000501
v 0.270893 0.702171 -0.002090
v 0.263542 0.697453 -0.012744
v 0.260263 0.702290 -0.025220
v 0.262977 0.713847 -0.032210
v 0.291280 0.708777 -0.039536
v 0.300013 0.712405 -0.029517
v 0.301814 0.708734 -0.016362
v 0.295629 0.699914 -0.007775
v 0.285079 0.691111 -0.008787
v 0.276346 0.687483 -0.018805
v 0.274545 0.691155 -0.031961
v 0.280731 0.699975 -0.040548
v 0.305905 0.684290 -0.045910
v 0.315371 0.686741 -0.036205
v 0.316067 0.684845 -0.022577
v 0.307586 0.679713 -0.013010
v 0.294896 0.674351 -0.013107
v 0.285430 0.671901 -0.022812
v 0.284734 0.673796 -0.036440
v 0.293215 0.678928 -0.046007
v 0.314527 0.653426 -0.048249
v 0.324211 0.655154 -0.038604
v 0.324377 0.655008 -0.024829
v 0.314927 0.653075 -0.014993
v 0.301397 0.650485 -0.014858
v 0.291712 0.648757 -0.024502
v 0.291546 0.648903 -0.038277
v 0.300996 0.650837 -0.048113
v 0.318559 0.616816 -0.046546
v 0.328272 0.618314 -0.036892
v 0.328260 0.619577 -0.023174
v 0.318528 0.619867 -0.013426
v 0.304779 0.619012 -0.013360
v 0.295065 0.617514 -0.023014
v 0.295077 0.616250 -0.036732
v 0.304809 0.615961 -0.046480
v 0.319266 0.574361 -0.040719
v 0.328977 0.575952 -0.031078
v 0.328935 0.578308 -0.017504
v 0.319164 0.580049 -0.007950
v 0.305388 0.580156 -0.008011
v 0.295677 0.578566 -0.017652
v 0.295719 0.576210 -0.031226
v 0.305490 0.574468 -0.040780
v 0.317648 0.525872 -0.030535
v 0.327367 0.527744 -0.020952
v 0.327348 0.530968 -0.007558
v 0.317602 0.533658 0.001801
v 0.303838 0.534237 0.001642
v 0.294119 0.532366 -0.007942
v 0.294139 0.529141 -0.021336
v 0.303884 0.526451 -0.030694
v 0.314578 0.471234 -0.015688
v 0.324317 0.473496 -0.006210
v 0.324335 0.477439 0.006990
v 0.314621 0.480753 0.016181
v 0.300866 0.481497 0.015977
v 0.291127 0.479235 0.006499
v 0.291109 0.475292 -0.006701
v 0.300823 0.471978 -0.015891
v 0.310884 0.410399 0.004154
v 0.320649 0.413119 0.013484
v 0.320702 0.417675 0.026485
v 0.311012 0.421400 0.035542
v 0.297255 0.422111 0.035349
v 0.287490 0.419391 0.026019
v 0.287437 0.414834 0.013018
v 0.297127 0.411110 0.003961
v 0.307377 0.343364 0.029332
v 0.317168 0.346581 0.038475
v 0.317248 0.351677 0.051275
v 0.307571 0.355665 0.060233
v 0.293806 0.356210 0.060102
v 0.284016 0.352993 0.050959
v 0.283935 0.347898 0.038159
v 0.293612 0.343909 0.029201
v 0.304892 0.271044 0.059827
v 0.314685 0.274336 0.068942
v 0.314758 0.279204 0.081830
v 0.305070 0.282796 0.090941
v 0.291295 0.283008 0.090940
v 0.281503 0.279717 0.081825
v 0.281429 0.274849 0.068937
v 0.291118 0.271257 0.059826
v 0.305072 0.206967 0.081374
v 0.314867 0.209444 0.090739
v 0.314946 0.212685 0.104129
v 0.305263 0.214790 0.113700
v 0.291490 0.214526 0.113845
v 0.281695 0.212049 0.104479
v 0.281616 0.208809 0.091089
v 0.291299 0.206704 0.081519
v 0.307654 0.142317 0.091190
v 0.317493 0.143549 0.100754
v 0.317648 0.144638 0.114487
v 0.308029 0.144946 0.124344
v 0.294269 0.144293 0.124551
v 0.284430 0.143061 0.114987
v 0.284275 0.141972 0.101254
v 0.293895 0.141664 0.091397
v 0.311402 0.077333 0.091572
v 0.321303 0.077397 0.101151
v 0.321554 0.076689 0.114907
v 0.312007 0.075623 0.124782
v 0.298255 0.074824 0.124991
v 0.288354 0.074760 0.115412
v 0.288103 0.075469 0.101656
v 0.297650 0.076534 0.091781
v 0.315060 0.013375 0.084425
v 0.325019 0.012342 0.093888
v 0.325344 0.010197 0.107493
v 0.315846 0.008198 0.117270
v 0.302088 0.007515 0.117491
v 0.292129 0.008548 0.108028
v 0.291804 0.010693 0.094423
v 0.301302 0.012692 0.084646
v 0.317341 -0.048143 0.071711
v 0.327333 -0.050249 0.080959
v 0.327693 -0.053509 0.094339
v 0.318211 -0.056012 0.104014
v 0.304440 -0.056294 0.104316
v 0.294448 -0.054188 0.095069
v 0.294088 -0.050928 0.081688
v 0.303571 -0.048424 0.072013
v 0.316931 -0.105823 0.055436
v 0.326906 -0.109052 0.064373
v 0.327254 -0.113149 0.077522
v 0.317770 -0.115714 0.087180
v 0.304011 -0.115245 0.087690
v 0.294036 -0.112015 0.078753
v 0.293689 -0.107918 0.065605
v 0.303172 -0.105353 0.055946
v 0.312476 -0.158334 0.037621
v 0.322327 -0.162847 0.046129
v 0.322618 -0.167523 0.059085
v 0.313180 -0.169622 0.068899
v 0.299541 -0.167914 0.069822
v 0.289690 -0.163401 0.061313
v 0.289399 -0.158725 0.048358
v 0.298837 -0.156626 0.038544
v 0.302513 -0.204454 0.020269
v 0.311985 -0.210567 0.028187
v 0.312208 -0.215534 0.041035
v 0.303050 -0.216446 0.051287
v 0.289876 -0.212769 0.052937
v 0.280403 -0.206657 0.045019
v 0.280181 -0.201689 0.032171
v 0.289339 -0.200777 0.021919
v 0.285282 -0.243040 0.005398
v 0.293771 -0.251200 0.012550
v 0.294030 -0.256090 0.025427
v 0.285908 -0.254846 0.036485
v 0.274163 -0.248198 0.039247
v 0.265674 -0.240038 0.032095
v 0.265414 -0.235148 0.019218
v 0.273536 -0.236392 0.008160
v 0.258621 -0.272532 -0.004692
v 0.265011 -0.282905 0.001741
v 0.265702 -0.287340 0.014765
v 0.260291 -0.283239 0.026753
v 0.251947 -0.273005 0.030681
v 0.245557 -0.262632 0.024248
v 0.244866 -0.258197 0.011223
v 0.250277 -0.262298 -0.000764
v 0.221105 -0.290269 -0.007191
v 0.224534 -0.302059 -0.000943
v 0.226228 -0.306014 0.012145
v 0.225195 -0.299817 0.024405
v 0.222040 -0.287098 0.028657
v 0.218611 -0.275308 0.022410
v 0.216917 -0.271353 0.009322
v 0.217950 -0.277550 -0.002939
v 0.172907 -0.293951 0.000305
v 0.173694 -0.305998 0.006941
v 0.176582 -0.309837 0.019853
v 0.179879 -0.303219 0.031477
v 0.181655 -0.290020 0.035004
v 0.180868 -0.277973 0.028367
v 0.177980 -0.274134 0.015455
v 0.174683 -0.280752 0.003831
vn -0.2699 0.7212 -0.6380
vn -0.1909 0.7177 -0.6697
vn -0.3985 0.0313 -0.9166
vn -0.3909 0.0210 -0.9202
vn 0.0032 1.0000 0.0020
vn 0.1215 0.9913 -0.0504
vn 0.2732 0.7191 0.6389
vn 0.3658 0.7146 0.5962
vn 0.3915 0.0243 0.9198
vn 0.4068 0.0306 0.9130
vn 0.2820 -0.6951 0.6612
vn 0.2121 -0.6842 0.6978
vn 0.0030 -1.0000 0.0031
vn -0.1133 -0.9921 0.0535
vn -0.2786 -0.7003 -0.6572
vn -0.3706 -0.6872 -0.6248
vn -0.0038 0.6616 -0.7498
vn -0.3997 0.0440 -0.9156
vn 0.3884 0.9051 -0.1730
vn 0.5684 0.6547 0.4982
vn 0.4341 0.0342 0.9002
vn 0.0431 -0.6232 0.7809
vn -0.3826 -0.9076 0.1726
vn -0.5676 -0.6168 -0.5452
vn 0.1936 0.5047 -0.8412
vn -0.3832 0.0335 -0.9230
vn 0.6558 0.6931 -0.2990
vn 0.7618 0.5045 0.4063
vn 0.4438 0.0309 0.8956
vn -0.1464 -0.4733 0.8686
vn -0.6597 -0.6909 0.2957
vn -0.7514 -0.4686 -0.4646
vn 0.3236 0.2844 -0.9024
vn -0.3694 -0.0065 -0.9292
vn 0.8287 0.4151 -0.3754
vn 0.8777 0.3166 0.3596
vn 0.4293 0.0376 0.9024
vn -0.2865 -0.2666 0.9202
vn -0.8356 -0.4079 0.3680
vn -0.8618 -0.2964 -0.4116
vn 0.3760 0.0852 -0.9227
vn -0.3658 -0.0576 -0.9289
vn 0.9002 0.1794 -0.3967
vn 0.9191 0.1725 0.3542
vn 0.4084 0.0668 0.9103
vn -0.3534 -0.0779 0.9322
vn -0.9055 -0.1754 0.3864
vn -0.9045 -0.1667 -0.3925
vn 0.3885 -0.0598 -0.9195
vn -0.3677 -0.1080 -0.9236
vn 0.9202 0.0224 -0.3908
vn 0.9272 0.0919 0.3632
vn 0.3946 0.1090 0.9124
vn -0.3771 0.0622 0.9240
vn -0.9247 -0.0219 0.3801
vn -0.9162 -0.0929 -0.3897
vn 0.3875 -0.1606 -0.9077
vn -0.3717 -0.1556 -0.9152
vn 0.9228 -0.0732 -0.3781
vn 0.9266 0.0567 0.3718
vn 0.3880 0.1544 0.9086
vn -0.3835 0.1613 0.9093
vn -0.9272 0.0720 0.3677
vn -0.9187 -0.0598 -0.3904
vn 0.3833 -0.2322 -0.8939
vn -0.3763 -0.2008 -0.9044
vn 0.9214 -0.1294 -0.3664
vn 0.9254 0.0490 0.3759
vn 0.3858 0.1995 0.9007
vn -0.3839 0.2324 0.8936
vn -0.9256 0.1274 0.3563
vn -0.9196 -0.0525 -0.3894
vn 0.3791 -0.2851 -0.8803
vn -0.3808 -0.2441 -0.8918
vn 0.9198 -0.1607 -0.3579
vn 0.9251 0.0580 0.3752
vn 0.3858 0.2433 0.8899
vn -0.3827 0.2850 0.8788
vn -0.9240 0.1581 0.3482
vn -0.9207 -0.0613 -0.3854
vn 0.3758 -0.3255 -0.8676
vn -0.3847 -0.2860 -0.8776
vn 0.9190 -0.1757 -0.3529
vn 0.9257 0.0774 0.3701
vn 0.3867 0.2856 0.8768
vn -0.3814 0.3251 0.8654
vn -0.9231 0.1727 0.3435
vn -0.9223 -0.0804 -0.3780
vn 0.3736 -0.3573 -0.8560
vn -0.3876 -0.3266 -0.8620
vn 0.9188 -0.1798 -0.3513
vn 0.9267 0.1036 0.3612
vn 0.3875 0.3265 0.8621
vn -0.3806 0.3564 0.8533
vn -0.9229 0.1763 0.3423
vn -0.9239 -0.1063 -0.3674
vn 0.3771 -0.3328 -0.8643
vn -0.3942 -0.3197 -0.8616
vn 0.9243 -0.1475 -0.3520
vn 0.9219 0.1243 0.3670
vn 0.3806 0.3214 0.8671
vn -0.3779 0.3319 0.8643
vn -0.9190 0.1515 0.3639
vn -0.9295 -0.1177 -0.3495
vn 0.3810 -0.2097 -0.9004
vn -0.3999 -0.2238 -0.8888
vn 0.9284 -0.0682 -0.3652
vn 0.9178 0.1119 0.3809
vn 0.3773 0.2252 0.8983
vn -0.3740 0.2102 0.9033
vn -0.9148 0.0761 0.3967
vn -0.9337 -0.1032 -0.3428
vn 0.3761 -0.0543 -0.9250
vn -0.4010 -0.0911 -0.9115
vn 0.9244 0.0151 -0.3811
vn 0.9206 0.0750 0.3833
vn 0.3845 0.0912 0.9186
vn -0.3677 0.0554 0.9283
vn -0.9124 -0.0120 0.4092
vn -0.9333 -0.0731 -0.3515
vn 0.3702 0.0701 -0.9263
vn -0.4040 0.0250 -0.9144
vn 0.9204 0.0730 -0.3840
vn 0.9243 0.0330 0.3802
vn 0.3937 -0.0256 0.9189
vn -0.3604 -0.0693 0.9302
vn -0.9100 -0.0735 0.4080
vn -0.9340 -0.0348 -0.3557
vn 0.3664 0.1628 -0.9161
vn -0.4060 0.1247 -0.9053
vn 0.9181 0.1039 -0.3824
vn 0.9282 -0.0153 0.3718
vn 0.4019 -0.1250 0.9071
vn -0.3545 -0.1627 0.9208
vn -0.9090 -0.1067 0.4029
vn -0.9351 0.0122 -0.3541
vn 0.3659 0.2259 -0.9028
vn -0.4055 0.2109 -0.8894
vn 0.9175 0.1072 -0.3830
vn 0.9312 -0.0731 0.3569
vn 0.4078 -0.2106 0.8884
vn -0.3510 -0.2269 0.9085
vn -0.9093 -0.1115 0.4009
vn -0.9357 0.0702 -0.3457
vn 0.3688 0.2601 -0.8923
vn -0.4003 0.2882 -0.8698
vn 0.9168 0.0794 -0.3913
vn 0.9314 -0.1462 0.3333
vn 0.4105 -0.2874 0.8654
vn -0.3491 -0.2632 0.8993
vn -0.9092 -0.0851 0.4075
vn -0.9333 0.1444 -0.3286
vn 0.3732 0.2622 -0.8899
vn -0.3877 0.3610 -0.8481
vn 0.9102 0.0114 -0.4140
vn 0.9233 -0.2444 0.2963
vn 0.4089 -0.3609 0.8382
vn -0.3457 -0.2698 0.8987
vn -0.9028 -0.0193 0.4295
vn -0.9223 0.2442 -0.2994
vn 0.3708 0.2215 -0.9019
vn -0.3620 0.4325 -0.8257
vn 0.8806 -0.1145 -0.4597
vn 0.8920 -0.3839 0.2386
vn 0.3992 -0.4378 0.8056
vn -0.3315 -0.2398 0.9124
vn -0.8738 0.1025 0.4753
vn -0.8874 0.3849 -0.2536
vn 0.3344 0.1221 -0.9345
vn -0.3150 0.5003 -0.8065
vn 0.7826 -0.3183 -0.5350
vn 0.7986 -0.5812 0.1559
vn 0.3708 -0.5239 0.7668
vn -0.2822 -0.1641 0.9452
vn -0.7783 0.3004 0.5513
vn -0.7909 0.5818 -0.1898
vn 0.2083 -0.0216 -0.9778
vn -0.2494 0.5507 -0.7965
vn 0.5418 -0.5704 -0.6174
vn 0.5823 -0.8096 0.0737
vn 0.3045 -0.6091 0.7323
vn -0.1580 -0.0527 0.9860
vn -0.5384 0.5534 0.6354
vn -0.5737 0.8087 -0.1293
vn -0.0152 -0.1257 -0.9919
vn -0.1923 0.5796 -0.7919
vn 0.1675 -0.7476 -0.6427
vn 0.2593 -0.9644 0.0512
vn 0.2099 -0.6547 0.7261
vn 0.0381 0.0446 0.9983
vn -0.1607 0.7375 0.6559
vn -0.2578 0.9598 -0.1108
vn -0.1408 -0.1472 -0.9790
vn -0.1666 0.5943 -0.7867
vn -0.0362 -0.7823 -0.6218
vn 0.0865 -0.9941 0.0652
vn 0.1646 -0.6567 0.7359
vn 0.1490 0.0842 0.9852
vn 0.0438 0.7763 0.6288
vn -0.0888 0.9896 -0.1132
usemtl None
s 1
f 1//1 9//2 16//3 8//4
f 2//5 10//6 9//2 1//1
f 3//7 11//8 10//6 2//5
f 4//9 12//10 11//8 3//7
f 5//11 13//12 12//10 4//9
f 6//13 14//14 13//12 5//11
f 7//15 15//16 14//14 6//13
f 8//4 16//3 15//16 7//15
f 9//2 17//17 24//18 16//3
f 10//6 18//19 17//17 9//2
f 11//8 19//20 18//19 10//6
f 12//10 20//21 19//20 11//8
f 13//12 21//22 20//21 12//10
f 14//14 22//23 21//22 13//12
f 15//16 23//24 22//23 14//14
f 16//3 24//18 23//24 15//16
f 17//17 25//25 32//26 24//18
f 18//19 26//27 25//25 17//17
f 19//20 27//28 26//27 18//19
f 20//21 28//29 27//28 19//20
f 21//22 29//30 28//29 20//21
f 22//23 30//31 29//30 21//22
f 23//24 31//32 30//31 22//23
f 24//18 32//26 31//32 23//24
f 25//25 33//33 40//34 32//26
f 26//27 34//35 33//33 25//25
f 27//28 35//36 34//35 26//27
f 28//29 36//37 35//36 27//28
f 29//30 37//38 36//37 28//29
f 30//31 38//39 37//38 29//30
f 31//32 39//40 38//39 30//31
f 32//26 40//34 39//40 31//32
f 33//33 41//41 48//42 40//34
f 34//35 42//43 41//41 33//33
f 35//36 43//44 42//43 34//35
f 36//37 44//45 43//44 35//36
f 37//38 45//46 44//45 36//37
f 38//39 46//47 45//46 37//38
f 39//40 47//48 46//47 38//39
f 40//34 48//42 47//48 39//40
f 41//41 49//49 56//50 48//42
f 42//43 50//51 49//49 41//41
f 43//44 51//52 50//51 42//43
f 44//45 52//53 51//52 43//44
f 45//46 53//54 52//53 44//45
f 46//47 54//55 53//54 45//46
f 47//48 55//56 54//55 46//47
f 48//42 56//50 55//56 47//48
f 49//49 57//57 64//58 56//50
f 50//51 58//59 57//57 49//49
f 51//52 59//60 58//59 50//51
f 52//53 60//61 59//60 51//52
f 53//54 61//62 60//61 52//53
f 54//55 62//63 61//62 53//54
f 55//56 63//64 62//63 54//55
f 56//50 64//58 63//64 55//56
f 57//57 65//65 72//66 64//58
f 58//59 66//67 65//65 57//57
f 59//60 67//68 66//67 58//59
f 60//61 68//69 67//68 59//60
f 61//62 69//70 68//69 60//61
f 62//63 70//71 69//70 61//62
f 63//64 71//72 70//71 62//63
f 64//58 72//66 71//72 63//64
f 65//65 73//73 80//74 72//66
f 66//67 74//75 73//73 65//65
f 67//68 75//76 74//75 66//67
f 68//69 76//77 75//76 67//68
f 69//70 77//78 76//77 68//69
f 70//71 78//79 77//78 69//70
f 71//72 79//80 78//79 70//71
f 72//66 80//74 79//80 71//72
f 73//73 81//81 88//82 80//74
f 74//75 82//83 81//81 73//73
f 75//76 83//84 82//83 74//75
f 76//77 84//85 83//84 75//76
f 77//78 85//86 84//85 76//77
f 78//79 86//87 85//86 77//78
f 79//80 87//88 86//87 78//79
f 80//74 88//82 87//88 79//80
f 81//81 89//89 96//90 88//82
f 82//83 90//91 89//89 81//81
f 83//84 91//92 90//91 82//83
f 84//85 92//93 91//92 83//84
f 85//86 93//94 92//93 84//85
f 86//87 94//95 93//94 85//86
f 87//88 95//96 94//95 86//87
f 88//82 96//90 95//96 87//88
f 89//89 97//97 104//98 96//90
f 90//91 98//99 97//97 89//89
f 91//92 99//100 98//99 90//91
f 92//93 100//101 99//100 91//92
f 93//94 101//102 100//101 92//93
f 94//95 102//103 101//102 93//94
f 95//96 103//104 102//103 94//95
f 96//90 104//98 103//104 95//96
f 97//97 105//105 112//106 104//98
f 98//99 106//107 105//105 97//97
f 99//100 107//108 106//107 98//99
f 100//101 108//109 107//108 99//100
f 101//102 109//110 108//109 100//101
f 102//103 110//111 109//110 101//102
f 103//104 111//112 110//111 102//103
f 104//98 112//106 111//112 103//104
f 105//105 113//113 120//114 112//106
f 106//107 114//115 113//113 105//105
f 107//108 115//116 114//115 106//107
f 108//109 116//117 115//116 107//108
f 109//110 117//118 116//117 108//109
f 110//111 118//119 117//118 109//110
f 111//112 119//120 118//119 110//111
f 112//106 120//114 119//120 111//112
f 113//113 121//121 128//122 120//114
f 114//115 122//123 121//121 113//113
f 115//116 123//124 122//123 114//115
f 116//117 124//125 123//124 115//116
f 117//118 125//126 124//125 116//117
f 118//119 126//127 125//126 117//118
f 119//120 127//128 126//127 118//119
f 120//114 128//122 127//128 119//120
f 121//121 129//129 136//130 128//122
f 122//123 130//131 129//129 121//121
f 123//124 131//132 130//131 122//123
f 124//125 132//133 131//132 123//124
f 125//126 133//134 132//133 124//125
f 126//127 134//135 133//134 125//126
f 127//128 135//136 134//135 126//127
f 128//122 136//130 135//136 127//128
f 129//129 137//137 144//138 136//130
f 130//131 138//139 137//137 129//129
f 131//132 139//140 138//139 130//131
f 132//133 140//141 139//140 131//132
f 133//134 141//142 140//141 132//133
f 134//135 142//143 141//142 133//134
f 135//136 143//144 142//143 134//135
f 136//130 144//138 143//144 135//136
f 137//137 145//145 152//146 144//138
f 138//139 146//147 145//145 137//137
f 139//140 147//148 146//147 138//139
f 140//141 148//149 147//148 139//140
f 141//142 149//150 148//149 140//141
f 142//143 150//151 149//150 141//142
f 143//144 151//152 150//151 142//143
f 144//138 152//146 151//152 143//144
f 145//145 153//153 160//154 152//146
f 146//147 154//155 153//153 145//145
f 147//148 155//156 154//155 146//147
f 148//149 156//157 155//156 147//148
f 149//150 157//158 156//157 148//149
f 150//151 158//159 157//158 149//150
f 151//152 159//160 158//159 150//151
f 152//146 160//154 159//160 151//152
f 153//153 161//161 168//162 160//154
f 154//155 162//163 161//161 153//153
f 155//156 163//164 162//163 154//155
f 156//157 164//165 163//164 155//156
f 157//158 165//166 164//165 156//157
f 158//159 166//167 165//166 157//158
f 159//160 167//168 166//167 158//159
f 160//154 168//162 167//168 159//160
f 161//161 169//169 176//170 168//162
f 162//163 170//171 169//169 161//161
f 163//164 171//172 170//171 162//163
f 164//165 172//173 171//172 163//164
f 165//166 173//174 172//173 164//165
f 166//167 174//175 173//174 165//166
f 167//168 175//176 174//175 166//167
f 168//162 176//170 175//176 167//168
f 169//169 177//177 184//178 176//170
f 170//171 178//179 177//177 169//169
f 171//172 179//180 178//179 170//171
f 172//173 180//181 179//180 171//172
f 173//174 181//182 180//181 172//173
f 174//175 182//183 181//182 173//174
f 175//176 183//184 182//183 174//175
f 176//170 184//178 183//184 175//176
f 177//177 185//185 192//186 184//178
f 178//179 186//187 185//185 177//177
f 179//180 187//188 186//187 178//179
f 180//181 188//189 187//188 179//180
f 181//182 189//190 188//189 180//181
f 182//183 190//191 189//190 181//182
f 183//184 191//192 190//191 182//183
f 184//178 192//186 191//192 183//184
f 185//185 193//193 200//194 192//186
f 186//187 194//195 193//193 185//185
f 187//188 195//196 194//195 186//187
f 188//189 196//197 195//196 187//188
f 189//190 197//198 196//197 188//189
f 190//191 198//199 197//198 189//190
f 191//192 199//200 198//199 190//191
f 192//186 200//194 199//200 191//192
