# Blender v2.79 (sub 0) OBJ File: 'muzzle_flash.blend'
# www.blender.org
mtllib muzzle_flash_inner.mtl
o Cube.005_Cube.001
v -0.067261 0.059943 -0.138069
v 0.023340 -0.052238 -0.171487
v -0.109424 -0.002457 0.040624
v -0.018822 -0.114638 0.007207
v 0.013448 0.116504 -0.007207
v 0.104050 0.004323 -0.040624
v -0.028715 0.054104 0.171487
v 0.061887 -0.058078 0.138069
v -0.097000 -0.021539 0.138943
v -0.055696 0.034441 0.291669
v -0.031852 0.058921 0.063359
v 0.009451 0.114902 0.216086
v -0.014825 -0.113036 0.164939
v 0.026478 -0.057055 0.317666
v 0.050322 -0.032576 0.089356
v 0.091625 0.023405 0.242083
v -0.034614 0.054346 0.355854
v 0.006708 0.021174 0.410737
v -0.009574 0.049834 0.268880
v 0.031748 0.016662 0.323763
v -0.051704 -0.006449 0.344802
v -0.010382 -0.039620 0.399685
v -0.026664 -0.010961 0.257828
v 0.014658 -0.044132 0.312711
v -0.088343 0.028743 -0.048723
v -0.021960 0.003853 -0.154778
v 0.002259 -0.083438 -0.082140
v -0.064123 -0.058548 0.023915
v -0.069069 0.025824 0.106055
v 0.021532 -0.086358 0.072638
v 0.016586 -0.001987 0.154778
v -0.007633 0.085304 0.082140
v 0.082968 -0.026878 0.048723
v 0.058749 0.060413 -0.023915
v -0.026907 0.088224 -0.072638
v 0.063695 -0.023958 -0.106055
v -0.064426 0.018691 0.101151
v -0.076348 0.006451 0.215306
v -0.023123 0.074672 0.253878
v -0.011200 0.086912 0.139722
v 0.009235 0.013173 0.076357
v 0.050538 0.069154 0.229084
v 0.070974 -0.004585 0.165719
v 0.017748 -0.072806 0.127148
v 0.059052 -0.016825 0.279874
v 0.005826 -0.085046 0.241303
v -0.055913 -0.067288 0.151941
v -0.014609 -0.011307 0.304668
v -0.022094 0.052090 0.312367
v -0.013953 0.037760 0.383296
v 0.019228 0.018918 0.367250
v 0.011087 0.033248 0.296321
v -0.018119 0.019436 0.263354
v 0.023203 -0.013735 0.318237
v -0.006003 -0.027547 0.285269
v -0.039184 -0.008705 0.301315
v 0.002138 -0.041876 0.356198
v -0.031043 -0.023034 0.372244
v -0.043159 0.023949 0.350328
v -0.001837 -0.009223 0.405211
v 0.047367 -0.040928 0.410448
v -0.067324 0.051142 0.258117
v -0.044728 0.011368 0.454984
v -0.033695 -0.079263 0.318945
v 0.024772 -0.001155 0.213581
v 0.013739 0.089476 0.349620
v 0.040953 0.060081 0.351881
v -0.046328 -0.058215 0.029144
v -0.071521 -0.084080 0.270373
v 0.084137 -0.095741 0.217980
v 0.066147 0.085946 0.110652
v -0.089511 0.097607 0.163045
v 0.103355 -0.130366 -0.039112
v -0.108729 0.132232 0.039112
v 0.046661 0.073967 -0.209145
v 0.091776 0.067132 0.153164
v -0.052035 -0.072101 0.209145
v -0.097151 -0.065267 -0.153164
vn -0.4369 -0.8973 -0.0629
vn 0.4756 -0.5992 0.6441
vn 0.9676 0.2516 -0.0203
vn 0.3842 -0.3285 -0.8629
vn 0.1287 0.9917 0.0027
vn 0.3974 -0.6648 -0.6326
vn -0.2141 0.9734 0.0820
vn 0.9530 0.3001 -0.0419
vn 0.4830 -0.6851 0.5453
vn -0.8220 0.0074 0.5694
vn -0.1810 -0.9258 -0.3318
vn -0.5596 0.3797 0.7366
vn 0.9641 0.2591 -0.0583
vn 0.6320 -0.7325 -0.2531
vn -0.2438 -0.8409 0.4832
vn 0.5237 0.4673 0.7123
vn -0.9801 -0.1925 0.0487
vn 0.6328 0.4113 0.6560
vn -0.1201 -0.8307 0.5437
vn 0.6443 -0.7404 -0.1914
vn 0.9801 0.1925 -0.0487
vn -0.6443 0.7404 0.1914
vn 0.1201 0.8307 -0.5437
vn -0.6328 -0.4113 -0.6560
vn -0.6320 0.7325 0.2531
vn -0.9738 -0.2068 0.0951
vn -0.2621 -0.7851 0.5611
vn -0.9641 -0.2591 0.0583
vn -0.5908 -0.5034 -0.6305
vn 0.5535 -0.8018 -0.2255
vn -0.5237 -0.4673 -0.7123
vn 0.2621 0.7851 -0.5611
vn 0.9738 0.2068 -0.0951
vn 0.2438 0.8409 -0.4832
vn -0.5535 0.8018 0.2255
vn 0.5908 0.5034 0.6305
vn 0.2839 -0.3010 0.9104
vn 0.9037 0.2805 0.3234
vn 0.1810 0.9258 0.3318
vn -0.9037 -0.2805 -0.3234
vn -0.2839 0.3010 -0.9104
vn 0.5596 -0.3797 -0.7366
vn -0.9530 -0.3001 0.0419
vn -0.3588 -0.9313 0.0628
vn -0.1654 -0.6687 0.7249
vn 0.2141 -0.9734 -0.0820
vn 0.8165 -0.4036 -0.4129
vn 0.9921 -0.0816 0.0949
vn 0.8220 -0.0074 -0.5694
vn 0.1654 0.6687 -0.7249
vn 0.3588 0.9313 -0.0628
vn -0.4830 0.6851 -0.5453
vn -0.9921 0.0816 -0.0949
vn -0.8165 0.4036 0.4129
vn 0.9923 -0.0065 -0.1237
vn 0.7129 -0.5750 0.4014
vn -0.1287 -0.9917 -0.0027
vn -0.7129 0.5750 -0.4014
vn -0.9923 0.0065 0.1237
vn -0.3974 0.6648 0.6326
vn -0.4756 0.5992 -0.6441
vn 0.3733 0.9183 -0.1320
vn 0.9414 0.2619 -0.2124
vn 0.4369 0.8973 0.0629
vn 0.0459 0.6465 0.7616
vn 0.7913 -0.2558 0.5553
vn -0.3842 0.3285 0.8629
vn -0.9414 -0.2619 0.2124
vn -0.3733 -0.9183 0.1320
vn -0.9676 -0.2516 0.0203
vn -0.7913 0.2558 -0.5553
vn -0.0459 -0.6465 -0.7616
usemtl None
s off
f 78//1 27//1 4//1 28//1
f 77//2 30//2 8//2 31//2
f 76//3 33//3 6//3 34//3
f 75//4 36//4 2//4 26//4
f 74//5 32//5 5//5 35//5
f 73//6 27//6 2//6 36//6
f 72//7 39//7 12//7 40//7
f 71//8 42//8 16//8 43//8
f 70//9 45//9 14//9 46//9
f 69//10 48//10 10//10 38//10
f 68//11 44//11 13//11 47//11
f 67//12 39//12 10//12 48//12
f 66//13 51//13 20//13 52//13
f 65//14 54//14 24//14 55//14
f 64//15 57//15 22//15 58//15
f 63//16 60//16 18//16 50//16
f 62//17 56//17 21//17 59//17
f 61//18 51//18 18//18 60//18
f 57//19 61//19 60//19 22//19
f 24//20 54//20 61//20 57//20
f 54//21 20//21 51//21 61//21
f 49//22 62//22 59//22 17//22
f 19//23 53//23 62//23 49//23
f 53//24 23//24 56//24 62//24
f 59//25 63//25 50//25 17//25
f 21//26 58//26 63//26 59//26
f 58//27 22//27 60//27 63//27
f 56//28 64//28 58//28 21//28
f 23//29 55//29 64//29 56//29
f 55//30 24//30 57//30 64//30
f 53//31 65//31 55//31 23//31
f 19//32 52//32 65//32 53//32
f 52//33 20//33 54//33 65//33
f 49//34 66//34 52//34 19//34
f 17//35 50//35 66//35 49//35
f 50//36 18//36 51//36 66//36
f 45//37 67//37 48//37 14//37
f 16//38 42//38 67//38 45//38
f 42//39 12//39 39//39 67//39
f 37//40 68//40 47//40 9//40
f 11//41 41//41 68//41 37//41
f 41//42 15//42 44//42 68//42
f 47//43 69//43 38//43 9//43
f 13//44 46//44 69//44 47//44
f 46//45 14//45 48//45 69//45
f 44//46 70//46 46//46 13//46
f 15//47 43//47 70//47 44//47
f 43//48 16//48 45//48 70//48
f 41//49 71//49 43//49 15//49
f 11//50 40//50 71//50 41//50
f 40//51 12//51 42//51 71//51
f 37//52 72//52 40//52 11//52
f 9//53 38//53 72//53 37//53
f 38//54 10//54 39//54 72//54
f 33//55 73//55 36//55 6//55
f 8//56 30//56 73//56 33//56
f 30//57 4//57 27//57 73//57
f 25//58 74//58 35//58 1//58
f 3//59 29//59 74//59 25//59
f 29//60 7//60 32//60 74//60
f 35//61 75//61 26//61 1//61
f 5//62 34//62 75//62 35//62
f 34//63 6//63 36//63 75//63
f 32//64 76//64 34//64 5//64
f 7//65 31//65 76//65 32//65
f 31//66 8//66 33//66 76//66
f 29//67 77//67 31//67 7//67
f 3//68 28//68 77//68 29//68
f 28//69 4//69 30//69 77//69
f 25//70 78//70 28//70 3//70
f 1//71 26//71 78//71 25//71
f 26//72 2//72 27//72 78//72
