# Blender v2.79 (sub 0) OBJ File: 'muzzle_flash.blend'
# www.blender.org
mtllib muzzle_flash_outer.mtl
o Cube.001_Cube
v 0.067575 0.331666 -0.278264
v -0.117319 -0.174595 -0.345613
v -0.197700 0.407704 0.081873
v -0.382594 -0.098557 0.014524
v 0.382594 0.098557 -0.014524
v 0.197700 -0.407704 -0.081873
v -0.234393 0.333130 0.280024
v 0.009695 0.251475 0.587828
v 0.126581 0.193424 0.127693
v 0.370669 0.111770 0.435497
v -0.370669 -0.111770 0.332417
v -0.126581 -0.193424 0.640222
v 0.234393 -0.333130 0.487891
v 0.107708 0.197726 0.717186
v 0.078535 -0.008120 0.827796
v 0.137818 0.094692 0.541899
v 0.108645 -0.111154 0.652509
v -0.108645 0.179119 0.694912
v -0.137818 -0.026727 0.805521
v -0.078535 0.076085 0.519625
v -0.107708 -0.129761 0.630234
v -0.065062 0.369685 -0.098195
v -0.024872 0.078536 -0.311938
v -0.249956 -0.136576 -0.165544
v -0.290147 0.154573 0.048199
v -0.040190 0.291149 0.325950
v -0.225085 -0.215111 0.146394
v 0.249956 0.136576 0.165544
v 0.065062 -0.369685 0.098195
v 0.290147 -0.154573 -0.048199
v 0.225085 0.215111 -0.146394
v 0.040190 -0.291149 -0.213743
v -0.053906 0.263277 0.203858
v -0.112349 0.292302 0.433926
v 0.190182 0.181623 0.511663
v 0.267152 0.135184 0.150316
v 0.302531 -0.110680 0.461694
v 0.150875 -0.293160 0.173438
v -0.190182 -0.181623 0.256252
v 0.053906 -0.263277 0.564056
v -0.248625 -0.152597 0.486320
v -0.302531 0.110680 0.306220
v -0.058443 0.029025 0.614025
v 0.122763 0.146209 0.629542
v 0.093121 0.094803 0.772491
v 0.093590 -0.059637 0.740152
v 0.123231 -0.008231 0.597204
v 0.029641 0.085388 0.530762
v 0.000469 -0.120458 0.641372
v -0.093121 -0.026838 0.574930
v -0.093590 0.127602 0.607268
v -0.122763 -0.078244 0.717878
v -0.123232 0.076196 0.750217
v -0.000469 0.188422 0.706049
v -0.029641 -0.017423 0.816659
v -0.026459 -0.152716 0.774031
v 0.026459 0.220681 0.573389
v -0.027309 0.127432 0.832692
v -0.196228 0.017107 0.653508
v 0.027309 -0.059468 0.514728
v 0.196228 0.050858 0.693913
v 0.250826 -0.057319 0.700258
v -0.250826 0.057319 0.067657
v -0.370938 0.098069 0.540493
v -0.140037 -0.312306 0.235002
v 0.370938 -0.098069 0.153706
v 0.140037 0.312306 0.330117
v -0.135326 -0.341619 -0.032831
v 0.116205 0.347100 0.058790
v 0.170880 -0.048981 -0.231987
v 0.209560 -0.139371 0.269679
v -0.247428 0.038019 0.180068
v -0.223837 0.161302 -0.166417
v -0.146330 -0.273389 0.296712
v 0.183638 0.155585 0.255579
v 0.038564 0.280659 0.279678
v -0.001257 -0.350675 0.306371
v -0.035132 -0.355652 0.032682
v -0.180205 -0.278365 0.056781
v 0.183081 0.241838 0.112167
v 0.038007 0.319125 0.136267
v 0.144620 -0.216754 0.257783
v 0.293997 -0.010162 0.223705
v -0.178861 -0.088546 0.302509
v -0.086414 0.280048 0.196906
v 0.056769 -0.233927 0.339186
v 0.110822 0.237355 0.312169
v -0.090731 -0.314520 0.277574
v -0.100106 -0.146823 0.395193
v -0.109526 0.203645 0.188487
vn 0.8655 -0.2132 0.4532
vn -0.7539 0.5426 -0.3704
vn -0.4224 0.1625 0.8917
vn -0.6949 -0.7085 -0.1230
vn 0.4786 0.7628 0.4349
vn -0.6453 -0.7629 -0.0394
vn -0.8176 0.5718 0.0682
vn 0.3914 0.8794 -0.2710
vn 0.3011 -0.4956 -0.8147
vn 0.8240 0.2281 0.5186
vn -0.1147 -0.4177 -0.9013
vn -0.8785 0.4776 -0.0104
vn 0.2174 0.7001 0.6802
vn 0.9379 0.0738 -0.3391
vn -0.2213 -0.1379 -0.9654
vn 0.4172 -0.8950 0.1578
vn -0.3134 0.5224 -0.7930
vn -0.4172 0.8950 -0.1578
vn 0.3107 0.9502 -0.0239
vn 0.4138 0.5476 -0.7273
vn 0.3134 -0.5224 0.7930
vn -0.4138 -0.5476 0.7273
vn -0.3107 -0.9502 0.0239
vn 0.4520 -0.1697 -0.8757
vn 0.4565 -0.7102 -0.5359
vn -0.2174 -0.7001 -0.6802
vn 0.8300 0.4475 0.3330
vn 0.7722 -0.1280 0.6224
vn 0.8785 -0.4776 0.0104
vn -0.4565 0.7102 0.5359
vn -0.4520 0.1697 0.8757
vn 0.2213 0.1379 0.9654
vn -0.7722 0.1280 -0.6224
vn -0.8300 -0.4475 -0.3330
vn -0.9379 -0.0738 0.3391
vn -0.8240 -0.2281 -0.5186
vn -0.5779 0.5192 -0.6296
vn 0.0835 0.1990 -0.9764
vn 0.5779 -0.5192 0.6296
vn 0.4821 0.1066 -0.8696
vn 0.9855 0.1199 -0.1197
vn 0.7420 -0.6426 -0.1910
vn 0.0914 0.9944 -0.0534
vn 0.6727 0.7358 0.0781
vn -0.9957 -0.0744 0.0544
vn -0.2454 -0.9084 -0.3385
vn -0.0695 -0.9918 0.1075
vn -0.2466 -0.8284 0.5029
vn 0.7075 0.6966 0.1190
vn 0.4471 0.8833 -0.1413
vn 0.2211 0.9498 0.2215
vn -0.7579 -0.5603 -0.3341
vn -0.2345 -0.9558 -0.1771
vn -0.4538 -0.8848 0.1060
vn -0.6279 0.2600 0.7336
vn -0.7327 0.0513 0.6786
vn -0.5353 -0.0427 0.8436
vn -0.6919 0.6186 -0.3723
vn -0.9303 0.2250 -0.2898
vn 0.8314 0.0192 -0.5553
vn 0.7053 -0.1455 -0.6938
vn 0.6536 -0.1843 0.7341
vn 0.5369 -0.4498 0.7137
vn 0.7547 -0.5036 0.4204
vn -0.3451 -0.9069 -0.2419
vn -0.4847 -0.7988 -0.3563
vn 0.6575 0.7457 -0.1083
vn 0.2796 0.9587 -0.0520
vn 0.8620 0.1667 -0.4788
usemtl None
s off
f 73//1 25//1 4//1 24//1
f 71//2 30//2 6//2 29//2 82//2
f 70//3 23//3 2//3 32//3
f 69//4 31//4 5//4 28//4 80//4
f 68//5 32//5 2//5 24//5
f 67//6 36//6 10//6 35//6
f 66//7 38//7 13//7 37//7
f 65//8 41//8 12//8 40//8
f 64//9 34//9 8//9 43//9
f 63//10 42//10 11//10 39//10
f 62//11 43//11 8//11 35//11
f 61//12 47//12 17//12 46//12
f 60//13 50//13 21//13 49//13
f 59//14 53//14 19//14 52//14
f 58//15 45//15 15//15 55//15
f 57//16 54//16 18//16 51//16
f 56//17 55//17 15//17 46//17
f 49//18 56//18 46//18 17//18
f 21//19 52//19 56//19 49//19
f 52//20 19//20 55//20 56//20
f 48//21 57//21 51//21 20//21
f 16//22 44//22 57//22 48//22
f 44//23 14//23 54//23 57//23
f 53//24 58//24 55//24 19//24
f 18//25 54//25 58//25 53//25
f 54//26 14//26 45//26 58//26
f 50//27 59//27 52//27 21//27
f 20//28 51//28 59//28 50//28
f 51//29 18//29 53//29 59//29
f 47//30 60//30 49//30 17//30
f 16//31 48//31 60//31 47//31
f 48//32 20//32 50//32 60//32
f 45//33 61//33 46//33 15//33
f 14//34 44//34 61//34 45//34
f 44//35 16//35 47//35 61//35
f 37//36 62//36 35//36 10//36
f 13//37 40//37 62//37 37//37
f 40//38 12//38 43//38 62//38
f 33//39 7//39 42//39 63//39
f 41//40 64//40 43//40 12//40
f 11//41 42//41 64//41 41//41
f 42//42 7//42 34//42 64//42
f 38//43 65//43 40//43 13//43
f 39//44 11//44 41//44 65//44
f 36//45 66//45 37//45 10//45
f 34//46 67//46 35//46 8//46
f 7//47 33//47 67//47 34//47
f 33//48 9//48 36//48 67//48
f 27//49 79//49 68//49 24//49 4//49
f 88//50 78//50 68//50 79//50
f 29//51 6//51 32//51 68//51 78//51
f 87//52 80//52 28//52 75//52
f 3//53 22//53 69//53 81//53 26//53
f 22//54 1//54 31//54 69//54
f 30//55 70//55 32//55 6//55
f 5//56 31//56 70//56 30//56
f 31//57 1//57 23//57 70//57
f 86//58 82//58 29//58 77//58
f 28//59 5//59 30//59 71//59 83//59
f 25//60 72//60 84//60 27//60 4//60
f 3//61 26//61 85//61 90//61 72//61 25//61
f 23//62 73//62 24//62 2//62
f 1//63 22//63 73//63 23//63
f 22//64 3//64 25//64 73//64
f 26//65 81//65 87//65 76//65
f 81//66 69//66 80//66 87//66
f 74//67 88//67 79//67 27//67
f 77//68 29//68 78//68 88//68
f 84//69 89//69 74//69 27//69
