# Blender v2.79 (sub 0) OBJ File: 'AR16.blend'
# www.blender.org
mtllib round.mtl
o Cylinder.013_Cylinder.029
v -0.249141 -0.207664 0.308390
v -0.270266 -0.207664 0.087994
v -0.259704 -0.225958 0.087994
v -0.238579 -0.225958 0.087994
v -0.228017 -0.207664 0.087994
v -0.238579 -0.189370 0.087994
v -0.259704 -0.189370 0.087994
v -0.270266 -0.207664 0.098029
v -0.259704 -0.225958 0.098029
v -0.238579 -0.225958 0.098029
v -0.228017 -0.207664 0.098029
v -0.238579 -0.189370 0.098029
v -0.259704 -0.189370 0.098029
v -0.257709 -0.222503 0.100369
v -0.240574 -0.222503 0.100369
v -0.232006 -0.207664 0.100369
v -0.240574 -0.192824 0.100369
v -0.257709 -0.192824 0.100369
v -0.266277 -0.207664 0.100369
v -0.259704 -0.225958 0.110517
v -0.238579 -0.225958 0.110517
v -0.228017 -0.207664 0.110517
v -0.238579 -0.189370 0.110517
v -0.259704 -0.189370 0.110517
v -0.270266 -0.207664 0.110517
v -0.265427 -0.207664 0.106062
v -0.257284 -0.221768 0.106062
v -0.240999 -0.221768 0.106062
v -0.232856 -0.207664 0.106062
v -0.240999 -0.193560 0.106062
v -0.257284 -0.193560 0.106062
v -0.259704 -0.225958 0.256261
v -0.238579 -0.225958 0.256261
v -0.228017 -0.207664 0.256261
v -0.238579 -0.189370 0.256261
v -0.259704 -0.189370 0.256261
v -0.270266 -0.207664 0.256261
v -0.259142 -0.224986 0.276671
v -0.239141 -0.224986 0.276671
v -0.229140 -0.207664 0.276671
v -0.239141 -0.190342 0.276671
v -0.259142 -0.190342 0.276671
v -0.269143 -0.207664 0.276671
v -0.257259 -0.221723 0.291492
v -0.241024 -0.221723 0.291492
v -0.232907 -0.207664 0.291492
v -0.241024 -0.193605 0.291492
v -0.257259 -0.193605 0.291492
v -0.265376 -0.207664 0.291492
vt 0.491889 0.839879
vt 0.500993 0.828000
vt 0.519173 0.828088
vt 0.524830 0.842208
vt 0.528846 0.812683
vt 0.543716 0.815053
vt 0.520810 0.797269
vt 0.529858 0.785637
vt 0.502675 0.798063
vt 0.496816 0.783760
vt 0.492280 0.812960
vt 0.477646 0.810533
vt 0.467022 0.809605
vt 0.485872 0.848710
vt 0.492209 0.774089
vt 0.535866 0.776806
vt 0.554347 0.815978
vt 0.529436 0.851880
vt 0.474856 0.865081
vt 0.538086 0.869672
vt 0.574032 0.817458
vt 0.546840 0.760472
vt 0.483540 0.756260
vt 0.447391 0.808125
vt 0.653386 0.895596
vt 0.419002 0.805962
vt 0.458889 0.888680
vt 0.653791 0.730420
vt 0.510754 0.978248
vt 0.471120 0.730610
vt 0.367869 0.895128
vt 0.562780 0.736878
vt 0.367869 0.729962
vt 0.602441 0.819618
vt 0.510877 0.647456
vt 0.550509 0.895327
vt 0.550124 0.161758
vt 0.504686 0.076004
vt 0.641974 0.076004
vt 0.590427 0.158231
vt 0.710618 0.194899
vt 0.613634 0.191372
vt 0.641974 0.313794
vt 0.596536 0.228039
vt 0.504686 0.313794
vt 0.556233 0.231566
vt 0.436042 0.194899
vt 0.533026 0.198426
vt 0.557757 0.197783
vt 0.563046 0.182855
vt 0.568042 0.209827
vt 0.583614 0.206943
vt 0.588903 0.192014
vt 0.578618 0.179970
vt 0.573330 0.194899
vn -0.8660 -0.5000 0.0000
vn 0.0000 -1.0000 0.0000
vn 0.8660 -0.5000 0.0000
vn 0.8660 0.5000 0.0000
vn 0.0000 0.0000 -1.0000
vn 0.0000 1.0000 0.0000
vn -0.8660 0.5000 0.0000
vn -0.4857 0.2804 0.8279
vn 0.0000 0.5608 0.8279
vn 0.4857 0.2804 0.8279
vn 0.4857 -0.2804 0.8279
vn 0.0000 -0.5608 0.8279
vn -0.4857 -0.2804 0.8279
vn -0.8589 -0.4959 0.1282
vn 0.0000 -0.9918 0.1282
vn 0.8589 -0.4959 0.1282
vn 0.8589 0.4959 0.1282
vn 0.0000 0.9918 0.1282
vn -0.8589 0.4959 0.1282
vn -0.6308 0.3642 -0.6851
vn 0.0000 0.7284 -0.6851
vn 0.6308 0.3642 -0.6851
vn 0.6308 -0.3642 -0.6851
vn 0.0000 -0.7284 -0.6851
vn -0.6308 -0.3642 -0.6851
vn -0.8650 -0.4994 0.0476
vn 0.0000 -0.9989 0.0476
vn 0.8650 -0.4994 0.0476
vn 0.8650 0.4994 0.0476
vn 0.0000 0.9989 0.0476
vn -0.8650 0.4994 0.0476
vn -0.8458 0.4883 0.2150
vn 0.0000 0.9766 0.2150
vn 0.8458 0.4883 0.2150
vn 0.8458 -0.4883 0.2150
vn 0.0000 -0.9766 0.2150
vn -0.8458 -0.4883 0.2150
vn -0.6657 -0.3844 0.6396
vn 0.0000 -0.7687 0.6396
vn 0.6657 -0.3844 0.6396
vn 0.6657 0.3844 0.6396
vn 0.0000 0.7687 0.6396
vn -0.6657 0.3844 0.6396
usemtl None
s off
f 8/1/1 2/2/1 3/3/1 9/4/1
f 9/4/2 3/3/2 4/5/2 10/6/2
f 10/6/3 4/5/3 5/7/3 11/8/3
f 11/8/4 5/7/4 6/9/4 12/10/4
f 3/3/5 2/2/5 7/11/5 6/9/5 5/7/5 4/5/5
f 12/10/6 6/9/6 7/11/6 13/12/6
f 13/12/7 7/11/7 2/2/7 8/1/7
f 18/13/8 13/12/8 8/1/8 19/14/8
f 17/15/9 12/10/9 13/12/9 18/13/9
f 16/16/10 11/8/10 12/10/10 17/15/10
f 15/17/11 10/6/11 11/8/11 16/16/11
f 14/18/12 9/4/12 10/6/12 15/17/12
f 19/14/13 8/1/13 9/4/13 14/18/13
f 26/19/14 19/14/14 14/18/14 27/20/14
f 27/20/15 14/18/15 15/17/15 28/21/15
f 28/21/16 15/17/16 16/16/16 29/22/16
f 29/22/17 16/16/17 17/15/17 30/23/17
f 30/23/18 17/15/18 18/13/18 31/24/18
f 31/24/19 18/13/19 19/14/19 26/19/19
f 36/25/7 24/26/7 25/27/7 37/28/7
f 35/29/6 23/30/6 24/26/6 36/25/6
f 34/31/4 22/32/4 23/30/4 35/29/4
f 33/33/3 21/34/3 22/32/3 34/31/3
f 32/35/2 20/36/2 21/34/2 33/33/2
f 37/28/1 25/27/1 20/36/1 32/35/1
f 24/26/20 31/24/20 26/19/20 25/27/20
f 23/30/21 30/23/21 31/24/21 24/26/21
f 22/32/22 29/22/22 30/23/22 23/30/22
f 21/34/23 28/21/23 29/22/23 22/32/23
f 20/36/24 27/20/24 28/21/24 21/34/24
f 25/27/25 26/19/25 27/20/25 20/36/25
f 43/37/26 37/38/26 32/39/26 38/40/26
f 38/40/27 32/39/27 33/41/27 39/42/27
f 39/42/28 33/41/28 34/43/28 40/44/28
f 40/44/29 34/43/29 35/45/29 41/46/29
f 41/46/30 35/45/30 36/47/30 42/48/30
f 42/48/31 36/47/31 37/38/31 43/37/31
f 48/49/32 42/48/32 43/37/32 49/50/32
f 47/51/33 41/46/33 42/48/33 48/49/33
f 46/52/34 40/44/34 41/46/34 47/51/34
f 45/53/35 39/42/35 40/44/35 46/52/35
f 44/54/36 38/40/36 39/42/36 45/53/36
f 49/50/37 43/37/37 38/40/37 44/54/37
f 1/55/38 49/50/38 44/54/38
f 1/55/39 44/54/39 45/53/39
f 1/55/40 45/53/40 46/52/40
f 1/55/41 46/52/41 47/51/41
f 1/55/42 47/51/42 48/49/42
f 1/55/43 48/49/43 49/50/43
