# Blender v2.79 (sub 0) OBJ File: 'AR16.blend'
# www.blender.org
mtllib trigger.mtl
o Cube.006_Cube.013
v -0.018051 -0.101562 0.014719
v -0.018051 0.015587 0.014719
v -0.018051 -0.101562 -0.000495
v -0.018051 0.015587 -0.021667
v 0.018051 -0.101562 0.014719
v 0.018051 0.015587 0.014719
v 0.018051 -0.101562 -0.000495
v 0.018051 0.015587 -0.021667
v -0.018051 -0.042987 -0.006920
v -0.018051 -0.042987 -0.036359
v 0.018051 -0.042987 -0.036359
v 0.018051 -0.042987 -0.006920
v -0.018051 -0.013700 0.000150
v -0.018051 -0.013700 -0.029288
v 0.018051 -0.013700 -0.029288
v 0.018051 -0.013700 0.000150
v -0.018051 -0.072274 -0.029288
v 0.018051 -0.072274 -0.029288
v 0.018051 -0.072274 0.000150
v -0.018051 -0.072274 0.000150
vn -1.0000 -0.0000 0.0000
vn 0.0000 0.2518 -0.9678
vn 1.0000 -0.0000 0.0000
vn 0.0000 -0.4454 0.8953
vn 0.0000 -1.0000 0.0000
vn 0.0000 1.0000 0.0000
vn 0.0000 0.2347 0.9721
vn 0.0000 -0.2347 -0.9721
vn 0.0000 -0.2347 0.9721
vn 0.0000 0.2347 -0.9721
vn 0.0000 -0.7011 -0.7131
vn 0.0000 0.4454 0.8953
usemtl None
s off
f 13//1 2//1 4//1 14//1
f 14//2 4//2 8//2 15//2
f 15//3 8//3 6//3 16//3
f 16//4 6//4 2//4 13//4
f 3//5 7//5 5//5 1//5
f 8//6 4//6 2//6 6//6
f 19//7 12//7 9//7 20//7
f 18//3 11//3 12//3 19//3
f 17//8 10//8 11//8 18//8
f 20//1 9//1 10//1 17//1
f 12//9 16//9 13//9 9//9
f 11//3 15//3 16//3 12//3
f 10//10 14//10 15//10 11//10
f 9//1 13//1 14//1 10//1
f 1//1 20//1 17//1 3//1
f 3//11 17//11 18//11 7//11
f 7//3 18//3 19//3 5//3
f 5//12 19//12 20//12 1//12
